<svg width="718" height="270" viewBox="0 0 718 270" fill="none" xmlns="http://www.w3.org/2000/svg">
<path d="M93.5858 18.562C95.9378 18.562 97.4568 19.787 98.1428 22.237L97.2608 30.91V33.703C99.7108 53.989 101.23 69.767 101.818 81.037C102.896 91.523 104.023 96.766 105.199 96.766C105.199 98.824 103.484 100.147 100.054 100.735C95.1538 100.735 92.7038 90.837 92.7038 71.041L88.5878 32.821V31.498C88.5878 22.874 90.2538 18.562 93.5858 18.562ZM119.275 12.976C122.313 12.976 124.273 16.651 125.155 24.001V24.883C125.155 28.215 123.587 29.881 120.451 29.881C117.413 29.881 115.894 26.696 115.894 20.326C115.208 20.326 114.767 19.199 114.571 16.945C115.551 14.299 117.119 12.976 119.275 12.976ZM168.308 19.297C169.974 19.297 171.493 20.865 172.865 24.001L166.397 64.867V76.333C166.397 88.289 168.259 94.267 171.983 94.267C174.433 95.443 175.658 97.011 175.658 98.971C175.658 101.225 173.698 102.548 169.778 102.94C165.466 102.94 162.085 98.971 159.635 91.033H158.165C154.539 98.971 150.129 102.94 144.935 102.94C138.859 102.94 135.184 98.334 133.91 89.122C133.91 78.44 141.064 67.121 155.372 55.165C158.214 55.165 159.635 51.196 159.635 43.258C161.791 27.284 164.682 19.297 168.308 19.297ZM142.583 87.946V91.915L144.935 94.267H145.817C148.953 94.267 152.628 84.81 156.842 65.896H155.96C147.042 74.814 142.583 82.164 142.583 87.946ZM244.64 19.003C247.384 19.983 248.756 21.502 248.756 23.56L250.226 79.567V97.648C250.226 100.98 248.805 102.646 245.963 102.646H244.052C242.288 101.47 241.406 100.098 241.406 98.53V81.478L240.083 23.266C240.083 20.816 241.602 19.395 244.64 19.003ZM284.329 44.581C291.581 44.581 297.069 49.971 300.793 60.751L301.381 63.838C301.381 74.324 296.481 85.055 286.681 96.031C282.761 99.657 278.792 101.47 274.774 101.47C268.894 101.47 264.729 98.089 262.279 91.327C261.397 88.191 260.956 85.447 260.956 83.095V81.331C260.956 65.847 266.591 54.087 277.861 46.051C279.821 45.071 281.977 44.581 284.329 44.581ZM269.629 82.801C269.629 89.465 271.344 92.797 274.774 92.797C281.928 92.797 287.857 83.634 292.561 65.308V62.515C290.895 56.439 287.808 53.401 283.3 53.401C281.536 53.401 280.654 54.626 280.654 57.076C280.654 58.742 278.694 60.065 274.774 61.045C271.344 66.827 269.629 74.079 269.629 82.801ZM310.1 50.461C312.354 50.461 314.804 55.851 317.45 66.631C321.174 75.255 323.281 79.812 323.771 80.302C324.261 80.302 326.074 75.402 329.21 65.602C332.346 55.802 335.335 50.902 338.177 50.902C340.823 51.882 342.146 53.45 342.146 55.606C334.012 76.578 329.945 90.445 329.945 97.207L327.152 100H324.359C320.831 97.452 314.853 83.977 306.425 59.575L305.102 54.136C305.788 51.686 307.454 50.461 310.1 50.461ZM361.607 47.227C365.527 47.325 372.142 54.185 381.452 67.807L381.746 70.306C381.746 73.05 375.033 75.157 361.607 76.627L361.166 77.068V77.656C363.224 86.476 365.38 90.886 367.634 90.886H369.398C372.534 90.886 377.287 87.505 383.657 80.743H384.539C386.499 80.743 388.018 82.164 389.096 85.006C389.096 87.358 384.98 91.425 376.748 97.207C374.592 98.481 371.995 99.412 368.957 100C361.019 100 355.482 92.552 352.346 77.656C347.838 76.97 345.584 75.108 345.584 72.07C345.584 69.914 347.25 68.493 350.582 67.807V68.395L352.052 67.807V64.132C352.052 52.862 355.237 47.227 361.607 47.227ZM362.489 57.811H361.166L360.578 63.25V67.807H361.166C366.654 67.611 369.398 67.023 369.398 66.043C366.85 62.221 364.547 59.477 362.489 57.811ZM467.503 10.771C470.247 11.359 471.619 12.731 471.619 14.887L470.737 21.355V23.266C470.737 27.578 471.227 32.135 472.207 36.937H472.501C483.869 33.507 490.925 31.792 493.669 31.792C496.511 32.576 497.932 33.997 497.932 36.055C497.932 39.387 494.551 41.053 487.789 41.053L472.501 46.492C472.501 59.722 473.922 77.705 476.764 100.441C476.176 103.087 474.755 104.41 472.501 104.41H472.207C468.777 104.41 467.062 100 467.062 91.18C465.788 84.614 464.71 70.355 463.828 48.403H461.182C451.97 47.815 447.364 45.659 447.364 41.935C447.364 40.857 448.393 39.534 450.451 37.966H451.921L458.683 39.73H463.387L462.064 21.355C462.064 14.299 463.877 10.771 467.503 10.771ZM525.931 44.581C533.183 44.581 538.671 49.971 542.395 60.751L542.983 63.838C542.983 74.324 538.083 85.055 528.283 96.031C524.363 99.657 520.394 101.47 516.376 101.47C510.496 101.47 506.331 98.089 503.881 91.327C502.999 88.191 502.558 85.447 502.558 83.095V81.331C502.558 65.847 508.193 54.087 519.463 46.051C521.423 45.071 523.579 44.581 525.931 44.581ZM511.231 82.801C511.231 89.465 512.946 92.797 516.376 92.797C523.53 92.797 529.459 83.634 534.163 65.308V62.515C532.497 56.439 529.41 53.401 524.902 53.401C523.138 53.401 522.256 54.626 522.256 57.076C522.256 58.742 520.296 60.065 516.376 61.045C512.946 66.827 511.231 74.079 511.231 82.801ZM33.8498 124.856C36.5938 124.856 37.9658 128.188 37.9658 134.852L39.7298 160.136H40.3178L47.6678 157.343C55.8998 157.343 60.8978 165.771 62.6618 182.627C63.3478 187.429 63.6908 194.485 63.6908 203.795V215.702C63.6908 219.426 62.3188 221.288 59.5748 221.288H58.9868C56.3408 220.896 55.0178 219.475 55.0178 217.025V203.207C55.0178 181.059 52.8618 168.809 48.5498 166.457H47.6678C44.7278 166.457 42.5718 170.965 41.1998 179.981V188.213C41.1998 202.913 39.9748 210.263 37.5248 210.263L34.7318 210.557C31.9878 210.557 30.6158 206.49 30.6158 198.356C30.9098 189.732 31.4978 182.676 32.3798 177.188L29.2928 128.825C29.2928 126.277 30.8118 124.954 33.8498 124.856ZM83.8287 153.227C87.7487 153.325 94.3637 160.185 103.674 173.807L103.968 176.306C103.968 179.05 97.2547 181.157 83.8287 182.627L83.3877 183.068V183.656C85.4457 192.476 87.6017 196.886 89.8557 196.886H91.6197C94.7557 196.886 99.5087 193.505 105.879 186.743H106.761C108.721 186.743 110.24 188.164 111.318 191.006C111.318 193.358 107.202 197.425 98.9697 203.207C96.8137 204.481 94.2167 205.412 91.1787 206C83.2407 206 77.7037 198.552 74.5677 183.656C70.0597 182.97 67.8057 181.108 67.8057 178.07C67.8057 175.914 69.4717 174.493 72.8037 173.807V174.395L74.2737 173.807V170.132C74.2737 158.862 77.4587 153.227 83.8287 153.227ZM84.7107 163.811H83.3877L82.7997 169.25V173.807H83.3877C88.8757 173.611 91.6197 173.023 91.6197 172.043C89.0717 168.221 86.7687 165.477 84.7107 163.811ZM144.456 149.258C148.768 149.258 150.924 150.973 150.924 154.403L149.601 157.196L148.719 184.097C148.719 196.249 151.169 203.795 156.069 206.735L156.363 208.94C156.069 211.782 154.746 213.203 152.394 213.203H151.512C144.162 208.205 140.487 200.561 140.487 190.271H139.458C135.538 201.247 130.785 206.735 125.199 206.735C120.005 205.265 117.408 201.394 117.408 195.122C117.408 181.304 122.945 167.535 134.019 153.815C137.743 150.777 141.222 149.258 144.456 149.258ZM126.669 189.242L126.081 193.358V196.151H127.551C134.901 177.825 138.576 166.653 138.576 162.635H137.988C132.304 169.005 128.531 177.874 126.669 189.242ZM179.294 148.082C185.468 148.082 189.143 152.394 190.319 161.018V162.341C190.319 171.847 185.419 180.569 175.619 188.507C181.303 194.093 191.25 196.886 205.46 196.886C207.616 197.572 208.694 199.091 208.694 201.443C208.694 204.089 206.979 205.412 203.549 205.412C193.945 205.412 183.851 202.962 173.267 198.062V202.325C173.267 212.419 171.111 217.466 166.799 217.466C163.761 217.466 162.242 211.635 162.242 199.973V188.507L161.801 184.391L162.83 179.687L161.801 165.575V164.987C161.801 162.341 163.173 160.528 165.917 159.548C169.739 151.904 174.198 148.082 179.294 148.082ZM171.944 180.275C174.786 180.275 177.971 175.179 181.499 164.987V158.666L179.735 156.755H178.412C174.1 159.695 171.944 167.535 171.944 180.275ZM291.923 139.85C296.529 139.85 299.714 144.75 301.478 154.55V155.138C301.478 157.392 299.959 158.715 296.921 159.107C294.471 159.107 292.805 156.069 291.923 149.993L291.335 149.552H289.571C287.415 152.688 286.337 156.804 286.337 161.9L286.778 169.25C290.698 169.25 294.961 168.221 299.567 166.163C301.429 166.163 303.144 167.486 304.712 170.132C304.712 174.15 299.224 176.796 288.248 178.07L291.923 202.031C291.923 204.089 290.208 205.412 286.778 206C283.74 206 282.221 201.296 282.221 191.888L279.428 179.393L269.873 180.863C267.815 180.863 266.59 179.344 266.198 176.306C266.198 173.366 270.167 171.504 278.105 170.72L277.517 161.606C279.085 147.102 283.887 139.85 291.923 139.85ZM328.016 148.082C334.19 148.082 337.865 152.394 339.041 161.018V162.341C339.041 171.847 334.141 180.569 324.341 188.507C330.025 194.093 339.972 196.886 354.182 196.886C356.338 197.572 357.416 199.091 357.416 201.443C357.416 204.089 355.701 205.412 352.271 205.412C342.667 205.412 332.573 202.962 321.989 198.062V202.325C321.989 212.419 319.833 217.466 315.521 217.466C312.483 217.466 310.964 211.635 310.964 199.973V188.507L310.523 184.391L311.552 179.687L310.523 165.575V164.987C310.523 162.341 311.895 160.528 314.639 159.548C318.461 151.904 322.92 148.082 328.016 148.082ZM320.666 180.275C323.508 180.275 326.693 175.179 330.221 164.987V158.666L328.457 156.755H327.134C322.822 159.695 320.666 167.535 320.666 180.275ZM385.822 150.581C393.074 150.581 398.562 155.971 402.286 166.751L402.874 169.838C402.874 180.324 397.974 191.055 388.174 202.031C384.254 205.657 380.285 207.47 376.267 207.47C370.387 207.47 366.222 204.089 363.772 197.327C362.89 194.191 362.449 191.447 362.449 189.095V187.331C362.449 171.847 368.084 160.087 379.354 152.051C381.314 151.071 383.47 150.581 385.822 150.581ZM371.122 188.801C371.122 195.465 372.837 198.797 376.267 198.797C383.421 198.797 389.35 189.634 394.054 171.308V168.515C392.388 162.439 389.301 159.401 384.793 159.401C383.029 159.401 382.147 160.626 382.147 163.076C382.147 164.742 380.187 166.065 376.267 167.045C372.837 172.827 371.122 180.079 371.122 188.801ZM411.74 154.55C412.426 152.1 413.994 150.875 416.444 150.875C418.894 150.875 420.511 153.325 421.295 158.225H421.883L428.645 156.755C431.781 156.755 434.819 159.695 437.759 165.575H438.347C442.659 158.813 447.069 155.432 451.577 155.432C461.181 157.196 465.983 163.468 465.983 174.248L466.277 179.393L464.954 209.087V211.88C464.954 214.33 463.435 215.751 460.397 216.143C457.359 216.143 455.84 212.566 455.84 205.412L457.604 178.805C457.604 169.005 455.301 164.105 450.695 164.105C448.049 164.105 444.864 170.524 441.14 183.362C439.278 198.062 437.759 205.412 436.583 205.412C434.917 205.412 434.084 205.755 434.084 206.441C431.046 206.049 429.527 204.481 429.527 201.737L431.438 183.95C431.144 171.7 429.919 165.575 427.763 165.575H427.322C424.872 167.437 423.647 171.112 423.647 176.6V184.391L423.059 206.882C422.373 209.332 420.854 210.557 418.502 210.557C416.444 210.557 415.121 208.842 414.533 205.412L413.945 188.066L414.827 173.807C414.239 166.457 413.21 160.038 411.74 154.55ZM534.534 161.9C537.964 161.9 540.316 169.446 541.59 184.538C543.256 191.496 544.481 194.975 545.265 194.975H546.147C548.597 188.801 549.822 182.676 549.822 176.6L548.94 166.457C550.018 163.811 551.537 162.488 553.497 162.488C557.123 162.488 558.936 168.907 558.936 181.745C561.092 195.073 562.17 207.47 562.17 218.936V225.845C562.17 246.915 556.192 261.125 544.236 268.475L541.002 269.063C535.416 269.063 530.222 263.869 525.42 253.481L524.097 244.661V244.22C524.097 237.752 525.91 234.518 529.536 234.518L533.211 236.87L532.77 246.131C532.77 250.639 535.073 255.196 539.679 259.802H541.59C546.98 259.802 550.949 249.512 553.497 228.932L553.791 220.406C553.693 210.508 553.301 204.187 552.615 201.443C548.695 204.873 545.608 206.588 543.354 206.588C538.356 206.588 533.897 193.211 529.977 166.457L529.536 166.163C529.536 163.909 531.202 162.488 534.534 161.9ZM592.253 150.581C599.505 150.581 604.993 155.971 608.717 166.751L609.305 169.838C609.305 180.324 604.405 191.055 594.605 202.031C590.685 205.657 586.716 207.47 582.698 207.47C576.818 207.47 572.653 204.089 570.203 197.327C569.321 194.191 568.88 191.447 568.88 189.095V187.331C568.88 171.847 574.515 160.087 585.785 152.051C587.745 151.071 589.901 150.581 592.253 150.581ZM577.553 188.801C577.553 195.465 579.268 198.797 582.698 198.797C589.852 198.797 595.781 189.634 600.485 171.308V168.515C598.819 162.439 595.732 159.401 591.224 159.401C589.46 159.401 588.578 160.626 588.578 163.076C588.578 164.742 586.618 166.065 582.698 167.045C579.268 172.827 577.553 180.079 577.553 188.801ZM621.699 161.753L624.345 160.283C626.697 160.283 628.412 161.704 629.49 164.546C627.922 171.798 627.138 179.246 627.138 186.89C627.138 190.712 628.265 194.877 630.519 199.385H631.401C634.243 199.385 637.624 188.164 641.544 165.722C642.916 164.546 644.239 163.958 645.513 163.958C648.551 163.958 650.07 169.348 650.07 180.128C651.344 191.986 652.765 197.915 654.333 197.915L656.538 197.033C659.38 198.111 660.801 199.63 660.801 201.59C659.037 205.314 656.587 207.176 653.451 207.176C649.923 207.176 646.542 203.648 643.308 196.592C639.388 204.824 635.419 208.94 631.401 208.94C625.423 208.94 621.258 202.717 618.906 190.271L618.465 185.567V184.097C618.465 176.257 619.543 168.809 621.699 161.753Z" fill="#342D38"/>
<g clip-path="url(#clip0_153_4820)">
<path d="M711.224 171.183C710.351 168.468 708.874 165.685 707.181 162.883C705.359 160.128 703.255 157.372 700.725 154.841C695.763 149.74 689.297 145.522 683.042 142.924C683.808 143.584 676.566 140.846 669.488 139.375C665.99 138.535 662.533 138.096 660.423 137.781C658.29 137.548 657.426 137.6 659.012 138.011C650.156 136.352 636.565 135.578 635.88 135.9C635.352 136.032 634.529 136.16 633.222 136.28C632.56 136.339 631.791 136.389 630.865 136.435C629.952 136.52 628.883 136.601 627.656 136.693C626.416 136.771 625.018 136.858 623.448 136.954C621.862 137.048 620.095 137.246 618.113 137.4C616.132 137.553 613.931 137.711 611.514 138.017C610.3 138.146 609.037 138.294 607.712 138.436C607.05 138.507 606.372 138.577 605.678 138.657C604.981 138.762 604.284 138.866 603.557 138.967C601.297 139.263 598.72 139.603 596.095 139.962C593.48 140.382 590.817 140.81 588.328 141.218C583.389 142.121 579.216 143.011 577.667 143.385C572.824 144.598 589.311 141.393 584.468 142.606L587.54 141.975L590.647 141.468L596.863 140.442C601.046 139.95 605.198 139.287 609.41 138.99C617.793 138.164 626.248 137.91 634.659 138.133C643.07 138.356 651.463 139.107 659.635 140.571C667.774 142.044 675.768 144.249 682.761 147.493L684.079 148.096C684.512 148.304 684.896 148.544 685.313 148.763C686.114 149.222 686.949 149.648 687.748 150.13C689.276 151.162 690.855 152.161 692.263 153.314C693.755 154.402 695.013 155.661 696.338 156.866C697.548 158.144 698.805 159.403 699.85 160.774C702.022 163.465 703.866 166.318 705.152 169.299C706.472 172.26 707.422 175.331 707.67 178.397C707.919 181.451 707.806 184.532 706.836 187.426C705.866 190.32 704.411 193.06 702.245 195.555C697.958 200.548 691.437 204.385 684.139 207.32C681.685 208.368 677.301 210.021 671.159 211.775C665.032 213.531 657.081 215.432 648.043 217.436C629.952 221.432 607.061 225.333 583.249 227.706C577.293 228.287 571.296 228.816 565.293 229.225C559.29 229.645 553.357 229.975 547.547 229.992C535.938 230.076 524.727 228.728 515.472 225.299C506.16 221.986 499.165 216.733 495.694 211.373C492.084 205.999 491.583 200.769 491.69 197.073C491.664 196.169 491.779 195.265 491.893 194.362C492.409 190.295 493.799 186.069 495.909 181.982C498.05 177.897 500.863 173.983 504.237 170.421C510.886 163.168 518.983 157.155 526.079 152.673C532.552 148.519 539.678 144.738 547.192 141.487C543.544 142.774 540.307 144.183 537.465 145.364C544.89 141.731 552.924 138.924 555.923 137.734C560.212 136.265 562.825 135.363 564.255 134.918C565.658 134.434 565.811 134.304 565.195 134.379C564.579 134.455 563.179 134.735 561.506 135.097C559.844 135.509 557.91 135.992 556.168 136.433C551.256 137.88 557.551 135.322 549.952 137.808C552.648 136.842 554.655 136.077 556.743 135.452C558.817 134.801 560.864 134.1 563.697 133.351C563.831 133.255 562.823 133.523 561.285 133.946C559.774 134.408 557.762 135.064 555.831 135.68C552.012 136.964 548.678 138.244 550.442 137.396C551.75 136.927 553.089 136.462 554.461 135.975C555.846 135.525 557.262 135.066 558.678 134.608C561.486 133.628 564.442 132.89 567.249 132.091C566.234 132.262 561.266 133.475 556.852 134.944C554.604 135.615 552.519 136.385 551.019 136.896C549.503 137.418 548.587 137.706 548.756 137.565C550.211 137.026 554.023 135.646 557.727 134.592C561.38 133.426 564.908 132.585 565.36 132.253C565.509 132.159 561.7 133.167 558.808 134.054C566.53 131.591 572.69 130.151 575.122 129.51C577.77 128.9 576.009 128.87 567.815 130.688C573.429 129.245 581.602 127.822 587.746 126.886C587.746 126.886 587.715 126.883 587.7 126.882C586.164 127.113 584.074 127.425 582.015 127.74C579.943 128.03 577.966 128.473 576.553 128.728C578.284 128.406 579.976 128.009 581.733 127.75L586.962 126.922C586.396 126.966 585.75 127.026 585.09 127.074C583.777 127.265 582.463 127.457 581.149 127.648C579.835 127.852 578.512 128.139 577.162 128.387L580.596 127.717L584.082 127.173C582.317 127.347 580.269 127.543 578.081 127.906C573.93 128.558 569.948 129.405 566.413 130.149C562.944 131.02 559.884 131.7 557.803 132.422C540.69 137.663 524.765 145.263 511.456 155.137C504.829 160.118 498.816 165.542 493.943 171.816C489.038 178.1 485.688 185.128 484.467 192.606C484.616 192.68 484.965 191.1 484.735 193.593C484.358 197.503 484.384 201.114 485.222 204.728C486.076 208.332 487.631 211.952 490.472 215.51C490.678 215.649 490.884 215.788 491.089 215.928C495.34 221.468 502.007 226.041 509.53 229.286C516.524 232.169 524.12 233.953 531.63 234.802C539.153 235.677 546.626 235.741 553.912 235.464C553.528 235.404 553.33 235.35 554.789 235.268C560.841 234.997 569.084 234.506 577.613 233.79C578.874 233.666 580.12 233.528 581.364 233.415C582.328 233.287 582.556 233.188 582.702 233.129C586.545 232.762 589.964 232.428 593.119 232.082C613.856 229.533 634.43 225.863 655.021 221.003C665.244 218.507 675.76 216.061 685.746 212.075C690.708 210.079 695.547 207.723 699.791 204.711C704.048 201.736 707.711 198.08 710.053 193.846C712.039 190.264 713.053 186.388 713.192 182.515C713.315 178.641 712.545 174.805 711.256 171.174L711.224 171.183Z" fill="#342D38"/>
</g>
<defs>
<clipPath id="clip0_153_4820">
<rect width="226.844" height="112.641" fill="white" transform="translate(491.354 118) rotate(5.27385)"/>
</clipPath>
</defs>
</svg>
