<svg width="652" height="506" viewBox="0 0 652 506" fill="none" xmlns="http://www.w3.org/2000/svg">
<path d="M16.6133 218L21.8926 192.5L70.0039 149.07C74.8516 144.754 78.8691 140.803 82.0566 137.217C85.2441 133.564 87.7676 130.277 89.627 127.355C91.4863 124.434 92.7812 121.811 93.5117 119.486C94.3086 117.096 94.707 114.971 94.707 113.111C94.707 109.857 93.8438 107.434 92.1172 105.84C90.3906 104.18 88.1992 103.35 85.543 103.35C82.6875 103.35 79.7656 103.914 76.7773 105.043C73.7891 106.105 70.7012 107.732 67.5137 109.924C64.3926 112.115 61.0723 114.805 57.5527 117.992L39.0254 92.293C46.1309 85.5859 54.1328 80.2402 63.0312 76.2559C71.9297 72.2715 81.8906 70.2793 92.9141 70.2793C100.949 70.2793 107.988 71.7734 114.031 74.7617C120.141 77.6836 124.889 81.9004 128.275 87.4121C131.729 92.8574 133.455 99.3984 133.455 107.035C133.455 113.344 132.326 119.453 130.068 125.363C127.811 131.207 123.893 137.449 118.314 144.09C112.803 150.664 105.066 158.234 95.1055 166.801L74.6855 184.332V185.527H123.494L116.721 218H16.6133ZM180.371 219.992C173.133 219.992 166.027 219.328 159.055 218C152.082 216.605 146.404 214.646 142.021 212.123V179.053C147.932 182.639 154.041 185.195 160.35 186.723C166.725 188.25 173.133 189.014 179.574 189.014C183.492 189.014 187.111 188.682 190.432 188.018C193.818 187.354 196.74 186.324 199.197 184.93C201.654 183.535 203.547 181.709 204.875 179.451C206.27 177.127 206.967 174.338 206.967 171.084C206.967 168.229 206.27 165.838 204.875 163.912C203.48 161.92 200.791 160.426 196.807 159.43C192.822 158.367 186.945 157.836 179.176 157.836H170.809L176.088 128.85H183.857C188.639 128.85 192.922 128.484 196.707 127.754C200.492 126.957 203.746 125.828 206.469 124.367C209.191 122.84 211.25 121.014 212.645 118.889C214.105 116.764 214.836 114.307 214.836 111.518C214.836 109.193 213.84 106.936 211.848 104.744C209.922 102.486 206.436 101.357 201.389 101.357C196.939 101.357 192.49 102.121 188.041 103.648C183.592 105.176 179.076 107.201 174.494 109.725L158.756 85.0215C165.861 80.5059 173.166 76.9199 180.67 74.2637C188.174 71.6074 197.537 70.2793 208.76 70.2793C217.459 70.2793 225.096 71.6738 231.67 74.4629C238.311 77.1855 243.49 81.1035 247.209 86.2168C250.928 91.3301 252.787 97.5059 252.787 104.744C252.787 111.85 251.326 117.959 248.404 123.072C245.482 128.119 241.465 132.203 236.352 135.324C231.238 138.445 225.361 140.703 218.721 142.098V142.895C227.752 144.621 234.559 148.439 239.141 154.35C243.789 160.26 246.113 167.199 246.113 175.168C246.113 183.07 244.387 189.844 240.934 195.488C237.48 201.133 232.699 205.781 226.59 209.434C220.547 213.02 213.574 215.676 205.672 217.402C197.77 219.129 189.336 219.992 180.371 219.992ZM276.295 220.49C271.115 220.49 266.932 219.262 263.744 216.805C260.557 214.348 258.963 210.529 258.963 205.35C258.963 197.248 261.387 191.371 266.234 187.719C271.082 184 276.76 182.141 283.268 182.141C288.58 182.141 292.896 183.402 296.217 185.926C299.537 188.383 301.197 192.268 301.197 197.58C301.197 206.346 298.939 212.355 294.424 215.609C289.908 218.863 283.865 220.49 276.295 220.49ZM377 219.992C365.91 219.992 356.846 217.768 349.807 213.318C342.834 208.869 337.688 202.693 334.367 194.791C331.113 186.822 329.486 177.625 329.486 167.199C329.486 160.227 330.084 153.088 331.279 145.783C332.541 138.412 334.334 131.24 336.658 124.268C339.049 117.295 341.971 110.854 345.424 104.943C348.943 99.0332 352.928 94.0195 357.377 89.9023C363.287 84.457 369.164 80.3398 375.008 77.5508C380.918 74.6953 387.326 72.7695 394.232 71.7734C401.205 70.7773 409.207 70.2793 418.238 70.2793C422.023 70.2793 425.875 70.5781 429.793 71.1758C433.711 71.707 437.596 72.4375 441.447 73.3672L435.172 103.549C432.648 102.818 429.66 102.221 426.207 101.756C422.754 101.291 419.666 101.059 416.943 101.059C406.518 101.059 398.184 102.354 391.941 104.943C385.699 107.533 380.752 111.551 377.1 116.996C373.447 122.375 370.293 129.248 367.637 137.615H368.434C370.227 134.76 372.418 132.037 375.008 129.447C377.664 126.857 380.918 124.766 384.77 123.172C388.688 121.512 393.436 120.682 399.014 120.682C409.041 120.682 416.977 123.936 422.82 130.443C428.73 136.951 431.686 147.045 431.686 160.725C431.686 169.158 430.457 176.994 428 184.232C425.609 191.404 422.057 197.68 417.342 203.059C412.693 208.371 406.982 212.521 400.209 215.51C393.436 218.498 385.699 219.992 377 219.992ZM377.398 189.412C379.922 189.412 382.113 188.682 383.973 187.221C385.898 185.76 387.492 183.801 388.754 181.344C390.016 178.887 390.945 176.131 391.543 173.076C392.207 170.021 392.539 166.9 392.539 163.713C392.539 159.729 391.775 156.607 390.248 154.35C388.787 152.025 386.496 150.863 383.375 150.863C381.25 150.863 379.291 151.428 377.498 152.557C375.705 153.619 374.111 155.18 372.717 157.238C371.322 159.23 370.16 161.588 369.23 164.311C368.898 165.439 368.6 166.668 368.334 167.996C368.135 169.258 367.969 170.586 367.836 171.98C367.703 173.309 367.637 174.703 367.637 176.164C367.637 178.355 367.869 180.281 368.334 181.941C368.799 183.602 369.463 184.996 370.326 186.125C371.189 187.188 372.219 188.018 373.414 188.615C374.609 189.146 375.938 189.412 377.398 189.412ZM469.039 218L577.514 72.3711H606.301L498.623 218H469.039ZM483.482 161.721C473.057 161.721 465.088 158.832 459.576 153.055C454.064 147.277 451.309 138.744 451.309 127.455C451.309 122.674 451.773 117.66 452.703 112.414C453.699 107.168 455.26 102.055 457.385 97.0742C459.51 92.0273 462.266 87.5117 465.652 83.5273C469.105 79.4766 473.256 76.2559 478.104 73.8652C482.951 71.4746 488.629 70.2793 495.137 70.2793C505.762 70.2793 513.697 73.2676 518.943 79.2441C524.256 85.2207 526.912 93.6543 526.912 104.545C526.912 109.26 526.447 114.24 525.518 119.486C524.654 124.732 523.193 129.846 521.135 134.826C519.143 139.807 516.453 144.322 513.066 148.373C509.746 152.424 505.629 155.678 500.715 158.135C495.867 160.525 490.123 161.721 483.482 161.721ZM485.375 137.615C486.969 137.615 488.43 136.852 489.758 135.324C491.152 133.797 492.381 131.771 493.443 129.248C494.572 126.658 495.502 123.836 496.232 120.781C497.029 117.66 497.627 114.539 498.025 111.418C498.424 108.297 498.623 105.408 498.623 102.752C498.623 99.8965 498.225 97.8047 497.428 96.4766C496.631 95.082 495.27 94.3848 493.344 94.3848C491.883 94.3848 490.488 95.1152 489.16 96.5762C487.832 98.0371 486.604 99.9961 485.475 102.453C484.346 104.91 483.383 107.666 482.586 110.721C481.789 113.775 481.158 116.896 480.693 120.084C480.229 123.271 479.996 126.326 479.996 129.248C479.996 131.971 480.428 134.062 481.291 135.523C482.154 136.918 483.516 137.615 485.375 137.615ZM581.398 219.992C570.973 219.992 563.004 217.137 557.492 211.426C551.98 205.648 549.225 197.082 549.225 185.727C549.225 180.945 549.689 175.932 550.619 170.686C551.615 165.439 553.176 160.326 555.301 155.346C557.426 150.365 560.182 145.883 563.568 141.898C567.021 137.848 571.172 134.627 576.02 132.236C580.867 129.846 586.545 128.65 593.053 128.65C603.678 128.65 611.646 131.639 616.959 137.615C622.271 143.592 624.928 152.025 624.928 162.916C624.928 167.631 624.463 172.611 623.533 177.857C622.67 183.037 621.209 188.15 619.15 193.197C617.158 198.178 614.469 202.693 611.082 206.744C607.762 210.729 603.645 213.949 598.73 216.406C593.816 218.797 588.039 219.992 581.398 219.992ZM583.291 195.986C584.885 195.986 586.346 195.223 587.674 193.695C589.068 192.168 590.297 190.143 591.359 187.619C592.488 185.029 593.418 182.207 594.148 179.152C594.945 176.031 595.543 172.91 595.941 169.789C596.34 166.668 596.539 163.779 596.539 161.123C596.539 158.201 596.141 156.076 595.344 154.748C594.547 153.42 593.186 152.756 591.26 152.756C589.799 152.756 588.404 153.486 587.076 154.947C585.748 156.408 584.52 158.367 583.391 160.824C582.262 163.281 581.299 166.037 580.502 169.092C579.705 172.146 579.074 175.268 578.609 178.455C578.145 181.643 577.912 184.697 577.912 187.619C577.912 190.342 578.344 192.434 579.207 193.895C580.07 195.289 581.432 195.986 583.291 195.986Z" fill="#FFFCF9"/>
<path d="M139.479 366L149.982 316.21H167.077L156.486 366H139.479ZM160.441 311.464C158.039 311.464 156.032 311.01 154.421 310.102C152.839 309.164 152.048 307.553 152.048 305.268C152.048 303.275 152.443 301.605 153.234 300.258C154.025 298.881 155.153 297.841 156.618 297.138C158.112 296.435 159.899 296.083 161.979 296.083C164.235 296.083 166.184 296.552 167.824 297.489C169.494 298.397 170.329 299.994 170.329 302.279C170.329 305.033 169.523 307.26 167.912 308.959C166.301 310.629 163.811 311.464 160.441 311.464ZM168.747 366L179.25 316.21H192.829L192.302 323.153H192.653C193.737 321.278 194.938 319.77 196.257 318.627C197.575 317.484 199.055 316.649 200.695 316.122C202.365 315.595 204.255 315.331 206.364 315.331C209.47 315.331 211.975 315.976 213.879 317.265C215.812 318.554 217.233 320.268 218.142 322.406C219.05 324.545 219.504 326.903 219.504 329.481C219.504 331.122 219.401 332.821 219.196 334.579C218.991 336.308 218.728 337.963 218.405 339.545L212.824 366H195.817L201.486 338.842C201.662 338.08 201.838 337.113 202.014 335.941C202.189 334.74 202.277 333.627 202.277 332.602C202.277 331.342 201.955 330.404 201.311 329.789C200.666 329.145 199.89 328.822 198.981 328.822C197.868 328.822 196.799 329.291 195.773 330.229C194.777 331.137 193.854 332.543 193.005 334.447C192.185 336.322 191.467 338.739 190.852 341.698L185.754 366H168.747ZM245.959 366.879C242.59 366.879 239.499 366.19 236.687 364.813C233.874 363.437 231.618 361.254 229.919 358.266C228.249 355.277 227.414 351.381 227.414 346.576C227.414 343.061 227.81 339.735 228.601 336.601C229.421 333.466 230.593 330.595 232.116 327.987C233.64 325.38 235.485 323.139 237.653 321.264C239.851 319.359 242.326 317.895 245.08 316.869C247.834 315.844 250.822 315.331 254.045 315.331C257.15 315.331 259.978 315.624 262.526 316.21C265.104 316.796 267.653 317.675 270.173 318.847L264.768 331.459C263.273 330.785 261.647 330.185 259.89 329.657C258.161 329.101 256.491 328.822 254.88 328.822C253.122 328.822 251.584 329.379 250.266 330.492C248.977 331.576 247.907 332.982 247.058 334.711C246.208 336.439 245.563 338.271 245.124 340.204C244.714 342.108 244.509 343.866 244.509 345.478C244.509 347.411 244.729 348.949 245.168 350.092C245.607 351.205 246.237 352.011 247.058 352.509C247.878 352.978 248.859 353.212 250.002 353.212C252.111 353.212 254.147 352.875 256.11 352.201C258.103 351.527 260.212 350.604 262.438 349.433V362.924C260.095 364.184 257.634 365.165 255.056 365.868C252.478 366.542 249.445 366.879 245.959 366.879ZM270.085 366L280.588 316.21H294.167L293.376 324.516H293.728C295.104 322.172 296.511 320.341 297.946 319.022C299.382 317.675 300.964 316.723 302.692 316.166C304.45 315.609 306.442 315.331 308.669 315.331C309.313 315.331 309.987 315.375 310.69 315.463C311.423 315.521 311.921 315.595 312.185 315.683L308.493 332.514C307.849 332.25 307.058 332.03 306.12 331.854C305.183 331.649 304.172 331.547 303.088 331.547C301.77 331.547 300.524 331.767 299.353 332.206C298.21 332.616 297.155 333.305 296.188 334.271C295.251 335.209 294.401 336.498 293.64 338.139C292.907 339.75 292.277 341.742 291.75 344.115L287.092 366H270.085ZM331.828 366.879C327.639 366.879 324.079 366.088 321.149 364.506C318.22 362.924 315.979 360.668 314.426 357.738C312.902 354.779 312.141 351.264 312.141 347.191C312.141 343.119 312.712 339.179 313.854 335.37C315.026 331.562 316.784 328.148 319.128 325.131C321.501 322.113 324.475 319.726 328.049 317.968C331.623 316.21 335.827 315.331 340.661 315.331C346.257 315.331 350.637 316.591 353.801 319.11C356.994 321.63 358.591 324.984 358.591 329.174C358.591 331.928 358.063 334.433 357.009 336.688C355.954 338.915 354.328 340.834 352.131 342.445C349.963 344.057 347.194 345.302 343.825 346.181C340.456 347.03 336.457 347.455 331.828 347.455H329.235C329.235 347.572 329.235 347.689 329.235 347.807C329.235 347.895 329.235 348.012 329.235 348.158C329.235 350.385 329.836 352.025 331.037 353.08C332.238 354.135 334.04 354.662 336.442 354.662C338.962 354.662 341.35 354.281 343.605 353.52C345.861 352.758 348.278 351.703 350.856 350.355V362.396C348.19 363.744 345.437 364.828 342.595 365.648C339.753 366.469 336.164 366.879 331.828 366.879ZM330.949 336.82H332.224C334.772 336.82 336.794 336.483 338.288 335.81C339.782 335.136 340.852 334.286 341.496 333.261C342.141 332.235 342.463 331.21 342.463 330.185C342.463 329.247 342.17 328.456 341.584 327.812C340.998 327.167 340.061 326.845 338.771 326.845C337.453 326.845 336.237 327.357 335.124 328.383C334.011 329.408 333.088 330.697 332.355 332.25C331.623 333.773 331.154 335.297 330.949 336.82ZM378.41 366.879C375.861 366.879 373.503 366.278 371.335 365.077C369.196 363.876 367.482 361.898 366.193 359.145C364.904 356.361 364.26 352.611 364.26 347.895C364.26 345.463 364.538 342.797 365.095 339.896C365.681 336.996 366.545 334.11 367.688 331.239C368.859 328.339 370.324 325.688 372.082 323.285C373.84 320.883 375.905 318.964 378.278 317.528C380.681 316.063 383.391 315.331 386.408 315.331C388.312 315.331 389.968 315.624 391.374 316.21C392.81 316.796 394.055 317.616 395.109 318.671C396.193 319.696 397.131 320.927 397.922 322.362H398.273L400.603 316.21H414.226L403.679 366H390.1L390.539 360.595H390.188C389.309 361.825 388.327 362.909 387.243 363.847C386.159 364.784 384.899 365.517 383.464 366.044C382.058 366.601 380.373 366.879 378.41 366.879ZM385.397 353.212C386.687 353.212 387.873 352.626 388.957 351.454C390.041 350.253 390.964 348.715 391.726 346.84C392.517 344.965 393.088 342.958 393.439 340.819C393.615 339.911 393.747 339.003 393.835 338.095C393.923 337.157 393.967 336.234 393.967 335.326C393.967 333.422 393.659 331.898 393.044 330.756C392.458 329.584 391.564 328.998 390.363 328.998C389.426 328.998 388.518 329.35 387.639 330.053C386.789 330.727 385.998 331.664 385.266 332.865C384.533 334.037 383.889 335.399 383.332 336.952C382.805 338.476 382.38 340.087 382.058 341.786C381.765 343.485 381.618 345.199 381.618 346.928C381.618 348.949 381.926 350.502 382.541 351.586C383.186 352.67 384.138 353.212 385.397 353.212ZM432.243 366.879C428.933 366.879 425.974 366.645 423.366 366.176C420.788 365.707 418.532 365.019 416.599 364.11V350.443C419.294 351.908 421.799 352.934 424.113 353.52C426.428 354.105 428.771 354.398 431.145 354.398C431.848 354.398 432.668 354.34 433.605 354.223C434.543 354.076 435.363 353.783 436.066 353.344C436.77 352.904 437.121 352.23 437.121 351.322C437.121 350.648 436.96 350.048 436.638 349.521C436.345 348.964 435.715 348.349 434.748 347.675C433.781 346.972 432.287 346.063 430.266 344.95C428.215 343.808 426.53 342.562 425.212 341.215C423.894 339.867 422.912 338.373 422.268 336.732C421.652 335.062 421.345 333.173 421.345 331.063C421.345 327.929 422.077 325.189 423.542 322.846C425.007 320.473 427.248 318.627 430.266 317.309C433.312 315.99 437.15 315.331 441.779 315.331C445.031 315.331 448.02 315.727 450.744 316.518C453.469 317.279 456.091 318.437 458.61 319.989L453.293 331.063C451.652 329.979 449.777 329.027 447.668 328.207C445.588 327.357 443.684 326.933 441.955 326.933C440.93 326.933 440.109 327.182 439.494 327.68C438.908 328.178 438.615 328.925 438.615 329.921C438.615 330.478 438.806 330.99 439.187 331.459C439.597 331.928 440.241 332.411 441.12 332.909C441.999 333.378 443.127 333.964 444.504 334.667C446.76 335.78 448.605 337.04 450.041 338.446C451.506 339.853 452.59 341.405 453.293 343.104C454.025 344.804 454.392 346.679 454.392 348.729C454.392 352.831 453.483 356.229 451.667 358.925C449.851 361.591 447.287 363.583 443.977 364.901C440.666 366.22 436.755 366.879 432.243 366.879ZM483.791 366.879C479.602 366.879 476.042 366.088 473.112 364.506C470.183 362.924 467.941 360.668 466.389 357.738C464.865 354.779 464.104 351.264 464.104 347.191C464.104 343.119 464.675 339.179 465.817 335.37C466.989 331.562 468.747 328.148 471.091 325.131C473.464 322.113 476.438 319.726 480.012 317.968C483.586 316.21 487.79 315.331 492.624 315.331C498.22 315.331 502.6 316.591 505.764 319.11C508.957 321.63 510.554 324.984 510.554 329.174C510.554 331.928 510.026 334.433 508.972 336.688C507.917 338.915 506.291 340.834 504.094 342.445C501.926 344.057 499.157 345.302 495.788 346.181C492.419 347.03 488.42 347.455 483.791 347.455H481.198C481.198 347.572 481.198 347.689 481.198 347.807C481.198 347.895 481.198 348.012 481.198 348.158C481.198 350.385 481.799 352.025 483 353.08C484.201 354.135 486.003 354.662 488.405 354.662C490.925 354.662 493.312 354.281 495.568 353.52C497.824 352.758 500.241 351.703 502.819 350.355V362.396C500.153 363.744 497.399 364.828 494.558 365.648C491.716 366.469 488.127 366.879 483.791 366.879ZM482.912 336.82H484.187C486.735 336.82 488.757 336.483 490.251 335.81C491.745 335.136 492.814 334.286 493.459 333.261C494.104 332.235 494.426 331.21 494.426 330.185C494.426 329.247 494.133 328.456 493.547 327.812C492.961 327.167 492.023 326.845 490.734 326.845C489.416 326.845 488.2 327.357 487.087 328.383C485.974 329.408 485.051 330.697 484.318 332.25C483.586 333.773 483.117 335.297 482.912 336.82Z" fill="#FFFCF9"/>
</svg>
