<svg width="652" height="506" viewBox="0 0 652 506" fill="none" xmlns="http://www.w3.org/2000/svg">
<path d="M129.172 218L135.148 189.811H80.4629L85.543 164.311L161.445 72.3711H197.305L178.777 160.426H193.619L187.543 189.811H172.602L166.725 218H129.172ZM120.406 160.426H141.225L146.105 141.102C146.77 138.777 147.5 136.154 148.297 133.232C149.094 130.311 149.857 127.621 150.588 125.164C151.318 122.641 151.816 120.947 152.082 120.084H151.186C149.99 122.342 148.297 125.197 146.105 128.65C143.98 132.037 141.889 134.893 139.83 137.217L120.406 160.426ZM217.127 220.49C211.947 220.49 207.764 219.262 204.576 216.805C201.389 214.348 199.795 210.529 199.795 205.35C199.795 197.248 202.219 191.371 207.066 187.719C211.914 184 217.592 182.141 224.1 182.141C229.412 182.141 233.729 183.402 237.049 185.926C240.369 188.383 242.029 192.268 242.029 197.58C242.029 206.346 239.771 212.355 235.256 215.609C230.74 218.863 224.697 220.49 217.127 220.49ZM293.926 219.992C289.742 219.992 285.924 219.693 282.471 219.096C279.084 218.564 275.896 217.867 272.908 217.004V185.727C276.229 187.055 279.482 188.051 282.67 188.715C285.857 189.379 289.344 189.611 293.129 189.412C299.438 189.08 304.982 188.15 309.764 186.623C314.611 185.029 318.795 182.738 322.314 179.75C325.834 176.762 328.756 173.043 331.08 168.594C333.404 164.078 335.23 158.799 336.559 152.756H335.762C334.035 155.611 331.877 158.367 329.287 161.023C326.764 163.68 323.609 165.871 319.824 167.598C316.039 169.258 311.357 170.088 305.779 170.088C299.006 170.088 293.162 168.428 288.248 165.107C283.4 161.721 279.682 157.006 277.092 150.963C274.502 144.92 273.207 137.814 273.207 129.646C273.207 123.338 273.904 117.262 275.299 111.418C276.693 105.574 278.785 100.162 281.574 95.1816C284.43 90.2012 288.049 85.8516 292.432 82.1328C296.814 78.4141 301.961 75.5254 307.871 73.4668C313.848 71.3418 320.654 70.2793 328.291 70.2793C339.381 70.2793 348.379 72.5371 355.285 77.0527C362.258 81.5684 367.371 87.8105 370.625 95.7793C373.945 103.748 375.605 112.879 375.605 123.172C375.605 130.145 375.074 137.184 374.012 144.289C373.016 151.395 371.389 158.334 369.131 165.107C366.939 171.814 364.051 178.189 360.465 184.232C356.945 190.275 352.662 195.688 347.615 200.469C344.428 203.457 340.941 206.18 337.156 208.637C333.371 211.027 329.254 213.086 324.805 214.812C320.355 216.473 315.574 217.734 310.461 218.598C305.348 219.527 299.836 219.992 293.926 219.992ZM321.518 139.508C323.576 139.508 325.469 138.977 327.195 137.914C328.988 136.852 330.582 135.391 331.977 133.531C333.371 131.605 334.5 129.447 335.363 127.057C335.961 125.33 336.459 123.504 336.857 121.578C337.256 119.586 337.455 117.527 337.455 115.402C337.455 112.68 337.057 110.223 336.26 108.031C335.529 105.84 334.434 104.113 332.973 102.852C331.512 101.523 329.719 100.859 327.594 100.859C325.402 100.859 323.377 101.523 321.518 102.852C319.658 104.113 318.031 105.873 316.637 108.131C315.309 110.389 314.246 112.979 313.449 115.9C312.719 118.822 312.354 121.91 312.354 125.164C312.354 129.945 313.117 133.531 314.645 135.922C316.172 138.312 318.463 139.508 321.518 139.508ZM409.871 218L518.346 72.3711H547.133L439.455 218H409.871ZM424.314 161.721C413.889 161.721 405.92 158.832 400.408 153.055C394.896 147.277 392.141 138.744 392.141 127.455C392.141 122.674 392.605 117.66 393.535 112.414C394.531 107.168 396.092 102.055 398.217 97.0742C400.342 92.0273 403.098 87.5117 406.484 83.5273C409.938 79.4766 414.088 76.2559 418.936 73.8652C423.783 71.4746 429.461 70.2793 435.969 70.2793C446.594 70.2793 454.529 73.2676 459.775 79.2441C465.088 85.2207 467.744 93.6543 467.744 104.545C467.744 109.26 467.279 114.24 466.35 119.486C465.486 124.732 464.025 129.846 461.967 134.826C459.975 139.807 457.285 144.322 453.898 148.373C450.578 152.424 446.461 155.678 441.547 158.135C436.699 160.525 430.955 161.721 424.314 161.721ZM426.207 137.615C427.801 137.615 429.262 136.852 430.59 135.324C431.984 133.797 433.213 131.771 434.275 129.248C435.404 126.658 436.334 123.836 437.064 120.781C437.861 117.66 438.459 114.539 438.857 111.418C439.256 108.297 439.455 105.408 439.455 102.752C439.455 99.8965 439.057 97.8047 438.26 96.4766C437.463 95.082 436.102 94.3848 434.176 94.3848C432.715 94.3848 431.32 95.1152 429.992 96.5762C428.664 98.0371 427.436 99.9961 426.307 102.453C425.178 104.91 424.215 107.666 423.418 110.721C422.621 113.775 421.99 116.896 421.525 120.084C421.061 123.271 420.828 126.326 420.828 129.248C420.828 131.971 421.26 134.062 422.123 135.523C422.986 136.918 424.348 137.615 426.207 137.615ZM522.23 219.992C511.805 219.992 503.836 217.137 498.324 211.426C492.812 205.648 490.057 197.082 490.057 185.727C490.057 180.945 490.521 175.932 491.451 170.686C492.447 165.439 494.008 160.326 496.133 155.346C498.258 150.365 501.014 145.883 504.4 141.898C507.854 137.848 512.004 134.627 516.852 132.236C521.699 129.846 527.377 128.65 533.885 128.65C544.51 128.65 552.479 131.639 557.791 137.615C563.104 143.592 565.76 152.025 565.76 162.916C565.76 167.631 565.295 172.611 564.365 177.857C563.502 183.037 562.041 188.15 559.982 193.197C557.99 198.178 555.301 202.693 551.914 206.744C548.594 210.729 544.477 213.949 539.562 216.406C534.648 218.797 528.871 219.992 522.23 219.992ZM524.123 195.986C525.717 195.986 527.178 195.223 528.506 193.695C529.9 192.168 531.129 190.143 532.191 187.619C533.32 185.029 534.25 182.207 534.98 179.152C535.777 176.031 536.375 172.91 536.773 169.789C537.172 166.668 537.371 163.779 537.371 161.123C537.371 158.201 536.973 156.076 536.176 154.748C535.379 153.42 534.018 152.756 532.092 152.756C530.631 152.756 529.236 153.486 527.908 154.947C526.58 156.408 525.352 158.367 524.223 160.824C523.094 163.281 522.131 166.037 521.334 169.092C520.537 172.146 519.906 175.268 519.441 178.455C518.977 181.643 518.744 184.697 518.744 187.619C518.744 190.342 519.176 192.434 520.039 193.895C520.902 195.289 522.264 195.986 524.123 195.986Z" fill="#FFFCF9"/>
<path d="M139.479 366L149.982 316.21H167.077L156.486 366H139.479ZM160.441 311.464C158.039 311.464 156.032 311.01 154.421 310.102C152.839 309.164 152.048 307.553 152.048 305.268C152.048 303.275 152.443 301.605 153.234 300.258C154.025 298.881 155.153 297.841 156.618 297.138C158.112 296.435 159.899 296.083 161.979 296.083C164.235 296.083 166.184 296.552 167.824 297.489C169.494 298.397 170.329 299.994 170.329 302.279C170.329 305.033 169.523 307.26 167.912 308.959C166.301 310.629 163.811 311.464 160.441 311.464ZM168.747 366L179.25 316.21H192.829L192.302 323.153H192.653C193.737 321.278 194.938 319.77 196.257 318.627C197.575 317.484 199.055 316.649 200.695 316.122C202.365 315.595 204.255 315.331 206.364 315.331C209.47 315.331 211.975 315.976 213.879 317.265C215.812 318.554 217.233 320.268 218.142 322.406C219.05 324.545 219.504 326.903 219.504 329.481C219.504 331.122 219.401 332.821 219.196 334.579C218.991 336.308 218.728 337.963 218.405 339.545L212.824 366H195.817L201.486 338.842C201.662 338.08 201.838 337.113 202.014 335.941C202.189 334.74 202.277 333.627 202.277 332.602C202.277 331.342 201.955 330.404 201.311 329.789C200.666 329.145 199.89 328.822 198.981 328.822C197.868 328.822 196.799 329.291 195.773 330.229C194.777 331.137 193.854 332.543 193.005 334.447C192.185 336.322 191.467 338.739 190.852 341.698L185.754 366H168.747ZM245.959 366.879C242.59 366.879 239.499 366.19 236.687 364.813C233.874 363.437 231.618 361.254 229.919 358.266C228.249 355.277 227.414 351.381 227.414 346.576C227.414 343.061 227.81 339.735 228.601 336.601C229.421 333.466 230.593 330.595 232.116 327.987C233.64 325.38 235.485 323.139 237.653 321.264C239.851 319.359 242.326 317.895 245.08 316.869C247.834 315.844 250.822 315.331 254.045 315.331C257.15 315.331 259.978 315.624 262.526 316.21C265.104 316.796 267.653 317.675 270.173 318.847L264.768 331.459C263.273 330.785 261.647 330.185 259.89 329.657C258.161 329.101 256.491 328.822 254.88 328.822C253.122 328.822 251.584 329.379 250.266 330.492C248.977 331.576 247.907 332.982 247.058 334.711C246.208 336.439 245.563 338.271 245.124 340.204C244.714 342.108 244.509 343.866 244.509 345.478C244.509 347.411 244.729 348.949 245.168 350.092C245.607 351.205 246.237 352.011 247.058 352.509C247.878 352.978 248.859 353.212 250.002 353.212C252.111 353.212 254.147 352.875 256.11 352.201C258.103 351.527 260.212 350.604 262.438 349.433V362.924C260.095 364.184 257.634 365.165 255.056 365.868C252.478 366.542 249.445 366.879 245.959 366.879ZM270.085 366L280.588 316.21H294.167L293.376 324.516H293.728C295.104 322.172 296.511 320.341 297.946 319.022C299.382 317.675 300.964 316.723 302.692 316.166C304.45 315.609 306.442 315.331 308.669 315.331C309.313 315.331 309.987 315.375 310.69 315.463C311.423 315.521 311.921 315.595 312.185 315.683L308.493 332.514C307.849 332.25 307.058 332.03 306.12 331.854C305.183 331.649 304.172 331.547 303.088 331.547C301.77 331.547 300.524 331.767 299.353 332.206C298.21 332.616 297.155 333.305 296.188 334.271C295.251 335.209 294.401 336.498 293.64 338.139C292.907 339.75 292.277 341.742 291.75 344.115L287.092 366H270.085ZM331.828 366.879C327.639 366.879 324.079 366.088 321.149 364.506C318.22 362.924 315.979 360.668 314.426 357.738C312.902 354.779 312.141 351.264 312.141 347.191C312.141 343.119 312.712 339.179 313.854 335.37C315.026 331.562 316.784 328.148 319.128 325.131C321.501 322.113 324.475 319.726 328.049 317.968C331.623 316.21 335.827 315.331 340.661 315.331C346.257 315.331 350.637 316.591 353.801 319.11C356.994 321.63 358.591 324.984 358.591 329.174C358.591 331.928 358.063 334.433 357.009 336.688C355.954 338.915 354.328 340.834 352.131 342.445C349.963 344.057 347.194 345.302 343.825 346.181C340.456 347.03 336.457 347.455 331.828 347.455H329.235C329.235 347.572 329.235 347.689 329.235 347.807C329.235 347.895 329.235 348.012 329.235 348.158C329.235 350.385 329.836 352.025 331.037 353.08C332.238 354.135 334.04 354.662 336.442 354.662C338.962 354.662 341.35 354.281 343.605 353.52C345.861 352.758 348.278 351.703 350.856 350.355V362.396C348.19 363.744 345.437 364.828 342.595 365.648C339.753 366.469 336.164 366.879 331.828 366.879ZM330.949 336.82H332.224C334.772 336.82 336.794 336.483 338.288 335.81C339.782 335.136 340.852 334.286 341.496 333.261C342.141 332.235 342.463 331.21 342.463 330.185C342.463 329.247 342.17 328.456 341.584 327.812C340.998 327.167 340.061 326.845 338.771 326.845C337.453 326.845 336.237 327.357 335.124 328.383C334.011 329.408 333.088 330.697 332.355 332.25C331.623 333.773 331.154 335.297 330.949 336.82ZM378.41 366.879C375.861 366.879 373.503 366.278 371.335 365.077C369.196 363.876 367.482 361.898 366.193 359.145C364.904 356.361 364.26 352.611 364.26 347.895C364.26 345.463 364.538 342.797 365.095 339.896C365.681 336.996 366.545 334.11 367.688 331.239C368.859 328.339 370.324 325.688 372.082 323.285C373.84 320.883 375.905 318.964 378.278 317.528C380.681 316.063 383.391 315.331 386.408 315.331C388.312 315.331 389.968 315.624 391.374 316.21C392.81 316.796 394.055 317.616 395.109 318.671C396.193 319.696 397.131 320.927 397.922 322.362H398.273L400.603 316.21H414.226L403.679 366H390.1L390.539 360.595H390.188C389.309 361.825 388.327 362.909 387.243 363.847C386.159 364.784 384.899 365.517 383.464 366.044C382.058 366.601 380.373 366.879 378.41 366.879ZM385.397 353.212C386.687 353.212 387.873 352.626 388.957 351.454C390.041 350.253 390.964 348.715 391.726 346.84C392.517 344.965 393.088 342.958 393.439 340.819C393.615 339.911 393.747 339.003 393.835 338.095C393.923 337.157 393.967 336.234 393.967 335.326C393.967 333.422 393.659 331.898 393.044 330.756C392.458 329.584 391.564 328.998 390.363 328.998C389.426 328.998 388.518 329.35 387.639 330.053C386.789 330.727 385.998 331.664 385.266 332.865C384.533 334.037 383.889 335.399 383.332 336.952C382.805 338.476 382.38 340.087 382.058 341.786C381.765 343.485 381.618 345.199 381.618 346.928C381.618 348.949 381.926 350.502 382.541 351.586C383.186 352.67 384.138 353.212 385.397 353.212ZM432.243 366.879C428.933 366.879 425.974 366.645 423.366 366.176C420.788 365.707 418.532 365.019 416.599 364.11V350.443C419.294 351.908 421.799 352.934 424.113 353.52C426.428 354.105 428.771 354.398 431.145 354.398C431.848 354.398 432.668 354.34 433.605 354.223C434.543 354.076 435.363 353.783 436.066 353.344C436.77 352.904 437.121 352.23 437.121 351.322C437.121 350.648 436.96 350.048 436.638 349.521C436.345 348.964 435.715 348.349 434.748 347.675C433.781 346.972 432.287 346.063 430.266 344.95C428.215 343.808 426.53 342.562 425.212 341.215C423.894 339.867 422.912 338.373 422.268 336.732C421.652 335.062 421.345 333.173 421.345 331.063C421.345 327.929 422.077 325.189 423.542 322.846C425.007 320.473 427.248 318.627 430.266 317.309C433.312 315.99 437.15 315.331 441.779 315.331C445.031 315.331 448.02 315.727 450.744 316.518C453.469 317.279 456.091 318.437 458.61 319.989L453.293 331.063C451.652 329.979 449.777 329.027 447.668 328.207C445.588 327.357 443.684 326.933 441.955 326.933C440.93 326.933 440.109 327.182 439.494 327.68C438.908 328.178 438.615 328.925 438.615 329.921C438.615 330.478 438.806 330.99 439.187 331.459C439.597 331.928 440.241 332.411 441.12 332.909C441.999 333.378 443.127 333.964 444.504 334.667C446.76 335.78 448.605 337.04 450.041 338.446C451.506 339.853 452.59 341.405 453.293 343.104C454.025 344.804 454.392 346.679 454.392 348.729C454.392 352.831 453.483 356.229 451.667 358.925C449.851 361.591 447.287 363.583 443.977 364.901C440.666 366.22 436.755 366.879 432.243 366.879ZM483.791 366.879C479.602 366.879 476.042 366.088 473.112 364.506C470.183 362.924 467.941 360.668 466.389 357.738C464.865 354.779 464.104 351.264 464.104 347.191C464.104 343.119 464.675 339.179 465.817 335.37C466.989 331.562 468.747 328.148 471.091 325.131C473.464 322.113 476.438 319.726 480.012 317.968C483.586 316.21 487.79 315.331 492.624 315.331C498.22 315.331 502.6 316.591 505.764 319.11C508.957 321.63 510.554 324.984 510.554 329.174C510.554 331.928 510.026 334.433 508.972 336.688C507.917 338.915 506.291 340.834 504.094 342.445C501.926 344.057 499.157 345.302 495.788 346.181C492.419 347.03 488.42 347.455 483.791 347.455H481.198C481.198 347.572 481.198 347.689 481.198 347.807C481.198 347.895 481.198 348.012 481.198 348.158C481.198 350.385 481.799 352.025 483 353.08C484.201 354.135 486.003 354.662 488.405 354.662C490.925 354.662 493.312 354.281 495.568 353.52C497.824 352.758 500.241 351.703 502.819 350.355V362.396C500.153 363.744 497.399 364.828 494.558 365.648C491.716 366.469 488.127 366.879 483.791 366.879ZM482.912 336.82H484.187C486.735 336.82 488.757 336.483 490.251 335.81C491.745 335.136 492.814 334.286 493.459 333.261C494.104 332.235 494.426 331.21 494.426 330.185C494.426 329.247 494.133 328.456 493.547 327.812C492.961 327.167 492.023 326.845 490.734 326.845C489.416 326.845 488.2 327.357 487.087 328.383C485.974 329.408 485.051 330.697 484.318 332.25C483.586 333.773 483.117 335.297 482.912 336.82Z" fill="#FFFCF9"/>
</svg>
