<svg width="652" height="506" viewBox="0 0 652 506" fill="none" xmlns="http://www.w3.org/2000/svg">
<path d="M62.0352 219.992C54.7969 219.992 47.6914 219.328 40.7188 218C33.7461 216.605 28.0684 214.646 23.6855 212.123V179.053C29.5957 182.639 35.7051 185.195 42.0137 186.723C48.3887 188.25 54.7969 189.014 61.2383 189.014C65.1562 189.014 68.7754 188.682 72.0957 188.018C75.4824 187.354 78.4043 186.324 80.8613 184.93C83.3184 183.535 85.2109 181.709 86.5391 179.451C87.9336 177.127 88.6309 174.338 88.6309 171.084C88.6309 168.229 87.9336 165.838 86.5391 163.912C85.1445 161.92 82.4551 160.426 78.4707 159.43C74.4863 158.367 68.6094 157.836 60.8398 157.836H52.4727L57.752 128.85H65.5215C70.3027 128.85 74.5859 128.484 78.3711 127.754C82.1562 126.957 85.4102 125.828 88.1328 124.367C90.8555 122.84 92.9141 121.014 94.3086 118.889C95.7695 116.764 96.5 114.307 96.5 111.518C96.5 109.193 95.5039 106.936 93.5117 104.744C91.5859 102.486 88.0996 101.357 83.0527 101.357C78.6035 101.357 74.1543 102.121 69.7051 103.648C65.2559 105.176 60.7402 107.201 56.1582 109.725L40.4199 85.0215C47.5254 80.5059 54.8301 76.9199 62.334 74.2637C69.8379 71.6074 79.2012 70.2793 90.4238 70.2793C99.123 70.2793 106.76 71.6738 113.334 74.4629C119.975 77.1855 125.154 81.1035 128.873 86.2168C132.592 91.3301 134.451 97.5059 134.451 104.744C134.451 111.85 132.99 117.959 130.068 123.072C127.146 128.119 123.129 132.203 118.016 135.324C112.902 138.445 107.025 140.703 100.385 142.098V142.895C109.416 144.621 116.223 148.439 120.805 154.35C125.453 160.26 127.777 167.199 127.777 175.168C127.777 183.07 126.051 189.844 122.598 195.488C119.145 201.133 114.363 205.781 108.254 209.434C102.211 213.02 95.2383 215.676 87.3359 217.402C79.4336 219.129 71 219.992 62.0352 219.992ZM178.977 218L196.309 138.412C196.84 135.889 197.504 133.1 198.301 130.045C199.164 126.924 200.094 123.869 201.09 120.881C202.086 117.826 203.016 115.17 203.879 112.912C201.953 114.639 199.695 116.531 197.105 118.59C194.582 120.582 192.49 122.109 190.83 123.172L170.609 135.623L155.568 110.521L217.326 72.3711H248.305L217.725 218H178.977ZM276.295 220.49C271.115 220.49 266.932 219.262 263.744 216.805C260.557 214.348 258.963 210.529 258.963 205.35C258.963 197.248 261.387 191.371 266.234 187.719C271.082 184 276.76 182.141 283.268 182.141C288.58 182.141 292.896 183.402 296.217 185.926C299.537 188.383 301.197 192.268 301.197 197.58C301.197 206.346 298.939 212.355 294.424 215.609C289.908 218.863 283.865 220.49 276.295 220.49ZM375.008 219.992C364.383 219.992 355.451 218.398 348.213 215.211C341.041 211.957 335.596 207.641 331.877 202.262C328.225 196.883 326.398 190.906 326.398 184.332C326.398 177.559 327.66 171.516 330.184 166.203C332.707 160.891 336.426 156.275 341.34 152.357C346.32 148.439 352.363 145.219 359.469 142.695C356.746 140.504 354.189 138.047 351.799 135.324C349.475 132.535 347.582 129.248 346.121 125.463C344.66 121.678 343.93 117.162 343.93 111.916C343.93 104.412 345.789 97.5059 349.508 91.1973C353.293 84.8223 358.871 79.709 366.242 75.8574C373.613 72.0059 382.777 70.0801 393.734 70.0801C403.031 70.0801 410.867 71.541 417.242 74.4629C423.617 77.3848 428.465 81.3691 431.785 86.416C435.105 91.3965 436.766 97.041 436.766 103.35C436.766 108.529 435.703 113.543 433.578 118.391C431.453 123.238 428.299 127.588 424.115 131.439C419.998 135.225 414.918 138.113 408.875 140.105C412.926 143.227 416.346 146.613 419.135 150.266C421.924 153.852 424.016 157.77 425.41 162.02C426.871 166.27 427.602 170.984 427.602 176.164C427.602 185.328 425.477 193.197 421.227 199.771C416.977 206.279 410.934 211.293 403.098 214.812C395.262 218.266 385.898 219.992 375.008 219.992ZM376.004 191.902C378.859 191.902 381.449 191.305 383.773 190.109C386.098 188.914 387.957 187.188 389.352 184.93C390.746 182.672 391.443 179.949 391.443 176.762C391.443 174.105 390.945 171.615 389.949 169.291C389.02 166.967 387.691 164.809 385.965 162.816C384.238 160.824 382.146 159.031 379.689 157.438C376.502 159.098 373.613 161.057 371.023 163.314C368.5 165.506 366.475 167.963 364.947 170.686C363.486 173.408 362.756 176.396 362.756 179.65C362.756 183.701 364.15 186.756 366.939 188.814C369.729 190.873 372.75 191.902 376.004 191.902ZM388.654 125.363C391.51 124.234 393.867 122.74 395.727 120.881C397.586 118.955 398.98 116.863 399.91 114.605C400.84 112.348 401.305 110.156 401.305 108.031C401.305 104.777 400.342 102.354 398.416 100.76C396.557 99.0996 394.398 98.2695 391.941 98.2695C389.816 98.2695 387.857 98.8672 386.064 100.062C384.271 101.258 382.811 102.885 381.682 104.943C380.619 107.002 380.088 109.326 380.088 111.916C380.088 114.572 380.885 117.195 382.479 119.785C384.072 122.309 386.131 124.168 388.654 125.363ZM469.039 218L577.514 72.3711H606.301L498.623 218H469.039ZM483.482 161.721C473.057 161.721 465.088 158.832 459.576 153.055C454.064 147.277 451.309 138.744 451.309 127.455C451.309 122.674 451.773 117.66 452.703 112.414C453.699 107.168 455.26 102.055 457.385 97.0742C459.51 92.0273 462.266 87.5117 465.652 83.5273C469.105 79.4766 473.256 76.2559 478.104 73.8652C482.951 71.4746 488.629 70.2793 495.137 70.2793C505.762 70.2793 513.697 73.2676 518.943 79.2441C524.256 85.2207 526.912 93.6543 526.912 104.545C526.912 109.26 526.447 114.24 525.518 119.486C524.654 124.732 523.193 129.846 521.135 134.826C519.143 139.807 516.453 144.322 513.066 148.373C509.746 152.424 505.629 155.678 500.715 158.135C495.867 160.525 490.123 161.721 483.482 161.721ZM485.375 137.615C486.969 137.615 488.43 136.852 489.758 135.324C491.152 133.797 492.381 131.771 493.443 129.248C494.572 126.658 495.502 123.836 496.232 120.781C497.029 117.66 497.627 114.539 498.025 111.418C498.424 108.297 498.623 105.408 498.623 102.752C498.623 99.8965 498.225 97.8047 497.428 96.4766C496.631 95.082 495.27 94.3848 493.344 94.3848C491.883 94.3848 490.488 95.1152 489.16 96.5762C487.832 98.0371 486.604 99.9961 485.475 102.453C484.346 104.91 483.383 107.666 482.586 110.721C481.789 113.775 481.158 116.896 480.693 120.084C480.229 123.271 479.996 126.326 479.996 129.248C479.996 131.971 480.428 134.062 481.291 135.523C482.154 136.918 483.516 137.615 485.375 137.615ZM581.398 219.992C570.973 219.992 563.004 217.137 557.492 211.426C551.98 205.648 549.225 197.082 549.225 185.727C549.225 180.945 549.689 175.932 550.619 170.686C551.615 165.439 553.176 160.326 555.301 155.346C557.426 150.365 560.182 145.883 563.568 141.898C567.021 137.848 571.172 134.627 576.02 132.236C580.867 129.846 586.545 128.65 593.053 128.65C603.678 128.65 611.646 131.639 616.959 137.615C622.271 143.592 624.928 152.025 624.928 162.916C624.928 167.631 624.463 172.611 623.533 177.857C622.67 183.037 621.209 188.15 619.15 193.197C617.158 198.178 614.469 202.693 611.082 206.744C607.762 210.729 603.645 213.949 598.73 216.406C593.816 218.797 588.039 219.992 581.398 219.992ZM583.291 195.986C584.885 195.986 586.346 195.223 587.674 193.695C589.068 192.168 590.297 190.143 591.359 187.619C592.488 185.029 593.418 182.207 594.148 179.152C594.945 176.031 595.543 172.91 595.941 169.789C596.34 166.668 596.539 163.779 596.539 161.123C596.539 158.201 596.141 156.076 595.344 154.748C594.547 153.42 593.186 152.756 591.26 152.756C589.799 152.756 588.404 153.486 587.076 154.947C585.748 156.408 584.52 158.367 583.391 160.824C582.262 163.281 581.299 166.037 580.502 169.092C579.705 172.146 579.074 175.268 578.609 178.455C578.145 181.643 577.912 184.697 577.912 187.619C577.912 190.342 578.344 192.434 579.207 193.895C580.07 195.289 581.432 195.986 583.291 195.986Z" fill="#FFFCF9"/>
<path d="M139.479 366L149.982 316.21H167.077L156.486 366H139.479ZM160.441 311.464C158.039 311.464 156.032 311.01 154.421 310.102C152.839 309.164 152.048 307.553 152.048 305.268C152.048 303.275 152.443 301.605 153.234 300.258C154.025 298.881 155.153 297.841 156.618 297.138C158.112 296.435 159.899 296.083 161.979 296.083C164.235 296.083 166.184 296.552 167.824 297.489C169.494 298.397 170.329 299.994 170.329 302.279C170.329 305.033 169.523 307.26 167.912 308.959C166.301 310.629 163.811 311.464 160.441 311.464ZM168.747 366L179.25 316.21H192.829L192.302 323.153H192.653C193.737 321.278 194.938 319.77 196.257 318.627C197.575 317.484 199.055 316.649 200.695 316.122C202.365 315.595 204.255 315.331 206.364 315.331C209.47 315.331 211.975 315.976 213.879 317.265C215.812 318.554 217.233 320.268 218.142 322.406C219.05 324.545 219.504 326.903 219.504 329.481C219.504 331.122 219.401 332.821 219.196 334.579C218.991 336.308 218.728 337.963 218.405 339.545L212.824 366H195.817L201.486 338.842C201.662 338.08 201.838 337.113 202.014 335.941C202.189 334.74 202.277 333.627 202.277 332.602C202.277 331.342 201.955 330.404 201.311 329.789C200.666 329.145 199.89 328.822 198.981 328.822C197.868 328.822 196.799 329.291 195.773 330.229C194.777 331.137 193.854 332.543 193.005 334.447C192.185 336.322 191.467 338.739 190.852 341.698L185.754 366H168.747ZM245.959 366.879C242.59 366.879 239.499 366.19 236.687 364.813C233.874 363.437 231.618 361.254 229.919 358.266C228.249 355.277 227.414 351.381 227.414 346.576C227.414 343.061 227.81 339.735 228.601 336.601C229.421 333.466 230.593 330.595 232.116 327.987C233.64 325.38 235.485 323.139 237.653 321.264C239.851 319.359 242.326 317.895 245.08 316.869C247.834 315.844 250.822 315.331 254.045 315.331C257.15 315.331 259.978 315.624 262.526 316.21C265.104 316.796 267.653 317.675 270.173 318.847L264.768 331.459C263.273 330.785 261.647 330.185 259.89 329.657C258.161 329.101 256.491 328.822 254.88 328.822C253.122 328.822 251.584 329.379 250.266 330.492C248.977 331.576 247.907 332.982 247.058 334.711C246.208 336.439 245.563 338.271 245.124 340.204C244.714 342.108 244.509 343.866 244.509 345.478C244.509 347.411 244.729 348.949 245.168 350.092C245.607 351.205 246.237 352.011 247.058 352.509C247.878 352.978 248.859 353.212 250.002 353.212C252.111 353.212 254.147 352.875 256.11 352.201C258.103 351.527 260.212 350.604 262.438 349.433V362.924C260.095 364.184 257.634 365.165 255.056 365.868C252.478 366.542 249.445 366.879 245.959 366.879ZM270.085 366L280.588 316.21H294.167L293.376 324.516H293.728C295.104 322.172 296.511 320.341 297.946 319.022C299.382 317.675 300.964 316.723 302.692 316.166C304.45 315.609 306.442 315.331 308.669 315.331C309.313 315.331 309.987 315.375 310.69 315.463C311.423 315.521 311.921 315.595 312.185 315.683L308.493 332.514C307.849 332.25 307.058 332.03 306.12 331.854C305.183 331.649 304.172 331.547 303.088 331.547C301.77 331.547 300.524 331.767 299.353 332.206C298.21 332.616 297.155 333.305 296.188 334.271C295.251 335.209 294.401 336.498 293.64 338.139C292.907 339.75 292.277 341.742 291.75 344.115L287.092 366H270.085ZM331.828 366.879C327.639 366.879 324.079 366.088 321.149 364.506C318.22 362.924 315.979 360.668 314.426 357.738C312.902 354.779 312.141 351.264 312.141 347.191C312.141 343.119 312.712 339.179 313.854 335.37C315.026 331.562 316.784 328.148 319.128 325.131C321.501 322.113 324.475 319.726 328.049 317.968C331.623 316.21 335.827 315.331 340.661 315.331C346.257 315.331 350.637 316.591 353.801 319.11C356.994 321.63 358.591 324.984 358.591 329.174C358.591 331.928 358.063 334.433 357.009 336.688C355.954 338.915 354.328 340.834 352.131 342.445C349.963 344.057 347.194 345.302 343.825 346.181C340.456 347.03 336.457 347.455 331.828 347.455H329.235C329.235 347.572 329.235 347.689 329.235 347.807C329.235 347.895 329.235 348.012 329.235 348.158C329.235 350.385 329.836 352.025 331.037 353.08C332.238 354.135 334.04 354.662 336.442 354.662C338.962 354.662 341.35 354.281 343.605 353.52C345.861 352.758 348.278 351.703 350.856 350.355V362.396C348.19 363.744 345.437 364.828 342.595 365.648C339.753 366.469 336.164 366.879 331.828 366.879ZM330.949 336.82H332.224C334.772 336.82 336.794 336.483 338.288 335.81C339.782 335.136 340.852 334.286 341.496 333.261C342.141 332.235 342.463 331.21 342.463 330.185C342.463 329.247 342.17 328.456 341.584 327.812C340.998 327.167 340.061 326.845 338.771 326.845C337.453 326.845 336.237 327.357 335.124 328.383C334.011 329.408 333.088 330.697 332.355 332.25C331.623 333.773 331.154 335.297 330.949 336.82ZM378.41 366.879C375.861 366.879 373.503 366.278 371.335 365.077C369.196 363.876 367.482 361.898 366.193 359.145C364.904 356.361 364.26 352.611 364.26 347.895C364.26 345.463 364.538 342.797 365.095 339.896C365.681 336.996 366.545 334.11 367.688 331.239C368.859 328.339 370.324 325.688 372.082 323.285C373.84 320.883 375.905 318.964 378.278 317.528C380.681 316.063 383.391 315.331 386.408 315.331C388.312 315.331 389.968 315.624 391.374 316.21C392.81 316.796 394.055 317.616 395.109 318.671C396.193 319.696 397.131 320.927 397.922 322.362H398.273L400.603 316.21H414.226L403.679 366H390.1L390.539 360.595H390.188C389.309 361.825 388.327 362.909 387.243 363.847C386.159 364.784 384.899 365.517 383.464 366.044C382.058 366.601 380.373 366.879 378.41 366.879ZM385.397 353.212C386.687 353.212 387.873 352.626 388.957 351.454C390.041 350.253 390.964 348.715 391.726 346.84C392.517 344.965 393.088 342.958 393.439 340.819C393.615 339.911 393.747 339.003 393.835 338.095C393.923 337.157 393.967 336.234 393.967 335.326C393.967 333.422 393.659 331.898 393.044 330.756C392.458 329.584 391.564 328.998 390.363 328.998C389.426 328.998 388.518 329.35 387.639 330.053C386.789 330.727 385.998 331.664 385.266 332.865C384.533 334.037 383.889 335.399 383.332 336.952C382.805 338.476 382.38 340.087 382.058 341.786C381.765 343.485 381.618 345.199 381.618 346.928C381.618 348.949 381.926 350.502 382.541 351.586C383.186 352.67 384.138 353.212 385.397 353.212ZM432.243 366.879C428.933 366.879 425.974 366.645 423.366 366.176C420.788 365.707 418.532 365.019 416.599 364.11V350.443C419.294 351.908 421.799 352.934 424.113 353.52C426.428 354.105 428.771 354.398 431.145 354.398C431.848 354.398 432.668 354.34 433.605 354.223C434.543 354.076 435.363 353.783 436.066 353.344C436.77 352.904 437.121 352.23 437.121 351.322C437.121 350.648 436.96 350.048 436.638 349.521C436.345 348.964 435.715 348.349 434.748 347.675C433.781 346.972 432.287 346.063 430.266 344.95C428.215 343.808 426.53 342.562 425.212 341.215C423.894 339.867 422.912 338.373 422.268 336.732C421.652 335.062 421.345 333.173 421.345 331.063C421.345 327.929 422.077 325.189 423.542 322.846C425.007 320.473 427.248 318.627 430.266 317.309C433.312 315.99 437.15 315.331 441.779 315.331C445.031 315.331 448.02 315.727 450.744 316.518C453.469 317.279 456.091 318.437 458.61 319.989L453.293 331.063C451.652 329.979 449.777 329.027 447.668 328.207C445.588 327.357 443.684 326.933 441.955 326.933C440.93 326.933 440.109 327.182 439.494 327.68C438.908 328.178 438.615 328.925 438.615 329.921C438.615 330.478 438.806 330.99 439.187 331.459C439.597 331.928 440.241 332.411 441.12 332.909C441.999 333.378 443.127 333.964 444.504 334.667C446.76 335.78 448.605 337.04 450.041 338.446C451.506 339.853 452.59 341.405 453.293 343.104C454.025 344.804 454.392 346.679 454.392 348.729C454.392 352.831 453.483 356.229 451.667 358.925C449.851 361.591 447.287 363.583 443.977 364.901C440.666 366.22 436.755 366.879 432.243 366.879ZM483.791 366.879C479.602 366.879 476.042 366.088 473.112 364.506C470.183 362.924 467.941 360.668 466.389 357.738C464.865 354.779 464.104 351.264 464.104 347.191C464.104 343.119 464.675 339.179 465.817 335.37C466.989 331.562 468.747 328.148 471.091 325.131C473.464 322.113 476.438 319.726 480.012 317.968C483.586 316.21 487.79 315.331 492.624 315.331C498.22 315.331 502.6 316.591 505.764 319.11C508.957 321.63 510.554 324.984 510.554 329.174C510.554 331.928 510.026 334.433 508.972 336.688C507.917 338.915 506.291 340.834 504.094 342.445C501.926 344.057 499.157 345.302 495.788 346.181C492.419 347.03 488.42 347.455 483.791 347.455H481.198C481.198 347.572 481.198 347.689 481.198 347.807C481.198 347.895 481.198 348.012 481.198 348.158C481.198 350.385 481.799 352.025 483 353.08C484.201 354.135 486.003 354.662 488.405 354.662C490.925 354.662 493.312 354.281 495.568 353.52C497.824 352.758 500.241 351.703 502.819 350.355V362.396C500.153 363.744 497.399 364.828 494.558 365.648C491.716 366.469 488.127 366.879 483.791 366.879ZM482.912 336.82H484.187C486.735 336.82 488.757 336.483 490.251 335.81C491.745 335.136 492.814 334.286 493.459 333.261C494.104 332.235 494.426 331.21 494.426 330.185C494.426 329.247 494.133 328.456 493.547 327.812C492.961 327.167 492.023 326.845 490.734 326.845C489.416 326.845 488.2 327.357 487.087 328.383C485.974 329.408 485.051 330.697 484.318 332.25C483.586 333.773 483.117 335.297 482.912 336.82Z" fill="#FFFCF9"/>
</svg>
