<svg width="652" height="506" viewBox="0 0 652 506" fill="none" xmlns="http://www.w3.org/2000/svg">
<path d="M107.059 218L112.338 192.5L160.449 149.07C165.297 144.754 169.314 140.803 172.502 137.217C175.689 133.564 178.213 130.277 180.072 127.355C181.932 124.434 183.227 121.811 183.957 119.486C184.754 117.096 185.152 114.971 185.152 113.111C185.152 109.857 184.289 107.434 182.562 105.84C180.836 104.18 178.645 103.35 175.988 103.35C173.133 103.35 170.211 103.914 167.223 105.043C164.234 106.105 161.146 107.732 157.959 109.924C154.838 112.115 151.518 114.805 147.998 117.992L129.471 92.293C136.576 85.5859 144.578 80.2402 153.477 76.2559C162.375 72.2715 172.336 70.2793 183.359 70.2793C191.395 70.2793 198.434 71.7734 204.477 74.7617C210.586 77.6836 215.334 81.9004 218.721 87.4121C222.174 92.8574 223.9 99.3984 223.9 107.035C223.9 113.344 222.771 119.453 220.514 125.363C218.256 131.207 214.338 137.449 208.76 144.09C203.248 150.664 195.512 158.234 185.551 166.801L165.131 184.332V185.527H213.939L207.166 218H107.059ZM279.781 219.992C266.434 219.992 256.008 215.975 248.504 207.939C241.066 199.904 237.348 187.818 237.348 171.682C237.348 163.447 237.912 155.246 239.041 147.078C240.17 138.844 241.896 130.941 244.221 123.371C246.545 115.801 249.5 108.795 253.086 102.354C256.672 95.9121 260.922 90.2676 265.836 85.4199C270.75 80.5723 276.361 76.8203 282.67 74.1641C289.045 71.4414 296.117 70.0801 303.887 70.0801C311.656 70.0801 318.23 71.5078 323.609 74.3633C329.055 77.1523 333.438 80.9375 336.758 85.7188C340.078 90.5 342.502 95.8789 344.029 101.855C345.557 107.766 346.32 113.842 346.32 120.084C346.32 128.85 345.723 137.416 344.527 145.783C343.332 154.084 341.506 161.953 339.049 169.391C336.592 176.828 333.537 183.635 329.885 189.811C326.232 195.986 321.916 201.332 316.936 205.848C312.021 210.363 306.477 213.85 300.301 216.307C294.125 218.764 287.285 219.992 279.781 219.992ZM283.666 188.615C285.99 188.615 288.182 187.586 290.24 185.527C292.299 183.402 294.191 180.547 295.918 176.961C297.711 173.309 299.305 169.158 300.699 164.51C302.16 159.861 303.389 154.947 304.385 149.768C305.447 144.588 306.244 139.408 306.775 134.229C307.307 128.982 307.572 124.002 307.572 119.287C307.572 113.643 306.941 109.293 305.68 106.238C304.418 103.117 302.326 101.557 299.404 101.557C297.412 101.557 295.453 102.619 293.527 104.744C291.602 106.869 289.775 109.758 288.049 113.41C286.322 117.062 284.729 121.279 283.268 126.061C281.807 130.775 280.545 135.789 279.482 141.102C278.486 146.348 277.689 151.66 277.092 157.039C276.494 162.418 276.195 167.564 276.195 172.479C276.195 177.99 276.693 182.074 277.689 184.73C278.752 187.32 280.744 188.615 283.666 188.615ZM378.594 218L487.068 72.3711H515.855L408.178 218H378.594ZM393.037 161.721C382.611 161.721 374.643 158.832 369.131 153.055C363.619 147.277 360.863 138.744 360.863 127.455C360.863 122.674 361.328 117.66 362.258 112.414C363.254 107.168 364.814 102.055 366.939 97.0742C369.064 92.0273 371.82 87.5117 375.207 83.5273C378.66 79.4766 382.811 76.2559 387.658 73.8652C392.506 71.4746 398.184 70.2793 404.691 70.2793C415.316 70.2793 423.252 73.2676 428.498 79.2441C433.811 85.2207 436.467 93.6543 436.467 104.545C436.467 109.26 436.002 114.24 435.072 119.486C434.209 124.732 432.748 129.846 430.689 134.826C428.697 139.807 426.008 144.322 422.621 148.373C419.301 152.424 415.184 155.678 410.27 158.135C405.422 160.525 399.678 161.721 393.037 161.721ZM394.93 137.615C396.523 137.615 397.984 136.852 399.312 135.324C400.707 133.797 401.936 131.771 402.998 129.248C404.127 126.658 405.057 123.836 405.787 120.781C406.584 117.66 407.182 114.539 407.58 111.418C407.979 108.297 408.178 105.408 408.178 102.752C408.178 99.8965 407.779 97.8047 406.982 96.4766C406.186 95.082 404.824 94.3848 402.898 94.3848C401.438 94.3848 400.043 95.1152 398.715 96.5762C397.387 98.0371 396.158 99.9961 395.029 102.453C393.9 104.91 392.938 107.666 392.141 110.721C391.344 113.775 390.713 116.896 390.248 120.084C389.783 123.271 389.551 126.326 389.551 129.248C389.551 131.971 389.982 134.062 390.846 135.523C391.709 136.918 393.07 137.615 394.93 137.615ZM490.953 219.992C480.527 219.992 472.559 217.137 467.047 211.426C461.535 205.648 458.779 197.082 458.779 185.727C458.779 180.945 459.244 175.932 460.174 170.686C461.17 165.439 462.73 160.326 464.855 155.346C466.98 150.365 469.736 145.883 473.123 141.898C476.576 137.848 480.727 134.627 485.574 132.236C490.422 129.846 496.1 128.65 502.607 128.65C513.232 128.65 521.201 131.639 526.514 137.615C531.826 143.592 534.482 152.025 534.482 162.916C534.482 167.631 534.018 172.611 533.088 177.857C532.225 183.037 530.764 188.15 528.705 193.197C526.713 198.178 524.023 202.693 520.637 206.744C517.316 210.729 513.199 213.949 508.285 216.406C503.371 218.797 497.594 219.992 490.953 219.992ZM492.846 195.986C494.439 195.986 495.9 195.223 497.229 193.695C498.623 192.168 499.852 190.143 500.914 187.619C502.043 185.029 502.973 182.207 503.703 179.152C504.5 176.031 505.098 172.91 505.496 169.789C505.895 166.668 506.094 163.779 506.094 161.123C506.094 158.201 505.695 156.076 504.898 154.748C504.102 153.42 502.74 152.756 500.814 152.756C499.354 152.756 497.959 153.486 496.631 154.947C495.303 156.408 494.074 158.367 492.945 160.824C491.816 163.281 490.854 166.037 490.057 169.092C489.26 172.146 488.629 175.268 488.164 178.455C487.699 181.643 487.467 184.697 487.467 187.619C487.467 190.342 487.898 192.434 488.762 193.895C489.625 195.289 490.986 195.986 492.846 195.986Z" fill="#FFFCF9"/>
<path d="M139.479 366L149.982 316.21H167.077L156.486 366H139.479ZM160.441 311.464C158.039 311.464 156.032 311.01 154.421 310.102C152.839 309.164 152.048 307.553 152.048 305.268C152.048 303.275 152.443 301.605 153.234 300.258C154.025 298.881 155.153 297.841 156.618 297.138C158.112 296.435 159.899 296.083 161.979 296.083C164.235 296.083 166.184 296.552 167.824 297.489C169.494 298.397 170.329 299.994 170.329 302.279C170.329 305.033 169.523 307.26 167.912 308.959C166.301 310.629 163.811 311.464 160.441 311.464ZM168.747 366L179.25 316.21H192.829L192.302 323.153H192.653C193.737 321.278 194.938 319.77 196.257 318.627C197.575 317.484 199.055 316.649 200.695 316.122C202.365 315.595 204.255 315.331 206.364 315.331C209.47 315.331 211.975 315.976 213.879 317.265C215.812 318.554 217.233 320.268 218.142 322.406C219.05 324.545 219.504 326.903 219.504 329.481C219.504 331.122 219.401 332.821 219.196 334.579C218.991 336.308 218.728 337.963 218.405 339.545L212.824 366H195.817L201.486 338.842C201.662 338.08 201.838 337.113 202.014 335.941C202.189 334.74 202.277 333.627 202.277 332.602C202.277 331.342 201.955 330.404 201.311 329.789C200.666 329.145 199.89 328.822 198.981 328.822C197.868 328.822 196.799 329.291 195.773 330.229C194.777 331.137 193.854 332.543 193.005 334.447C192.185 336.322 191.467 338.739 190.852 341.698L185.754 366H168.747ZM245.959 366.879C242.59 366.879 239.499 366.19 236.687 364.813C233.874 363.437 231.618 361.254 229.919 358.266C228.249 355.277 227.414 351.381 227.414 346.576C227.414 343.061 227.81 339.735 228.601 336.601C229.421 333.466 230.593 330.595 232.116 327.987C233.64 325.38 235.485 323.139 237.653 321.264C239.851 319.359 242.326 317.895 245.08 316.869C247.834 315.844 250.822 315.331 254.045 315.331C257.15 315.331 259.978 315.624 262.526 316.21C265.104 316.796 267.653 317.675 270.173 318.847L264.768 331.459C263.273 330.785 261.647 330.185 259.89 329.657C258.161 329.101 256.491 328.822 254.88 328.822C253.122 328.822 251.584 329.379 250.266 330.492C248.977 331.576 247.907 332.982 247.058 334.711C246.208 336.439 245.563 338.271 245.124 340.204C244.714 342.108 244.509 343.866 244.509 345.478C244.509 347.411 244.729 348.949 245.168 350.092C245.607 351.205 246.237 352.011 247.058 352.509C247.878 352.978 248.859 353.212 250.002 353.212C252.111 353.212 254.147 352.875 256.11 352.201C258.103 351.527 260.212 350.604 262.438 349.433V362.924C260.095 364.184 257.634 365.165 255.056 365.868C252.478 366.542 249.445 366.879 245.959 366.879ZM270.085 366L280.588 316.21H294.167L293.376 324.516H293.728C295.104 322.172 296.511 320.341 297.946 319.022C299.382 317.675 300.964 316.723 302.692 316.166C304.45 315.609 306.442 315.331 308.669 315.331C309.313 315.331 309.987 315.375 310.69 315.463C311.423 315.521 311.921 315.595 312.185 315.683L308.493 332.514C307.849 332.25 307.058 332.03 306.12 331.854C305.183 331.649 304.172 331.547 303.088 331.547C301.77 331.547 300.524 331.767 299.353 332.206C298.21 332.616 297.155 333.305 296.188 334.271C295.251 335.209 294.401 336.498 293.64 338.139C292.907 339.75 292.277 341.742 291.75 344.115L287.092 366H270.085ZM331.828 366.879C327.639 366.879 324.079 366.088 321.149 364.506C318.22 362.924 315.979 360.668 314.426 357.738C312.902 354.779 312.141 351.264 312.141 347.191C312.141 343.119 312.712 339.179 313.854 335.37C315.026 331.562 316.784 328.148 319.128 325.131C321.501 322.113 324.475 319.726 328.049 317.968C331.623 316.21 335.827 315.331 340.661 315.331C346.257 315.331 350.637 316.591 353.801 319.11C356.994 321.63 358.591 324.984 358.591 329.174C358.591 331.928 358.063 334.433 357.009 336.688C355.954 338.915 354.328 340.834 352.131 342.445C349.963 344.057 347.194 345.302 343.825 346.181C340.456 347.03 336.457 347.455 331.828 347.455H329.235C329.235 347.572 329.235 347.689 329.235 347.807C329.235 347.895 329.235 348.012 329.235 348.158C329.235 350.385 329.836 352.025 331.037 353.08C332.238 354.135 334.04 354.662 336.442 354.662C338.962 354.662 341.35 354.281 343.605 353.52C345.861 352.758 348.278 351.703 350.856 350.355V362.396C348.19 363.744 345.437 364.828 342.595 365.648C339.753 366.469 336.164 366.879 331.828 366.879ZM330.949 336.82H332.224C334.772 336.82 336.794 336.483 338.288 335.81C339.782 335.136 340.852 334.286 341.496 333.261C342.141 332.235 342.463 331.21 342.463 330.185C342.463 329.247 342.17 328.456 341.584 327.812C340.998 327.167 340.061 326.845 338.771 326.845C337.453 326.845 336.237 327.357 335.124 328.383C334.011 329.408 333.088 330.697 332.355 332.25C331.623 333.773 331.154 335.297 330.949 336.82ZM378.41 366.879C375.861 366.879 373.503 366.278 371.335 365.077C369.196 363.876 367.482 361.898 366.193 359.145C364.904 356.361 364.26 352.611 364.26 347.895C364.26 345.463 364.538 342.797 365.095 339.896C365.681 336.996 366.545 334.11 367.688 331.239C368.859 328.339 370.324 325.688 372.082 323.285C373.84 320.883 375.905 318.964 378.278 317.528C380.681 316.063 383.391 315.331 386.408 315.331C388.312 315.331 389.968 315.624 391.374 316.21C392.81 316.796 394.055 317.616 395.109 318.671C396.193 319.696 397.131 320.927 397.922 322.362H398.273L400.603 316.21H414.226L403.679 366H390.1L390.539 360.595H390.188C389.309 361.825 388.327 362.909 387.243 363.847C386.159 364.784 384.899 365.517 383.464 366.044C382.058 366.601 380.373 366.879 378.41 366.879ZM385.397 353.212C386.687 353.212 387.873 352.626 388.957 351.454C390.041 350.253 390.964 348.715 391.726 346.84C392.517 344.965 393.088 342.958 393.439 340.819C393.615 339.911 393.747 339.003 393.835 338.095C393.923 337.157 393.967 336.234 393.967 335.326C393.967 333.422 393.659 331.898 393.044 330.756C392.458 329.584 391.564 328.998 390.363 328.998C389.426 328.998 388.518 329.35 387.639 330.053C386.789 330.727 385.998 331.664 385.266 332.865C384.533 334.037 383.889 335.399 383.332 336.952C382.805 338.476 382.38 340.087 382.058 341.786C381.765 343.485 381.618 345.199 381.618 346.928C381.618 348.949 381.926 350.502 382.541 351.586C383.186 352.67 384.138 353.212 385.397 353.212ZM432.243 366.879C428.933 366.879 425.974 366.645 423.366 366.176C420.788 365.707 418.532 365.019 416.599 364.11V350.443C419.294 351.908 421.799 352.934 424.113 353.52C426.428 354.105 428.771 354.398 431.145 354.398C431.848 354.398 432.668 354.34 433.605 354.223C434.543 354.076 435.363 353.783 436.066 353.344C436.77 352.904 437.121 352.23 437.121 351.322C437.121 350.648 436.96 350.048 436.638 349.521C436.345 348.964 435.715 348.349 434.748 347.675C433.781 346.972 432.287 346.063 430.266 344.95C428.215 343.808 426.53 342.562 425.212 341.215C423.894 339.867 422.912 338.373 422.268 336.732C421.652 335.062 421.345 333.173 421.345 331.063C421.345 327.929 422.077 325.189 423.542 322.846C425.007 320.473 427.248 318.627 430.266 317.309C433.312 315.99 437.15 315.331 441.779 315.331C445.031 315.331 448.02 315.727 450.744 316.518C453.469 317.279 456.091 318.437 458.61 319.989L453.293 331.063C451.652 329.979 449.777 329.027 447.668 328.207C445.588 327.357 443.684 326.933 441.955 326.933C440.93 326.933 440.109 327.182 439.494 327.68C438.908 328.178 438.615 328.925 438.615 329.921C438.615 330.478 438.806 330.99 439.187 331.459C439.597 331.928 440.241 332.411 441.12 332.909C441.999 333.378 443.127 333.964 444.504 334.667C446.76 335.78 448.605 337.04 450.041 338.446C451.506 339.853 452.59 341.405 453.293 343.104C454.025 344.804 454.392 346.679 454.392 348.729C454.392 352.831 453.483 356.229 451.667 358.925C449.851 361.591 447.287 363.583 443.977 364.901C440.666 366.22 436.755 366.879 432.243 366.879ZM483.791 366.879C479.602 366.879 476.042 366.088 473.112 364.506C470.183 362.924 467.941 360.668 466.389 357.738C464.865 354.779 464.104 351.264 464.104 347.191C464.104 343.119 464.675 339.179 465.817 335.37C466.989 331.562 468.747 328.148 471.091 325.131C473.464 322.113 476.438 319.726 480.012 317.968C483.586 316.21 487.79 315.331 492.624 315.331C498.22 315.331 502.6 316.591 505.764 319.11C508.957 321.63 510.554 324.984 510.554 329.174C510.554 331.928 510.026 334.433 508.972 336.688C507.917 338.915 506.291 340.834 504.094 342.445C501.926 344.057 499.157 345.302 495.788 346.181C492.419 347.03 488.42 347.455 483.791 347.455H481.198C481.198 347.572 481.198 347.689 481.198 347.807C481.198 347.895 481.198 348.012 481.198 348.158C481.198 350.385 481.799 352.025 483 353.08C484.201 354.135 486.003 354.662 488.405 354.662C490.925 354.662 493.312 354.281 495.568 353.52C497.824 352.758 500.241 351.703 502.819 350.355V362.396C500.153 363.744 497.399 364.828 494.558 365.648C491.716 366.469 488.127 366.879 483.791 366.879ZM482.912 336.82H484.187C486.735 336.82 488.757 336.483 490.251 335.81C491.745 335.136 492.814 334.286 493.459 333.261C494.104 332.235 494.426 331.21 494.426 330.185C494.426 329.247 494.133 328.456 493.547 327.812C492.961 327.167 492.023 326.845 490.734 326.845C489.416 326.845 488.2 327.357 487.087 328.383C485.974 329.408 485.051 330.697 484.318 332.25C483.586 333.773 483.117 335.297 482.912 336.82Z" fill="#FFFCF9"/>
</svg>
