<svg width="539" height="463" viewBox="0 0 539 463" fill="none" xmlns="http://www.w3.org/2000/svg">
<path d="M50.5586 218L55.8379 192.5L103.949 149.07C108.797 144.754 112.814 140.803 116.002 137.217C119.189 133.564 121.713 130.277 123.572 127.355C125.432 124.434 126.727 121.811 127.457 119.486C128.254 117.096 128.652 114.971 128.652 113.111C128.652 109.857 127.789 107.434 126.062 105.84C124.336 104.18 122.145 103.35 119.488 103.35C116.633 103.35 113.711 103.914 110.723 105.043C107.734 106.105 104.646 107.732 101.459 109.924C98.3379 112.115 95.0176 114.805 91.498 117.992L72.9707 92.293C80.0762 85.5859 88.0781 80.2402 96.9766 76.2559C105.875 72.2715 115.836 70.2793 126.859 70.2793C134.895 70.2793 141.934 71.7734 147.977 74.7617C154.086 77.6836 158.834 81.9004 162.221 87.4121C165.674 92.8574 167.4 99.3984 167.4 107.035C167.4 113.344 166.271 119.453 164.014 125.363C161.756 131.207 157.838 137.449 152.26 144.09C146.748 150.664 139.012 158.234 129.051 166.801L108.631 184.332V185.527H157.439L150.666 218H50.5586ZM223.281 219.992C209.934 219.992 199.508 215.975 192.004 207.939C184.566 199.904 180.848 187.818 180.848 171.682C180.848 163.447 181.412 155.246 182.541 147.078C183.67 138.844 185.396 130.941 187.721 123.371C190.045 115.801 193 108.795 196.586 102.354C200.172 95.9121 204.422 90.2676 209.336 85.4199C214.25 80.5723 219.861 76.8203 226.17 74.1641C232.545 71.4414 239.617 70.0801 247.387 70.0801C255.156 70.0801 261.73 71.5078 267.109 74.3633C272.555 77.1523 276.938 80.9375 280.258 85.7188C283.578 90.5 286.002 95.8789 287.529 101.855C289.057 107.766 289.82 113.842 289.82 120.084C289.82 128.85 289.223 137.416 288.027 145.783C286.832 154.084 285.006 161.953 282.549 169.391C280.092 176.828 277.037 183.635 273.385 189.811C269.732 195.986 265.416 201.332 260.436 205.848C255.521 210.363 249.977 213.85 243.801 216.307C237.625 218.764 230.785 219.992 223.281 219.992ZM227.166 188.615C229.49 188.615 231.682 187.586 233.74 185.527C235.799 183.402 237.691 180.547 239.418 176.961C241.211 173.309 242.805 169.158 244.199 164.51C245.66 159.861 246.889 154.947 247.885 149.768C248.947 144.588 249.744 139.408 250.275 134.229C250.807 128.982 251.072 124.002 251.072 119.287C251.072 113.643 250.441 109.293 249.18 106.238C247.918 103.117 245.826 101.557 242.904 101.557C240.912 101.557 238.953 102.619 237.027 104.744C235.102 106.869 233.275 109.758 231.549 113.41C229.822 117.062 228.229 121.279 226.768 126.061C225.307 130.775 224.045 135.789 222.982 141.102C221.986 146.348 221.189 151.66 220.592 157.039C219.994 162.418 219.695 167.564 219.695 172.479C219.695 177.99 220.193 182.074 221.189 184.73C222.252 187.32 224.244 188.615 227.166 188.615ZM322.094 218L430.568 72.3711H459.355L351.678 218H322.094ZM336.537 161.721C326.111 161.721 318.143 158.832 312.631 153.055C307.119 147.277 304.363 138.744 304.363 127.455C304.363 122.674 304.828 117.66 305.758 112.414C306.754 107.168 308.314 102.055 310.439 97.0742C312.564 92.0273 315.32 87.5117 318.707 83.5273C322.16 79.4766 326.311 76.2559 331.158 73.8652C336.006 71.4746 341.684 70.2793 348.191 70.2793C358.816 70.2793 366.752 73.2676 371.998 79.2441C377.311 85.2207 379.967 93.6543 379.967 104.545C379.967 109.26 379.502 114.24 378.572 119.486C377.709 124.732 376.248 129.846 374.189 134.826C372.197 139.807 369.508 144.322 366.121 148.373C362.801 152.424 358.684 155.678 353.77 158.135C348.922 160.525 343.178 161.721 336.537 161.721ZM338.43 137.615C340.023 137.615 341.484 136.852 342.812 135.324C344.207 133.797 345.436 131.771 346.498 129.248C347.627 126.658 348.557 123.836 349.287 120.781C350.084 117.66 350.682 114.539 351.08 111.418C351.479 108.297 351.678 105.408 351.678 102.752C351.678 99.8965 351.279 97.8047 350.482 96.4766C349.686 95.082 348.324 94.3848 346.398 94.3848C344.938 94.3848 343.543 95.1152 342.215 96.5762C340.887 98.0371 339.658 99.9961 338.529 102.453C337.4 104.91 336.438 107.666 335.641 110.721C334.844 113.775 334.213 116.896 333.748 120.084C333.283 123.271 333.051 126.326 333.051 129.248C333.051 131.971 333.482 134.062 334.346 135.523C335.209 136.918 336.57 137.615 338.43 137.615ZM434.453 219.992C424.027 219.992 416.059 217.137 410.547 211.426C405.035 205.648 402.279 197.082 402.279 185.727C402.279 180.945 402.744 175.932 403.674 170.686C404.67 165.439 406.23 160.326 408.355 155.346C410.48 150.365 413.236 145.883 416.623 141.898C420.076 137.848 424.227 134.627 429.074 132.236C433.922 129.846 439.6 128.65 446.107 128.65C456.732 128.65 464.701 131.639 470.014 137.615C475.326 143.592 477.982 152.025 477.982 162.916C477.982 167.631 477.518 172.611 476.588 177.857C475.725 183.037 474.264 188.15 472.205 193.197C470.213 198.178 467.523 202.693 464.137 206.744C460.816 210.729 456.699 213.949 451.785 216.406C446.871 218.797 441.094 219.992 434.453 219.992ZM436.346 195.986C437.939 195.986 439.4 195.223 440.729 193.695C442.123 192.168 443.352 190.143 444.414 187.619C445.543 185.029 446.473 182.207 447.203 179.152C448 176.031 448.598 172.91 448.996 169.789C449.395 166.668 449.594 163.779 449.594 161.123C449.594 158.201 449.195 156.076 448.398 154.748C447.602 153.42 446.24 152.756 444.314 152.756C442.854 152.756 441.459 153.486 440.131 154.947C438.803 156.408 437.574 158.367 436.445 160.824C435.316 163.281 434.354 166.037 433.557 169.092C432.76 172.146 432.129 175.268 431.664 178.455C431.199 181.643 430.967 184.697 430.967 187.619C430.967 190.342 431.398 192.434 432.262 193.895C433.125 195.289 434.486 195.986 436.346 195.986Z" fill="#FFFCF9"/>
<path d="M83.4795 323L93.9824 273.21H111.077L100.486 323H83.4795ZM104.441 268.464C102.039 268.464 100.032 268.01 98.4209 267.102C96.8389 266.164 96.0479 264.553 96.0479 262.268C96.0479 260.275 96.4434 258.605 97.2344 257.258C98.0254 255.881 99.1533 254.841 100.618 254.138C102.112 253.435 103.899 253.083 105.979 253.083C108.235 253.083 110.184 253.552 111.824 254.489C113.494 255.397 114.329 256.994 114.329 259.279C114.329 262.033 113.523 264.26 111.912 265.959C110.301 267.629 107.811 268.464 104.441 268.464ZM112.747 323L123.25 273.21H136.829L136.302 280.153H136.653C137.737 278.278 138.938 276.77 140.257 275.627C141.575 274.484 143.055 273.649 144.695 273.122C146.365 272.595 148.255 272.331 150.364 272.331C153.47 272.331 155.975 272.976 157.879 274.265C159.812 275.554 161.233 277.268 162.142 279.406C163.05 281.545 163.504 283.903 163.504 286.481C163.504 288.122 163.401 289.821 163.196 291.579C162.991 293.308 162.728 294.963 162.405 296.545L156.824 323H139.817L145.486 295.842C145.662 295.08 145.838 294.113 146.014 292.941C146.189 291.74 146.277 290.627 146.277 289.602C146.277 288.342 145.955 287.404 145.311 286.789C144.666 286.145 143.89 285.822 142.981 285.822C141.868 285.822 140.799 286.291 139.773 287.229C138.777 288.137 137.854 289.543 137.005 291.447C136.185 293.322 135.467 295.739 134.852 298.698L129.754 323H112.747ZM189.959 323.879C186.59 323.879 183.499 323.19 180.687 321.813C177.874 320.437 175.618 318.254 173.919 315.266C172.249 312.277 171.414 308.381 171.414 303.576C171.414 300.061 171.81 296.735 172.601 293.601C173.421 290.466 174.593 287.595 176.116 284.987C177.64 282.38 179.485 280.139 181.653 278.264C183.851 276.359 186.326 274.895 189.08 273.869C191.834 272.844 194.822 272.331 198.045 272.331C201.15 272.331 203.978 272.624 206.526 273.21C209.104 273.796 211.653 274.675 214.173 275.847L208.768 288.459C207.273 287.785 205.647 287.185 203.89 286.657C202.161 286.101 200.491 285.822 198.88 285.822C197.122 285.822 195.584 286.379 194.266 287.492C192.977 288.576 191.907 289.982 191.058 291.711C190.208 293.439 189.563 295.271 189.124 297.204C188.714 299.108 188.509 300.866 188.509 302.478C188.509 304.411 188.729 305.949 189.168 307.092C189.607 308.205 190.237 309.011 191.058 309.509C191.878 309.978 192.859 310.212 194.002 310.212C196.111 310.212 198.147 309.875 200.11 309.201C202.103 308.527 204.212 307.604 206.438 306.433V319.924C204.095 321.184 201.634 322.165 199.056 322.868C196.478 323.542 193.445 323.879 189.959 323.879ZM214.085 323L224.588 273.21H238.167L237.376 281.516H237.728C239.104 279.172 240.511 277.341 241.946 276.022C243.382 274.675 244.964 273.723 246.692 273.166C248.45 272.609 250.442 272.331 252.669 272.331C253.313 272.331 253.987 272.375 254.69 272.463C255.423 272.521 255.921 272.595 256.185 272.683L252.493 289.514C251.849 289.25 251.058 289.03 250.12 288.854C249.183 288.649 248.172 288.547 247.088 288.547C245.77 288.547 244.524 288.767 243.353 289.206C242.21 289.616 241.155 290.305 240.188 291.271C239.251 292.209 238.401 293.498 237.64 295.139C236.907 296.75 236.277 298.742 235.75 301.115L231.092 323H214.085ZM275.828 323.879C271.639 323.879 268.079 323.088 265.149 321.506C262.22 319.924 259.979 317.668 258.426 314.738C256.902 311.779 256.141 308.264 256.141 304.191C256.141 300.119 256.712 296.179 257.854 292.37C259.026 288.562 260.784 285.148 263.128 282.131C265.501 279.113 268.475 276.726 272.049 274.968C275.623 273.21 279.827 272.331 284.661 272.331C290.257 272.331 294.637 273.591 297.801 276.11C300.994 278.63 302.591 281.984 302.591 286.174C302.591 288.928 302.063 291.433 301.009 293.688C299.954 295.915 298.328 297.834 296.131 299.445C293.963 301.057 291.194 302.302 287.825 303.181C284.456 304.03 280.457 304.455 275.828 304.455H273.235C273.235 304.572 273.235 304.689 273.235 304.807C273.235 304.895 273.235 305.012 273.235 305.158C273.235 307.385 273.836 309.025 275.037 310.08C276.238 311.135 278.04 311.662 280.442 311.662C282.962 311.662 285.35 311.281 287.605 310.52C289.861 309.758 292.278 308.703 294.856 307.355V319.396C292.19 320.744 289.437 321.828 286.595 322.648C283.753 323.469 280.164 323.879 275.828 323.879ZM274.949 293.82H276.224C278.772 293.82 280.794 293.483 282.288 292.81C283.782 292.136 284.852 291.286 285.496 290.261C286.141 289.235 286.463 288.21 286.463 287.185C286.463 286.247 286.17 285.456 285.584 284.812C284.998 284.167 284.061 283.845 282.771 283.845C281.453 283.845 280.237 284.357 279.124 285.383C278.011 286.408 277.088 287.697 276.355 289.25C275.623 290.773 275.154 292.297 274.949 293.82ZM322.41 323.879C319.861 323.879 317.503 323.278 315.335 322.077C313.196 320.876 311.482 318.898 310.193 316.145C308.904 313.361 308.26 309.611 308.26 304.895C308.26 302.463 308.538 299.797 309.095 296.896C309.681 293.996 310.545 291.11 311.688 288.239C312.859 285.339 314.324 282.688 316.082 280.285C317.84 277.883 319.905 275.964 322.278 274.528C324.681 273.063 327.391 272.331 330.408 272.331C332.312 272.331 333.968 272.624 335.374 273.21C336.81 273.796 338.055 274.616 339.109 275.671C340.193 276.696 341.131 277.927 341.922 279.362H342.273L344.603 273.21H358.226L347.679 323H334.1L334.539 317.595H334.188C333.309 318.825 332.327 319.909 331.243 320.847C330.159 321.784 328.899 322.517 327.464 323.044C326.058 323.601 324.373 323.879 322.41 323.879ZM329.397 310.212C330.687 310.212 331.873 309.626 332.957 308.454C334.041 307.253 334.964 305.715 335.726 303.84C336.517 301.965 337.088 299.958 337.439 297.819C337.615 296.911 337.747 296.003 337.835 295.095C337.923 294.157 337.967 293.234 337.967 292.326C337.967 290.422 337.659 288.898 337.044 287.756C336.458 286.584 335.564 285.998 334.363 285.998C333.426 285.998 332.518 286.35 331.639 287.053C330.789 287.727 329.998 288.664 329.266 289.865C328.533 291.037 327.889 292.399 327.332 293.952C326.805 295.476 326.38 297.087 326.058 298.786C325.765 300.485 325.618 302.199 325.618 303.928C325.618 305.949 325.926 307.502 326.541 308.586C327.186 309.67 328.138 310.212 329.397 310.212ZM376.243 323.879C372.933 323.879 369.974 323.645 367.366 323.176C364.788 322.707 362.532 322.019 360.599 321.11V307.443C363.294 308.908 365.799 309.934 368.113 310.52C370.428 311.105 372.771 311.398 375.145 311.398C375.848 311.398 376.668 311.34 377.605 311.223C378.543 311.076 379.363 310.783 380.066 310.344C380.77 309.904 381.121 309.23 381.121 308.322C381.121 307.648 380.96 307.048 380.638 306.521C380.345 305.964 379.715 305.349 378.748 304.675C377.781 303.972 376.287 303.063 374.266 301.95C372.215 300.808 370.53 299.562 369.212 298.215C367.894 296.867 366.912 295.373 366.268 293.732C365.652 292.062 365.345 290.173 365.345 288.063C365.345 284.929 366.077 282.189 367.542 279.846C369.007 277.473 371.248 275.627 374.266 274.309C377.312 272.99 381.15 272.331 385.779 272.331C389.031 272.331 392.02 272.727 394.744 273.518C397.469 274.279 400.091 275.437 402.61 276.989L397.293 288.063C395.652 286.979 393.777 286.027 391.668 285.207C389.588 284.357 387.684 283.933 385.955 283.933C384.93 283.933 384.109 284.182 383.494 284.68C382.908 285.178 382.615 285.925 382.615 286.921C382.615 287.478 382.806 287.99 383.187 288.459C383.597 288.928 384.241 289.411 385.12 289.909C385.999 290.378 387.127 290.964 388.504 291.667C390.76 292.78 392.605 294.04 394.041 295.446C395.506 296.853 396.59 298.405 397.293 300.104C398.025 301.804 398.392 303.679 398.392 305.729C398.392 309.831 397.483 313.229 395.667 315.925C393.851 318.591 391.287 320.583 387.977 321.901C384.666 323.22 380.755 323.879 376.243 323.879ZM427.791 323.879C423.602 323.879 420.042 323.088 417.112 321.506C414.183 319.924 411.941 317.668 410.389 314.738C408.865 311.779 408.104 308.264 408.104 304.191C408.104 300.119 408.675 296.179 409.817 292.37C410.989 288.562 412.747 285.148 415.091 282.131C417.464 279.113 420.438 276.726 424.012 274.968C427.586 273.21 431.79 272.331 436.624 272.331C442.22 272.331 446.6 273.591 449.764 276.11C452.957 278.63 454.554 281.984 454.554 286.174C454.554 288.928 454.026 291.433 452.972 293.688C451.917 295.915 450.291 297.834 448.094 299.445C445.926 301.057 443.157 302.302 439.788 303.181C436.419 304.03 432.42 304.455 427.791 304.455H425.198C425.198 304.572 425.198 304.689 425.198 304.807C425.198 304.895 425.198 305.012 425.198 305.158C425.198 307.385 425.799 309.025 427 310.08C428.201 311.135 430.003 311.662 432.405 311.662C434.925 311.662 437.312 311.281 439.568 310.52C441.824 309.758 444.241 308.703 446.819 307.355V319.396C444.153 320.744 441.399 321.828 438.558 322.648C435.716 323.469 432.127 323.879 427.791 323.879ZM426.912 293.82H428.187C430.735 293.82 432.757 293.483 434.251 292.81C435.745 292.136 436.814 291.286 437.459 290.261C438.104 289.235 438.426 288.21 438.426 287.185C438.426 286.247 438.133 285.456 437.547 284.812C436.961 284.167 436.023 283.845 434.734 283.845C433.416 283.845 432.2 284.357 431.087 285.383C429.974 286.408 429.051 287.697 428.318 289.25C427.586 290.773 427.117 292.297 426.912 293.82Z" fill="#FFFCF9"/>
</svg>
