<svg width="1440" height="946" viewBox="0 0 1440 946" fill="none" xmlns="http://www.w3.org/2000/svg">
<path d="M580.794 691.613C578.022 708.724 554.987 728.707 547.206 729.148C535.225 729.832 518.529 710.453 516.536 697.156C516.375 696.102 516.312 695.093 516.348 694.131C516.622 686.74 521.253 675.286 530.118 672.624C538.096 670.229 546.081 674.675 550.107 674.709C552.586 674.729 557.078 671.48 563.792 671.537C570.507 671.593 580.732 675.924 581.065 687.832C581.1 689.069 581.006 690.334 580.799 691.613L580.794 691.613Z" fill="#E4CFFA"/>
<path d="M574.768 714.782C570.331 720.194 553.987 737.496 545.316 737.657C536.641 737.818 523.766 719.786 519.862 714.849C516.476 710.559 516.595 699.461 516.707 696.832C518.699 710.075 535.435 730.212 547.375 729.536C555.135 729.095 578.08 709.207 580.837 692.171C580.665 698.312 579.085 709.522 574.762 714.787L574.768 714.782Z" fill="#C2B1D5"/>
<path d="M534.986 685.083L537.173 685.101L536.928 688.238L536.977 688.238L539.305 685.119L541.697 685.139L538.965 688.539L541.524 693.57L539.132 693.55L537.555 690.294L536.679 691.429L536.515 693.528L534.329 693.51L534.986 685.083Z" fill="#9F91AB"/>
<path d="M544.196 685.213L546.444 685.241L545.804 693.789L543.556 693.761L544.196 685.213Z" fill="#9F91AB"/>
<path d="M548.425 692.827L549.796 691.303C550.347 691.788 551.057 692.134 551.67 692.14C552.332 692.145 552.629 691.928 552.659 691.548C552.69 691.143 552.278 691.009 551.599 690.718L550.598 690.27C549.733 689.897 549.013 689.125 549.108 687.901C549.221 686.456 550.588 685.287 552.399 685.302C553.341 685.31 554.362 685.684 555.068 686.456L553.86 687.851C553.332 687.441 552.862 687.232 552.249 687.227C551.714 687.223 551.365 687.415 551.336 687.79C551.305 688.195 551.765 688.339 552.497 688.645L553.471 689.058C554.474 689.482 555.001 690.217 554.91 691.387C554.798 692.817 553.527 694.081 551.461 694.064C550.416 694.055 549.244 693.655 548.415 692.827L548.425 692.827Z" fill="#9F91AB"/>
<path d="M556.567 693.039L557.938 691.515C558.489 692 559.199 692.346 559.812 692.352C560.474 692.357 560.771 692.14 560.801 691.76C560.832 691.355 560.421 691.221 559.741 690.93L558.74 690.482C557.876 690.109 557.155 689.337 557.251 688.113C557.363 686.668 558.731 685.499 560.541 685.514C561.483 685.522 562.505 685.896 563.21 686.668L562.002 688.063C561.474 687.653 561.004 687.444 560.391 687.439C559.856 687.434 559.508 687.627 559.478 688.002C559.447 688.406 559.907 688.55 560.639 688.857L561.613 689.27C562.616 689.694 563.143 690.429 563.052 691.599C562.941 693.029 561.669 694.293 559.603 694.276C558.558 694.267 557.387 693.867 556.558 693.039L556.567 693.039Z" fill="#9F91AB"/>
<path d="M539.837 701.196L542.17 701.216L543.146 704.67C543.261 705.139 543.348 705.658 543.461 706.147L543.51 706.147C543.699 705.656 543.867 705.139 544.054 704.678L545.514 701.244L547.847 701.263L547.191 709.674L545.209 709.657L545.403 707.174C545.47 706.318 545.747 705.016 545.915 704.175L545.866 704.175L545.025 706.19L543.793 708.963L542.626 708.953L541.828 706.163L541.327 704.137L541.278 704.137C541.315 704.978 541.388 706.289 541.322 707.14L541.128 709.623L539.176 709.607L539.832 701.196L539.837 701.196Z" fill="#9F91AB"/>
<path d="M550.859 701.434L556.23 701.481L556.084 703.353L552.912 703.326L552.809 704.653L555.519 704.676L555.373 706.549L552.663 706.526L552.546 708.038L555.845 708.067L555.7 709.94L550.202 709.892L550.86 701.429L550.859 701.434Z" fill="#9F91AB"/>
<path d="M860.69 278.065C841.516 332.392 755.511 374.619 730.245 367.754C691.341 357.202 649.326 274.41 650.902 227.742C651.016 224.04 651.42 220.596 652.114 217.411C657.43 192.956 679.182 159.561 709.264 160.153C736.333 160.683 759.32 184.131 772.237 188.56C780.188 191.287 796.571 185.222 818.111 192.609C839.65 199.995 869.905 225.459 863.828 265.694C863.199 269.872 862.138 274.009 860.706 278.071L860.69 278.065Z" fill="#FFD1DE"/>
<path d="M826.124 348.734C808.609 362.111 745.672 402.566 717.714 393.834C689.74 385.096 659.226 310.947 649.654 290.242C641.355 272.257 648.422 235.222 650.364 226.541C648.79 273.011 690.446 358.337 729.219 368.841C754.42 375.663 840.125 333.608 859.239 279.514C854.991 299.895 843.165 335.739 826.104 348.744L826.124 348.734Z" fill="#E0B8C3"/>
<path d="M713.555 216.095L720.611 218.511L714.995 240.037L725.098 243.497L723.502 249.614L706.343 243.738L713.555 216.095Z" fill="#B3929B"/>
<path d="M731.317 236.646C733.675 227.598 739.969 224.226 747.308 226.743C754.647 229.26 758.283 236.091 755.938 245.089C753.594 254.088 747.219 257.769 739.88 255.252C732.541 252.736 728.96 245.693 731.317 236.646ZM748.772 242.632C750.073 237.636 748.863 234.084 745.68 232.992C742.496 231.9 739.786 234.108 738.484 239.104C737.183 244.099 738.329 247.896 741.512 248.988C744.696 250.079 747.47 247.627 748.772 242.632Z" fill="#B3929B"/>
<path d="M762.856 232.126L770.271 234.669L769.918 247.626C769.897 250.791 769.641 253.804 769.606 257.018L769.763 257.072C771.271 254.363 772.542 251.716 773.994 249.024L779.819 237.943L786.999 240.406L772.013 265.215L763.532 262.307L762.872 232.131L762.856 232.126Z" fill="#B3929B"/>
<path d="M791.526 241.426L808.754 247.326L807.159 253.441L796.983 249.956L795.853 254.289L804.545 257.266L802.95 263.381L794.257 260.404L792.969 265.342L803.555 268.968L801.96 275.083L784.322 269.041L791.53 241.409L791.526 241.426Z" fill="#B3929B"/>
<path d="M708.769 290.806L705.466 270.021L712.967 272.594L713.427 279.03C713.547 281.324 713.694 283.449 713.82 285.851L713.977 285.905C715.232 283.976 716.418 282.308 717.663 280.483L721.126 275.392L728.47 277.91L715.767 293.205L713.298 302.681L706.284 300.276L708.753 290.8L708.769 290.806Z" fill="#B3929B"/>
<path d="M727.895 292.075C730.252 283.027 736.546 279.655 743.885 282.172C751.224 284.689 754.86 291.519 752.515 300.518C750.171 309.517 743.796 313.198 736.457 310.681C729.118 308.164 725.537 301.122 727.895 292.075ZM745.349 298.06C746.65 293.065 745.44 289.512 742.257 288.421C739.073 287.329 736.363 289.537 735.061 294.532C733.76 299.528 734.906 303.325 738.089 304.416C741.273 305.508 744.047 303.056 745.349 298.06Z" fill="#B3929B"/>
<path d="M759.231 302.941L762.944 288.694L769.967 291.102L766.034 306.196C764.751 311.119 765.514 313.316 768.295 314.269C771.076 315.223 772.843 313.893 774.126 308.971L778.059 293.877L784.847 296.204L781.134 310.45C778.683 319.855 774.107 323.098 766.659 320.545C759.212 317.991 756.776 312.362 759.231 302.941Z" fill="#B3929B"/>
<path d="M637.818 414.307C637.223 437.907 609.05 465.253 598.334 465.777C581.835 466.59 554.979 439.642 549.685 421.255C549.26 419.797 548.982 418.404 548.849 417.075C547.825 406.871 552.074 391.102 563.873 387.524C574.49 384.303 586.417 390.531 592.012 390.622C595.456 390.678 601.074 386.24 610.403 386.392C619.733 386.544 634.748 392.637 637.474 409.088C637.758 410.796 637.868 412.542 637.824 414.307L637.818 414.307Z" fill="#FFD1DE"/>
<path d="M633.293 446.225C628.161 453.656 608.754 477.391 596.752 477.527C584.743 477.663 563.463 452.628 557.111 445.771C551.6 439.812 549.665 424.484 549.323 420.855C554.593 439.165 581.63 467.145 598.072 466.33C608.757 465.799 636.835 438.557 637.436 415.055C638.36 423.536 638.289 439.003 633.286 446.232L633.293 446.225Z" fill="#E0B8C3"/>
<path d="M572.628 408.782L575.684 408.831L576.22 417.931L580.596 418L580.748 420.587L573.317 420.469L572.628 408.782Z" fill="#B3929B"/>
<path d="M582.152 414.543C581.926 410.718 583.952 408.607 587.131 408.659C590.31 408.711 592.591 410.913 592.817 414.716C593.043 418.52 591.024 420.762 587.845 420.71C584.666 420.659 582.379 418.368 582.152 414.543ZM589.713 414.666C589.587 412.554 588.666 411.323 587.287 411.3C585.908 411.278 585.131 412.482 585.257 414.593C585.382 416.705 586.309 418.04 587.688 418.062C589.067 418.085 589.838 416.778 589.713 414.666Z" fill="#B3929B"/>
<path d="M593.872 408.789L597.084 408.841L598.587 413.936C598.979 415.172 599.261 416.379 599.654 417.636L599.722 417.637C599.967 416.39 600.127 415.198 600.352 413.965L601.219 408.909L604.33 408.959L601.63 420.526L597.956 420.466L593.879 408.789L593.872 408.789Z" fill="#B3929B"/>
<path d="M606.223 408.784L613.684 408.903L613.837 411.488L609.43 411.418L609.538 413.25L613.303 413.31L613.455 415.895L609.69 415.835L609.813 417.923L614.398 417.995L614.551 420.581L606.912 420.459L606.222 408.777L606.223 408.784Z" fill="#B3929B"/>
<path d="M580.221 438.507L576.303 430.825L579.552 430.878L580.546 433.328C580.883 434.207 581.21 435.017 581.563 435.937L581.631 435.938C581.876 435.028 582.127 434.227 582.381 433.358L583.086 430.935L586.267 430.987L583.253 438.557L583.49 442.562L580.452 442.513L580.215 438.507L580.221 438.507Z" fill="#B3929B"/>
<path d="M587.836 436.579C587.609 432.755 589.635 430.643 592.814 430.695C595.993 430.747 598.275 432.949 598.501 436.753C598.726 440.557 596.708 442.798 593.529 442.747C590.35 442.695 588.063 440.404 587.836 436.579ZM595.396 436.702C595.271 434.59 594.35 433.359 592.971 433.337C591.592 433.314 590.815 434.518 590.94 436.63C591.066 438.741 591.993 440.076 593.372 440.098C594.751 440.121 595.522 438.814 595.396 436.702Z" fill="#B3929B"/>
<path d="M601.425 436.848L601.068 430.825L604.11 430.874L604.488 437.255C604.611 439.336 605.187 440.096 606.391 440.115C607.596 440.135 608.116 439.393 607.993 437.312L607.615 430.931L610.555 430.979L610.912 437.001C611.147 440.977 609.774 442.82 606.548 442.768C603.323 442.716 601.661 440.83 601.425 436.848Z" fill="#B3929B"/>
<g clip-path="url(#clip0_94_1061)">
<path d="M693.853 240.142C692.044 261.443 665.007 286.528 655.254 287.157C640.233 288.133 617.312 264.215 613.503 247.704C613.196 246.395 613.019 245.142 612.97 243.945C612.589 234.754 617.288 220.465 628.187 217.064C637.995 214.002 648.483 219.446 653.555 219.446C656.677 219.446 662.014 215.36 670.472 215.36C678.93 215.36 692.228 220.638 693.816 235.439C693.982 236.976 693.988 238.55 693.853 240.142Z" fill="#BDE5DD"/>
<path d="M688.4 268.467C683.328 275.275 664.381 297.064 653.445 297.36C642.503 297.656 624.47 275.275 619.054 269.152C614.356 263.825 613.417 249.962 613.307 246.678C617.122 263.196 640.239 288.163 655.254 287.188C665.013 286.552 692.044 261.461 693.853 240.154C694.239 247.827 693.344 261.844 688.4 268.467Z" fill="#A6C3BF"/>
<path d="M633.94 246.858L631.291 241.784H634.351L635.05 243.488C635.271 243.969 635.498 244.549 635.786 245.222H635.848C636.069 244.549 636.296 243.969 636.486 243.488L637.093 241.784H640.025L637.375 246.981L640.184 252.215H637.124L636.296 250.351C636.038 249.808 635.817 249.259 635.559 248.617H635.498C635.277 249.259 635.05 249.802 634.83 250.351L634.063 252.215H631.131L633.94 246.858Z" fill="#8CABA6"/>
<path d="M642.405 246.95C642.405 243.519 644.349 241.593 647.219 241.593C650.09 241.593 652.034 243.537 652.034 246.95C652.034 250.364 650.09 252.407 647.219 252.407C644.349 252.407 642.405 250.382 642.405 246.95ZM649.231 246.95C649.231 245.055 648.465 243.963 647.219 243.963C645.974 243.963 645.208 245.055 645.208 246.95C645.208 248.845 645.974 250.03 647.219 250.03C648.465 250.03 649.231 248.845 649.231 246.95Z" fill="#8CABA6"/>
<path d="M657.064 246.858L654.414 241.784H657.475L658.174 243.488C658.395 243.969 658.622 244.549 658.91 245.222H658.971C659.192 244.549 659.419 243.969 659.609 243.488L660.216 241.784H663.148L660.499 246.981L663.308 252.215H660.247L659.419 250.351C659.161 249.808 658.941 249.259 658.683 248.617H658.622C658.401 249.259 658.174 249.802 657.953 250.351L657.186 252.215H654.255L657.064 246.858Z" fill="#8CABA6"/>
<path d="M665.528 246.95C665.528 243.519 667.472 241.593 670.343 241.593C673.214 241.593 675.158 243.537 675.158 246.95C675.158 250.364 673.214 252.407 670.343 252.407C667.472 252.407 665.528 250.382 665.528 246.95ZM672.355 246.95C672.355 245.055 671.588 243.963 670.343 243.963C669.098 243.963 668.331 245.055 668.331 246.95C668.331 248.845 669.098 250.03 670.343 250.03C671.588 250.03 672.355 248.845 672.355 246.95Z" fill="#8CABA6"/>
</g>
<path d="M72.7086 87.8212C66.1225 108.159 34.1074 126.469 24.4658 124.874C9.6141 122.422 -7.29514 93.9347 -7.26605 76.99C-7.26843 75.646 -7.15793 74.3853 -6.93455 73.2078C-5.22364 64.1698 2.58851 51.316 13.9749 50.4716C24.221 49.7107 33.2041 57.3885 38.1448 58.5372C41.1856 59.2442 47.3086 56.4726 55.547 58.3881C63.7855 60.3035 75.5425 68.4552 73.7379 83.2317C73.5512 84.7662 73.2007 86.3007 72.7086 87.8212Z" fill="#BDE5DD"/>
<path d="M60.9831 114.176C54.5006 119.658 31.112 136.59 20.3929 134.402C9.66776 132.212 -2.82808 106.329 -6.71672 99.1387C-10.0867 92.8864 -7.8613 79.1709 -7.22521 75.9475C-7.24973 92.8996 9.61307 122.453 24.4588 124.904C34.1078 126.494 66.1183 108.177 72.7058 87.8332C71.3448 95.3936 67.2981 108.844 60.9831 114.176Z" fill="#A6C3BF"/>
<path d="M12.8315 80.7948L11.3997 75.2529L14.3808 75.946L14.6761 77.7637C14.7821 78.2826 14.8718 78.8992 15.0002 79.6197L15.0599 79.6336C15.4274 79.0283 15.7798 78.5146 16.074 78.0887L17.0513 76.5669L19.907 77.2309L16.1491 81.6929L17.7 87.4273L14.7189 86.7342L14.3345 84.731C14.2066 84.1436 14.1159 83.5586 14.0104 82.875L13.9506 82.8611C13.5902 83.4363 13.2461 83.914 12.9066 84.399L11.7377 86.0411L8.88206 85.3771L12.8315 80.7948Z" fill="#8CABA6"/>
<path d="M21.055 82.8014C21.8322 79.4588 24.1621 78.0233 26.9581 78.6734C29.754 79.3234 31.2075 81.6575 30.4346 84.9822C29.6616 88.3068 27.3051 89.8565 24.5091 89.2064C21.7132 88.5564 20.2779 86.1441 21.055 82.8014ZM27.7043 84.3474C28.1335 82.5017 27.6341 81.264 26.4213 80.982C25.2086 80.7 24.2144 81.5905 23.7852 83.4362C23.3561 85.2819 23.8345 86.6098 25.0473 86.8918C26.2601 87.1738 27.2752 86.1931 27.7043 84.3474Z" fill="#8CABA6"/>
<path d="M35.3544 86.0312L33.9225 80.4892L36.9036 81.1824L37.1989 83C37.3049 83.519 37.3946 84.1355 37.523 84.8561L37.5828 84.87C37.9502 84.2647 38.3026 83.7509 38.5969 83.325L39.5741 81.8032L42.4298 82.4672L38.672 86.9293L40.2228 92.6636L37.2417 91.9705L36.8573 89.9673C36.7294 89.38 36.6387 88.7949 36.5332 88.1113L36.4734 88.0974C36.113 88.6726 35.769 89.1503 35.4295 89.6354L34.2606 91.2774L31.4049 90.6134L35.3544 86.0312Z" fill="#8CABA6"/>
<path d="M43.5779 88.0378C44.355 84.6951 46.685 83.2597 49.4809 83.9097C52.2768 84.5598 53.7304 86.8939 52.9574 90.2185C52.1844 93.5432 49.8279 95.0928 47.032 94.4428C44.236 93.7927 42.8007 91.3805 43.5779 88.0378ZM50.2272 89.5837C50.6563 87.738 50.1569 86.5003 48.9442 86.2183C47.7314 85.9364 46.7372 86.8269 46.3081 88.6725C45.879 90.5182 46.3574 91.8462 47.5701 92.1281C48.7829 92.4101 49.798 91.4294 50.2272 89.5837Z" fill="#8CABA6"/>
<g clip-path="url(#clip1_94_1061)">
<path d="M1274.85 159.142C1273.04 180.443 1246.01 205.528 1236.25 206.157C1221.23 207.133 1198.31 183.215 1194.5 166.704C1194.2 165.395 1194.02 164.142 1193.97 162.945C1193.59 153.754 1198.29 139.465 1209.19 136.064C1218.99 133.002 1229.48 138.446 1234.56 138.446C1237.68 138.446 1243.01 134.36 1251.47 134.36C1259.93 134.36 1273.23 139.638 1274.82 154.439C1274.98 155.976 1274.99 157.55 1274.85 159.142Z" fill="#BDE5DD"/>
<path d="M1269.4 187.467C1264.33 194.275 1245.38 216.064 1234.45 216.36C1223.5 216.656 1205.47 194.275 1200.05 188.152C1195.36 182.825 1194.42 168.962 1194.31 165.678C1198.12 182.196 1221.24 207.163 1236.25 206.188C1246.01 205.552 1273.04 180.461 1274.85 159.154C1275.24 166.827 1274.34 180.844 1269.4 187.467Z" fill="#A6C3BF"/>
<path d="M1214.94 165.858L1212.29 160.784H1215.35L1216.05 162.488C1216.27 162.969 1216.5 163.549 1216.79 164.222H1216.85C1217.07 163.549 1217.3 162.969 1217.49 162.488L1218.09 160.784H1221.02L1218.38 165.981L1221.18 171.215H1218.12L1217.3 169.351C1217.04 168.808 1216.82 168.259 1216.56 167.617H1216.5C1216.28 168.259 1216.05 168.802 1215.83 169.351L1215.06 171.215H1212.13L1214.94 165.858Z" fill="#8CABA6"/>
<path d="M1223.4 165.95C1223.4 162.519 1225.35 160.593 1228.22 160.593C1231.09 160.593 1233.03 162.537 1233.03 165.95C1233.03 169.364 1231.09 171.407 1228.22 171.407C1225.35 171.407 1223.4 169.382 1223.4 165.95ZM1230.23 165.95C1230.23 164.055 1229.46 162.963 1228.22 162.963C1226.97 162.963 1226.21 164.055 1226.21 165.95C1226.21 167.845 1226.97 169.03 1228.22 169.03C1229.46 169.03 1230.23 167.845 1230.23 165.95Z" fill="#8CABA6"/>
<path d="M1238.06 165.858L1235.41 160.784H1238.47L1239.17 162.488C1239.39 162.969 1239.62 163.549 1239.91 164.222H1239.97C1240.19 163.549 1240.42 162.969 1240.61 162.488L1241.22 160.784H1244.15L1241.5 165.981L1244.31 171.215H1241.25L1240.42 169.351C1240.16 168.808 1239.94 168.259 1239.68 167.617H1239.62C1239.4 168.259 1239.17 168.802 1238.95 169.351L1238.19 171.215H1235.25L1238.06 165.858Z" fill="#8CABA6"/>
<path d="M1246.53 165.95C1246.53 162.519 1248.47 160.593 1251.34 160.593C1254.21 160.593 1256.16 162.537 1256.16 165.95C1256.16 169.364 1254.21 171.407 1251.34 171.407C1248.47 171.407 1246.53 169.382 1246.53 165.95ZM1253.35 165.95C1253.35 164.055 1252.59 162.963 1251.34 162.963C1250.1 162.963 1249.33 164.055 1249.33 165.95C1249.33 167.845 1250.1 169.03 1251.34 169.03C1252.59 169.03 1253.35 167.845 1253.35 165.95Z" fill="#8CABA6"/>
</g>
<g clip-path="url(#clip2_94_1061)">
<path d="M267.855 427.51C264.905 462.02 220.825 502.66 204.925 503.68C180.435 505.26 143.065 466.51 136.855 439.76C136.355 437.64 136.065 435.61 135.985 433.67C135.365 418.78 143.025 395.63 160.795 390.12C176.785 385.16 193.885 393.98 202.155 393.98C207.245 393.98 215.945 387.36 229.735 387.36C243.525 387.36 265.205 395.91 267.795 419.89C268.065 422.38 268.075 424.93 267.855 427.51Z" fill="#F6E7CA"/>
<path d="M258.965 473.4C250.695 484.43 219.805 519.73 201.975 520.21C184.135 520.69 154.735 484.43 145.905 474.51C138.245 465.88 136.715 443.42 136.535 438.1C142.755 464.86 180.445 505.31 204.925 503.73C220.835 502.7 264.905 462.05 267.855 427.53C268.485 439.96 267.025 462.67 258.965 473.4Z" fill="#DDCCAE"/>
<path d="M166.325 430.97L168.875 427.9C170.075 428.86 171.575 429.54 172.825 429.54C174.175 429.54 174.745 429.1 174.745 428.34C174.745 427.53 173.885 427.27 172.455 426.7L170.345 425.82C168.525 425.09 166.935 423.56 166.935 421.11C166.935 418.22 169.535 415.86 173.225 415.86C175.145 415.86 177.285 416.59 178.845 418.12L176.605 420.93C175.465 420.12 174.475 419.71 173.225 419.71C172.135 419.71 171.455 420.1 171.455 420.85C171.455 421.66 172.415 421.94 173.955 422.54L176.005 423.35C178.115 424.18 179.305 425.64 179.305 427.98C179.305 430.84 176.915 433.39 172.705 433.39C170.575 433.39 168.125 432.61 166.305 430.97H166.325Z" fill="#B1A28B"/>
<path d="M184.295 424.54C184.295 418.98 187.465 415.86 192.145 415.86C196.825 415.86 199.995 419.01 199.995 424.54C199.995 430.07 196.825 433.38 192.145 433.38C187.465 433.38 184.295 430.1 184.295 424.54ZM195.425 424.54C195.425 421.47 194.175 419.7 192.145 419.7C190.115 419.7 188.865 421.47 188.865 424.54C188.865 427.61 190.115 429.53 192.145 429.53C194.175 429.53 195.425 427.61 195.425 424.54Z" fill="#B1A28B"/>
<path d="M205.895 424.91V416.17H210.365V425.43C210.365 428.45 211.145 429.54 212.915 429.54C214.685 429.54 215.515 428.45 215.515 425.43V416.17H219.835V424.91C219.835 430.68 217.655 433.39 212.915 433.39C208.175 433.39 205.895 430.69 205.895 424.91Z" fill="#B1A28B"/>
<path d="M226.465 416.17H230.935V429.33H237.335V433.07H226.465V416.17Z" fill="#B1A28B"/>
<path d="M168.115 447.37H172.895L175.445 454.29C175.755 455.23 176.015 456.27 176.325 457.25H176.425C176.735 456.26 176.995 455.22 177.305 454.29L179.745 447.37H184.525V464.27H180.465V459.28C180.465 457.56 180.825 454.94 181.035 453.25H180.935L179.535 457.31L177.455 462.9H175.065L172.985 457.31L171.635 453.25H171.535C171.745 454.94 172.105 457.57 172.105 459.28V464.27H168.105V447.37H168.115Z" fill="#B1A28B"/>
<path d="M194.295 447.37H199.705L204.855 464.27H200.125L198.205 456.05C197.785 454.44 197.375 452.38 196.955 450.69H196.855C196.495 452.41 196.075 454.43 195.655 456.05L193.735 464.27H189.155L194.305 447.37H194.295ZM192.835 457.22H201.105V460.68H192.835V457.22Z" fill="#B1A28B"/>
<path d="M210.605 451.11H206.135V447.37H219.555V451.11H215.085V464.27H210.615V451.11H210.605Z" fill="#B1A28B"/>
<path d="M225.035 447.37H235.955V451.11H229.505V453.76H235.015V457.5H229.505V460.52H236.215V464.26H225.035V447.36V447.37Z" fill="#B1A28B"/>
</g>
<g clip-path="url(#clip3_94_1061)">
<path d="M1115.4 881.368C1116.44 901.676 1094.21 928.801 1085.11 930.651C1071.09 933.506 1046.41 913.918 1040.7 898.848C1040.24 897.655 1039.91 896.497 1039.71 895.375C1038.17 886.762 1040.75 872.69 1050.58 868.08C1059.42 863.931 1070 867.71 1074.78 867.056C1077.72 866.654 1082.21 862.115 1090.18 861.025C1098.15 859.935 1111.35 863.195 1114.76 876.94C1115.11 878.367 1115.32 879.85 1115.4 881.368Z" fill="#F6E7CA"/>
<path d="M1113.92 908.765C1110.02 915.835 1094.98 938.811 1084.72 940.5C1074.45 942.189 1054.58 923.42 1048.69 918.348C1043.58 913.933 1040.91 900.989 1040.38 897.908C1046.1 912.983 1071.1 933.534 1085.11 930.68C1094.22 928.823 1116.44 901.693 1115.4 881.38C1116.75 888.561 1117.72 901.887 1113.92 908.765Z" fill="#DDCCAE"/>
<path d="M1057.02 891.405L1058.25 889.418C1059.02 889.881 1059.94 890.158 1060.66 890.06C1061.44 889.953 1061.74 889.652 1061.68 889.21C1061.61 888.739 1061.09 888.655 1060.22 888.437L1058.93 888.092C1057.82 887.811 1056.78 887.047 1056.59 885.621C1056.36 883.94 1057.67 882.362 1059.8 882.07C1060.91 881.918 1062.21 882.174 1063.23 882.941L1062.16 884.752C1061.44 884.371 1060.83 884.211 1060.11 884.31C1059.48 884.396 1059.12 884.677 1059.18 885.113C1059.24 885.584 1059.82 885.671 1060.76 885.898L1062.01 886.207C1063.29 886.523 1064.1 887.279 1064.28 888.64C1064.51 890.304 1063.33 891.976 1060.9 892.309C1059.67 892.477 1058.19 892.217 1057.01 891.407L1057.02 891.405Z" fill="#B1A28B"/>
<path d="M1066.89 886.245C1066.45 883.01 1068.03 880.945 1070.73 880.575C1073.44 880.205 1075.52 881.787 1075.96 885.004C1076.4 888.22 1074.83 890.396 1072.13 890.766C1069.43 891.136 1067.33 889.479 1066.89 886.245ZM1073.32 885.365C1073.08 883.579 1072.21 882.648 1071.04 882.809C1069.87 882.969 1069.29 884.097 1069.53 885.883C1069.77 887.669 1070.65 888.687 1071.82 888.527C1073 888.366 1073.56 887.151 1073.32 885.365Z" fill="#B1A28B"/>
<path d="M1079.4 884.752L1078.7 879.668L1081.28 879.315L1082.02 884.701C1082.26 886.458 1082.8 887.03 1083.82 886.891C1084.84 886.751 1085.24 886.051 1085 884.294L1084.26 878.908L1086.76 878.566L1087.45 883.65C1087.91 887.007 1086.87 888.755 1084.13 889.13C1081.39 889.505 1079.86 888.114 1079.4 884.752Z" fill="#B1A28B"/>
<path d="M1090.59 878.042L1093.17 877.689L1094.21 885.344L1097.91 884.838L1098.21 887.014L1091.93 887.873L1090.59 878.042Z" fill="#B1A28B"/>
<path d="M1059.36 900.804L1062.12 900.426L1064.15 904.25C1064.4 904.772 1064.63 905.357 1064.89 905.902L1064.95 905.894C1065.05 905.294 1065.12 904.668 1065.22 904.103L1066.08 899.885L1068.84 899.507L1070.19 909.338L1067.84 909.659L1067.44 906.756C1067.31 905.755 1067.31 904.203 1067.29 903.203L1067.23 903.211L1066.75 905.683L1065.99 909.1L1064.61 909.288L1062.97 906.201L1061.86 903.946L1061.8 903.954C1062.06 904.92 1062.48 906.422 1062.61 907.417L1063.01 910.319L1060.7 910.636L1059.35 900.805L1059.36 900.804Z" fill="#B1A28B"/>
<path d="M1074.48 898.734L1077.61 898.307L1081.93 907.731L1079.2 908.104L1077.43 903.475C1077.06 902.571 1076.66 901.405 1076.29 900.455L1076.23 900.463C1076.16 901.492 1076.07 902.701 1075.96 903.676L1075.51 908.609L1072.86 908.971L1074.49 898.734L1074.48 898.734ZM1074.42 904.58L1079.2 903.926L1079.48 905.939L1074.7 906.592L1074.42 904.58Z" fill="#B1A28B"/>
<path d="M1084.2 899.621L1081.62 899.974L1081.32 897.799L1089.08 896.738L1089.37 898.914L1086.79 899.267L1087.84 906.922L1085.26 907.276L1084.21 899.62L1084.2 899.621Z" fill="#B1A28B"/>
<path d="M1092.24 896.305L1098.55 895.441L1098.85 897.617L1095.12 898.127L1095.33 899.668L1098.52 899.233L1098.81 901.408L1095.63 901.844L1095.87 903.601L1099.75 903.07L1100.05 905.246L1093.59 906.13L1092.24 896.299L1092.24 896.305Z" fill="#B1A28B"/>
</g>
<g clip-path="url(#clip4_94_1061)">
<path d="M1203.66 159.005C1195.16 183.761 1155.39 205.46 1143.54 203.289C1125.3 199.952 1105.02 164.687 1105.38 143.938C1105.4 142.293 1105.56 140.751 1105.86 139.314C1108.14 128.286 1118 112.722 1132.04 111.945C1144.67 111.244 1155.59 120.849 1161.65 122.367C1165.38 123.301 1172.97 120.045 1183.08 122.577C1193.19 125.108 1207.51 135.355 1205.01 153.409C1204.75 155.284 1204.29 157.155 1203.66 159.005Z" fill="#F6E7CA"/>
<path d="M1188.72 191.013C1180.63 197.58 1151.51 217.786 1138.35 214.865C1125.18 211.942 1110.29 179.965 1105.63 171.073C1101.6 163.341 1104.61 146.596 1105.45 142.663C1105.1 163.421 1125.3 199.991 1143.53 203.326C1155.39 205.492 1195.15 183.783 1203.65 159.021C1201.83 168.248 1196.59 184.627 1188.72 191.013Z" fill="#DDCCAE"/>
<path d="M1128.6 142.905L1131.03 141.123C1131.73 142.047 1132.71 142.82 1133.62 143.05C1134.61 143.298 1135.11 143.08 1135.25 142.523C1135.4 141.929 1134.82 141.581 1133.87 140.9L1132.49 139.868C1131.29 138.999 1130.4 137.585 1130.85 135.789C1131.38 133.671 1133.72 132.418 1136.43 133.095C1137.83 133.448 1139.27 134.376 1140.13 135.784L1137.97 137.432C1137.29 136.629 1136.64 136.147 1135.72 135.918C1134.92 135.718 1134.35 135.879 1134.21 136.428C1134.07 137.022 1134.72 137.404 1135.74 138.126L1137.09 139.096C1138.48 140.092 1139.09 141.381 1138.66 143.096C1138.13 145.192 1135.91 146.623 1132.83 145.85C1131.27 145.459 1129.61 144.438 1128.58 142.901L1128.6 142.905Z" fill="#B1A28B"/>
<path d="M1142.95 141.491C1143.97 137.415 1146.87 135.71 1150.3 136.569C1153.73 137.428 1155.47 140.319 1154.46 144.373C1153.44 148.426 1150.51 150.271 1147.08 149.412C1143.65 148.553 1141.93 145.566 1142.95 141.491ZM1151.11 143.534C1151.67 141.283 1151.08 139.756 1149.59 139.384C1148.1 139.011 1146.86 140.079 1146.3 142.33C1145.73 144.58 1146.3 146.217 1147.79 146.589C1149.27 146.962 1150.54 145.784 1151.11 143.534Z" fill="#B1A28B"/>
<path d="M1158.71 145.726L1160.32 139.319L1163.6 140.14L1161.9 146.928C1161.34 149.142 1161.71 150.084 1163.01 150.409C1164.31 150.734 1165.12 150.087 1165.67 147.873L1167.37 141.085L1170.54 141.878L1168.93 148.285C1167.87 152.515 1165.78 154.101 1162.3 153.231C1158.83 152.361 1157.65 149.963 1158.71 145.726Z" fill="#B1A28B"/>
<path d="M1175.4 143.096L1178.67 143.916L1176.26 153.563L1180.95 154.738L1180.26 157.479L1172.29 155.484L1175.4 143.096Z" fill="#B1A28B"/>
<path d="M1126.9 155.256L1130.4 156.133L1131 161.674C1131.05 162.42 1131.05 163.23 1131.1 164.005L1131.18 164.024C1131.58 163.355 1131.97 162.64 1132.36 162.015L1135.42 157.391L1138.93 158.268L1135.82 170.656L1132.85 169.911L1133.76 166.253C1134.08 164.992 1134.82 163.138 1135.29 161.938L1135.22 161.919L1133.44 164.638L1130.89 168.354L1129.14 167.916L1128.64 163.436L1128.4 160.212L1128.32 160.194C1128.17 161.471 1127.95 163.465 1127.64 164.719L1126.72 168.376L1123.79 167.642L1126.89 155.254L1126.9 155.256Z" fill="#B1A28B"/>
<path d="M1146.09 160.061L1150.05 161.054L1150.73 174.387L1147.26 173.519L1147.36 167.141C1147.35 165.884 1147.43 164.299 1147.43 162.983L1147.36 162.964C1146.78 164.159 1146.1 165.563 1145.49 166.673L1142.58 172.346L1139.22 171.505L1146.1 160.063L1146.09 160.061ZM1143.21 167.013L1149.27 168.531L1148.64 171.067L1142.57 169.549L1143.21 167.013Z" fill="#B1A28B"/>
<path d="M1157.36 165.796L1154.08 164.976L1154.77 162.234L1164.6 164.698L1163.92 167.439L1160.64 166.619L1158.23 176.266L1154.95 175.445L1157.36 165.798L1157.36 165.796Z" fill="#B1A28B"/>
<path d="M1168.62 165.704L1176.63 167.708L1175.94 170.45L1171.21 169.266L1170.73 171.208L1174.76 172.22L1174.08 174.961L1170.04 173.95L1169.48 176.164L1174.4 177.395L1173.72 180.137L1165.52 178.085L1168.62 165.696L1168.62 165.704Z" fill="#B1A28B"/>
</g>
<g clip-path="url(#clip5_94_1061)">
<path d="M665.93 740.04C664.545 756.405 643.85 775.677 636.385 776.161C624.888 776.91 607.343 758.534 604.427 745.849C604.193 744.844 604.057 743.881 604.019 742.961C603.728 735.9 607.324 724.922 615.667 722.309C623.174 719.957 631.202 724.139 635.085 724.139C637.474 724.139 641.559 721 648.033 721C654.507 721 664.686 725.055 665.902 736.426C666.028 737.607 666.033 738.816 665.93 740.04Z" fill="#C3E5F1"/>
<path d="M661.756 761.802C657.873 767.033 643.371 783.773 635 784C626.624 784.228 612.822 767.033 608.676 762.329C605.08 758.236 604.361 747.585 604.277 745.062C607.197 757.752 624.892 776.935 636.385 776.185C643.854 775.697 664.545 756.42 665.93 740.05C666.225 745.944 665.54 756.714 661.756 761.802Z" fill="#ACC8D4"/>
<path d="M622.465 736.085H624.709L625.906 739.367C626.052 739.812 626.174 740.306 626.319 740.77H626.366C626.512 740.301 626.634 739.808 626.779 739.367L627.925 736.085H630.169V744.099H628.263V741.733C628.263 740.917 628.432 739.675 628.531 738.873H628.484L627.826 740.799L626.85 743.45H625.728L624.751 740.799L624.117 738.873H624.07C624.169 739.675 624.338 740.922 624.338 741.733V744.099H622.46V736.085H622.465Z" fill="#839CA3"/>
<path d="M632.854 736.085H634.953V744.099H632.854V736.085Z" fill="#839CA3"/>
<path d="M637.136 743.103L638.333 741.647C638.897 742.102 639.601 742.425 640.188 742.425C640.822 742.425 641.089 742.216 641.089 741.856C641.089 741.472 640.685 741.348 640.014 741.078L639.023 740.661C638.169 740.315 637.423 739.589 637.423 738.427C637.423 737.057 638.643 735.938 640.376 735.938C641.277 735.938 642.282 736.284 643.014 737.009L641.962 738.342C641.427 737.958 640.962 737.763 640.376 737.763C639.864 737.763 639.545 737.948 639.545 738.304C639.545 738.688 639.995 738.821 640.718 739.105L641.681 739.489C642.671 739.883 643.23 740.575 643.23 741.685C643.23 743.041 642.108 744.251 640.131 744.251C639.131 744.251 637.981 743.881 637.127 743.103H637.136Z" fill="#839CA3"/>
<path d="M644.695 743.103L645.892 741.647C646.455 742.102 647.16 742.425 647.746 742.425C648.38 742.425 648.648 742.216 648.648 741.856C648.648 741.472 648.244 741.348 647.573 741.078L646.582 740.661C645.728 740.315 644.981 739.589 644.981 738.427C644.981 737.057 646.202 735.938 647.934 735.938C648.836 735.938 649.84 736.284 650.573 737.009L649.521 738.342C648.986 737.958 648.521 737.763 647.934 737.763C647.423 737.763 647.103 737.948 647.103 738.304C647.103 738.688 647.554 738.821 648.277 739.105L649.239 739.489C650.23 739.883 650.789 740.575 650.789 741.685C650.789 743.041 649.667 744.251 647.69 744.251C646.69 744.251 645.54 743.881 644.685 743.103H644.695Z" fill="#839CA3"/>
<path d="M626.221 756.134L623.826 750.88H626.07L626.657 752.559C626.854 753.161 627.047 753.716 627.254 754.346H627.3C627.507 753.716 627.714 753.161 627.925 752.559L628.512 750.88H630.709L628.315 756.134V758.894H626.216V756.134H626.221Z" fill="#839CA3"/>
<path d="M631.798 754.85C631.798 752.213 633.286 750.733 635.484 750.733C637.681 750.733 639.169 752.227 639.169 754.85C639.169 757.472 637.681 759.042 635.484 759.042C633.286 759.042 631.798 757.486 631.798 754.85ZM637.023 754.85C637.023 753.394 636.437 752.554 635.484 752.554C634.531 752.554 633.944 753.394 633.944 754.85C633.944 756.305 634.531 757.216 635.484 757.216C636.437 757.216 637.023 756.305 637.023 754.85Z" fill="#839CA3"/>
<path d="M641.455 755.025V750.88H643.554V755.271C643.554 756.703 643.92 757.22 644.751 757.22C645.582 757.22 645.972 756.703 645.972 755.271V750.88H648V755.025C648 757.761 646.977 759.046 644.751 759.046C642.526 759.046 641.455 757.766 641.455 755.025Z" fill="#839CA3"/>
</g>
<g clip-path="url(#clip6_94_1061)">
<path d="M1206.3 390.707C1214.51 417.641 1193.63 461.586 1181.98 467.144C1164.03 475.711 1124.21 457.718 1111.46 439.4C1110.44 437.95 1109.61 436.506 1108.97 435.066C1104 424.014 1102.77 404.236 1114.47 394.727C1125 386.168 1140.53 387.676 1146.75 385.185C1150.58 383.653 1155.12 376.037 1165.49 371.884C1175.87 367.732 1194.76 367.656 1203.95 384.974C1204.91 386.772 1205.68 388.694 1206.3 390.707Z" fill="#C3E5F1"/>
<path d="M1213.48 428.018C1210.59 438.833 1198.02 474.776 1184.75 480.507C1171.48 486.242 1138.41 467.729 1128.77 462.901C1120.4 458.694 1112.46 442.204 1110.72 438.243C1123.48 456.566 1164.05 475.745 1181.99 467.181C1193.65 461.613 1214.52 417.663 1206.3 390.722C1210.53 399.913 1216.3 417.493 1213.48 428.018Z" fill="#ACC8D4"/>
<path d="M1134.14 412.292L1137.74 410.853L1141.74 415.307C1142.26 415.923 1142.77 416.63 1143.3 417.276L1143.38 417.246C1143.31 416.406 1143.19 415.542 1143.14 414.747L1142.89 408.79L1146.48 407.35L1151.59 420.105L1148.54 421.328L1147.03 417.562C1146.51 416.264 1145.99 414.178 1145.64 412.839L1145.56 412.869L1145.73 416.355L1145.86 421.2L1144.06 421.92L1140.81 418.327L1138.56 415.67L1138.49 415.7C1139.16 416.912 1140.22 418.789 1140.74 420.079L1142.25 423.845L1139.24 425.05L1134.13 412.295L1134.14 412.292Z" fill="#839CA3"/>
<path d="M1150.79 405.628L1154.15 404.282L1159.25 417.037L1155.89 418.383L1150.79 405.628Z" fill="#839CA3"/>
<path d="M1162.12 414.051L1163.11 410.966C1164.3 411.329 1165.63 411.391 1166.58 411.015C1167.59 410.608 1167.89 410.104 1167.66 409.531C1167.41 408.919 1166.69 408.982 1165.44 408.983L1163.59 408.954C1162 408.951 1160.34 408.275 1159.6 406.426C1158.72 404.245 1159.97 401.681 1162.74 400.57C1164.19 399.991 1166.02 399.898 1167.65 400.583L1166.82 403.378C1165.71 403.11 1164.85 403.099 1163.91 403.475C1163.09 403.803 1162.69 404.303 1162.92 404.869C1163.16 405.48 1163.97 405.402 1165.31 405.391L1167.1 405.385C1168.93 405.376 1170.27 406.12 1170.98 407.886C1171.84 410.044 1170.81 412.689 1167.65 413.956C1166.05 414.598 1163.97 414.747 1162.1 414.057L1162.12 414.051Z" fill="#839CA3"/>
<path d="M1174.23 409.203L1175.22 406.119C1176.41 406.482 1177.75 406.543 1178.69 406.167C1179.7 405.76 1180 405.257 1179.77 404.683C1179.52 404.072 1178.8 404.134 1177.55 404.135L1175.7 404.106C1174.11 404.103 1172.45 403.427 1171.71 401.578C1170.84 399.397 1172.08 396.833 1174.85 395.722C1176.3 395.144 1178.13 395.05 1179.76 395.735L1178.93 398.53C1177.83 398.262 1176.96 398.251 1176.02 398.628C1175.2 398.956 1174.8 399.455 1175.03 400.021C1175.27 400.632 1176.08 400.554 1177.42 400.544L1179.21 400.538C1181.05 400.529 1182.38 401.272 1183.09 403.038C1183.95 405.197 1182.93 407.841 1179.76 409.109C1178.16 409.75 1176.08 409.899 1174.21 409.209L1174.23 409.203Z" fill="#839CA3"/>
<path d="M1152.93 441.792L1145.75 434.966L1149.34 433.526L1151.35 435.822C1152.05 436.654 1152.71 437.413 1153.45 438.285L1153.52 438.254C1153.45 437.118 1153.43 436.103 1153.38 435.009L1153.25 431.961L1156.78 430.551L1156.29 440.449L1158.05 444.842L1154.68 446.188L1152.92 441.795L1152.93 441.792Z" fill="#839CA3"/>
<path d="M1161.05 436.169C1159.37 431.973 1160.81 428.664 1164.33 427.254C1167.85 425.845 1171.19 427.268 1172.86 431.441C1174.53 435.615 1173.15 439.068 1169.62 440.477C1166.1 441.886 1162.73 440.365 1161.05 436.169ZM1169.42 432.818C1168.49 430.501 1167.02 429.541 1165.49 430.152C1163.96 430.764 1163.56 432.476 1164.49 434.793C1165.41 437.11 1166.93 438.183 1168.46 437.571C1169.99 436.96 1170.35 435.135 1169.42 432.818Z" fill="#839CA3"/>
<path d="M1176.63 430.254L1173.99 423.658L1177.36 422.312L1180.15 429.301C1181.07 431.58 1181.98 432.168 1183.31 431.635C1184.64 431.102 1184.94 430.029 1184.03 427.75L1181.23 420.761L1184.48 419.461L1187.12 426.057C1188.86 430.411 1188.04 433.113 1184.48 434.541C1180.91 435.968 1178.38 434.617 1176.63 430.254Z" fill="#839CA3"/>
</g>
<g clip-path="url(#clip7_94_1061)">
<path d="M127.879 630.191C126.584 645.518 107.224 663.566 100.241 664.019C89.4849 664.721 73.0722 647.512 70.3448 635.632C70.1252 634.69 69.9978 633.789 69.9627 632.927C69.6904 626.314 73.0546 616.033 80.8591 613.586C87.8818 611.383 95.392 615.3 99.0242 615.3C101.26 615.3 105.081 612.36 111.137 612.36C117.194 612.36 126.715 616.157 127.853 626.807C127.971 627.913 127.976 629.046 127.879 630.191Z" fill="#C3E5F1"/>
<path d="M123.975 650.572C120.343 655.47 106.776 671.147 98.945 671.36C91.1098 671.573 78.1975 655.47 74.3194 651.064C70.9552 647.232 70.2832 637.257 70.2042 634.894C72.936 646.779 89.4892 664.743 100.241 664.041C107.228 663.584 126.584 645.531 127.879 630.2C128.156 635.72 127.515 645.806 123.975 650.572Z" fill="#ACC8D4"/>
<path d="M87.2185 626.487H89.3179L90.4378 629.561C90.5739 629.978 90.6881 630.44 90.8243 630.875H90.8682C91.0044 630.435 91.1185 629.974 91.2547 629.561L92.3263 626.487H94.4257V633.993H92.6426V631.777C92.6426 631.013 92.8007 629.849 92.8929 629.099H92.849L92.2341 630.902L91.3206 633.384H90.2709L89.3574 630.902L88.7645 629.099H88.7205C88.8128 629.849 88.9709 631.017 88.9709 631.777V633.993H87.2141V626.487H87.2185Z" fill="#839CA3"/>
<path d="M96.9379 626.487H98.9011V633.993H96.9379V626.487Z" fill="#839CA3"/>
<path d="M100.943 633.06L102.063 631.697C102.59 632.123 103.249 632.425 103.798 632.425C104.391 632.425 104.641 632.23 104.641 631.892C104.641 631.532 104.264 631.417 103.636 631.164L102.709 630.773C101.91 630.449 101.211 629.769 101.211 628.681C101.211 627.398 102.353 626.35 103.974 626.35C104.817 626.35 105.757 626.674 106.442 627.353L105.458 628.601C104.958 628.242 104.523 628.059 103.974 628.059C103.495 628.059 103.196 628.233 103.196 628.566C103.196 628.925 103.618 629.05 104.294 629.316L105.195 629.676C106.121 630.045 106.644 630.693 106.644 631.732C106.644 633.002 105.594 634.135 103.745 634.135C102.81 634.135 101.734 633.788 100.935 633.06H100.943Z" fill="#839CA3"/>
<path d="M108.014 633.06L109.134 631.697C109.661 632.123 110.32 632.425 110.869 632.425C111.462 632.425 111.712 632.23 111.712 631.892C111.712 631.532 111.335 631.417 110.707 631.164L109.78 630.773C108.981 630.449 108.282 629.769 108.282 628.681C108.282 627.398 109.424 626.35 111.045 626.35C111.888 626.35 112.828 626.674 113.513 627.353L112.529 628.601C112.029 628.242 111.594 628.059 111.045 628.059C110.566 628.059 110.267 628.233 110.267 628.566C110.267 628.925 110.689 629.05 111.365 629.316L112.266 629.676C113.192 630.045 113.715 630.693 113.715 631.732C113.715 633.002 112.665 634.135 110.816 634.135C109.881 634.135 108.805 633.788 108.006 633.06H108.014Z" fill="#839CA3"/>
<path d="M90.7321 645.264L88.4922 640.344H90.5915L91.1405 641.916C91.325 642.48 91.5051 643 91.6983 643.59H91.7422C91.9355 643 92.1287 642.48 92.3264 641.916L92.8753 640.344H94.9308L92.6909 645.264V647.849H90.7277V645.264H90.7321Z" fill="#839CA3"/>
<path d="M95.9497 644.061C95.9497 641.592 97.342 640.206 99.3974 640.206C101.453 640.206 102.845 641.605 102.845 644.061C102.845 646.517 101.453 647.987 99.3974 647.987C97.342 647.987 95.9497 646.53 95.9497 644.061ZM100.838 644.061C100.838 642.698 100.289 641.911 99.3974 641.911C98.5058 641.911 97.9568 642.698 97.9568 644.061C97.9568 645.424 98.5058 646.277 99.3974 646.277C100.289 646.277 100.838 645.424 100.838 644.061Z" fill="#839CA3"/>
<path d="M104.984 644.225V640.344H106.947V644.456C106.947 645.797 107.29 646.281 108.067 646.281C108.844 646.281 109.209 645.797 109.209 644.456V640.344H111.106V644.225C111.106 646.788 110.149 647.991 108.067 647.991C105.985 647.991 104.984 646.792 104.984 644.225Z" fill="#839CA3"/>
</g>
<g clip-path="url(#clip8_94_1061)">
<path d="M301.868 167.214C300.349 185.137 277.651 206.245 269.464 206.775C256.854 207.596 237.611 187.469 234.414 173.576C234.156 172.475 234.007 171.421 233.966 170.413C233.646 162.679 237.591 150.656 246.741 147.794C254.974 145.218 263.779 149.799 268.038 149.799C270.659 149.799 275.138 146.36 282.239 146.36C289.34 146.36 300.503 150.801 301.837 163.256C301.976 164.549 301.981 165.874 301.868 167.214Z" fill="#E4CFFA"/>
<path d="M297.29 191.048C293.032 196.777 277.126 215.111 267.945 215.36C258.759 215.609 243.62 196.777 239.074 191.624C235.129 187.142 234.341 175.477 234.249 172.714C237.452 186.612 256.859 207.621 269.464 206.801C277.656 206.266 300.349 185.153 301.868 167.224C302.192 173.68 301.44 185.475 297.29 191.048Z" fill="#C2B1D5"/>
<path d="M253.96 161.324H256.262V164.591H258.857V161.324H261.158V170.102H258.857V166.617H256.262V170.102H253.96V161.324Z" fill="#9F91AB"/>
<path d="M264.577 165.864V161.324H266.879V166.134C266.879 167.702 267.281 168.268 268.192 168.268C269.104 168.268 269.531 167.702 269.531 166.134V161.324H271.755V165.864C271.755 168.86 270.633 170.268 268.192 170.268C265.751 170.268 264.577 168.866 264.577 165.864Z" fill="#9F91AB"/>
<path d="M274.788 165.78C274.788 162.835 276.796 161.163 279.124 161.163C280.411 161.163 281.348 161.703 281.961 162.327L280.756 163.812C280.329 163.433 279.901 163.163 279.201 163.163C278.022 163.163 277.141 164.108 277.141 165.702C277.141 167.297 277.862 168.268 279.417 168.268C279.659 168.268 279.927 168.216 280.087 168.107V166.892H278.799V165.001H282.121V169.188C281.503 169.78 280.406 170.268 279.175 170.268C276.74 170.268 274.783 168.782 274.783 165.786L274.788 165.78Z" fill="#9F91AB"/>
<path d="M259.202 177.529H261.663L262.976 181.123C263.136 181.612 263.27 182.152 263.429 182.661H263.481C263.64 182.147 263.774 181.606 263.934 181.123L265.19 177.529H267.652V186.307H265.561V183.715C265.561 182.822 265.746 181.461 265.854 180.583H265.803L265.082 182.692L264.011 185.595H262.78L261.709 182.692L261.014 180.583H260.963C261.071 181.461 261.256 182.827 261.256 183.715V186.307H259.197V177.529H259.202Z" fill="#9F91AB"/>
<path d="M271.127 177.529H276.75V179.471H273.429V180.847H276.266V182.79H273.429V184.359H276.884V186.301H271.127V177.523V177.529Z" fill="#9F91AB"/>
</g>
<g clip-path="url(#clip9_94_1061)">
<path d="M346.848 542.077C342.408 559.509 316.555 576.605 308.391 575.784C295.817 574.524 280.139 551.513 279.264 537.283C279.191 536.155 279.217 535.091 279.341 534.09C280.296 526.409 286.16 515.195 295.655 513.874C304.2 512.684 312.134 518.648 316.335 519.346C318.92 519.777 323.903 517.12 330.908 518.285C337.912 519.45 348.195 525.663 347.467 538.168C347.392 539.466 347.18 540.774 346.848 542.077Z" fill="#E4CFFA"/>
<path d="M338.421 564.837C333.28 569.789 314.581 585.264 305.484 584.004C296.382 582.742 284.539 561.68 280.899 555.852C277.744 550.783 278.881 539.147 279.243 536.406C280.122 550.642 295.818 574.551 308.387 575.81C316.556 576.626 342.406 559.524 346.846 542.087C346.107 548.509 343.43 560.02 338.421 564.837Z" fill="#C2B1D5"/>
<path d="M300.556 528.406L302.827 528.784L302.291 532.007L304.851 532.432L305.387 529.21L307.657 529.588L306.217 538.246L303.946 537.868L304.518 534.431L301.958 534.005L301.386 537.443L299.116 537.065L300.556 528.406Z" fill="#9F91AB"/>
<path d="M310.285 534.626L311.03 530.148L313.3 530.526L312.511 535.27C312.254 536.818 312.557 537.442 313.456 537.592C314.355 537.741 314.87 537.253 315.127 535.706L315.916 530.961L318.11 531.326L317.366 535.804C316.874 538.76 315.535 539.965 313.128 539.564C310.72 539.164 309.792 537.588 310.285 534.626Z" fill="#9F91AB"/>
<path d="M320.371 536.22C320.854 533.315 323.11 531.994 325.405 532.376C326.675 532.588 327.511 533.274 328.013 533.99L326.581 535.257C326.222 534.813 325.844 534.477 325.154 534.362C323.99 534.168 322.967 534.956 322.705 536.529C322.443 538.102 322.995 539.178 324.529 539.433C324.768 539.473 325.04 539.466 325.216 539.384L325.415 538.186L324.145 537.974L324.456 536.109L327.732 536.654L327.045 540.784C326.338 541.267 325.176 541.568 323.962 541.366C321.56 540.967 319.873 539.18 320.365 536.224L320.371 536.22Z" fill="#9F91AB"/>
<path d="M303.068 545.251L305.496 545.655L306.201 549.416C306.278 549.923 306.322 550.478 306.396 551.007L306.447 551.015C306.688 550.534 306.909 550.023 307.146 549.573L308.975 546.234L311.403 546.638L309.962 555.296L307.9 554.953L308.326 552.396C308.472 551.515 308.878 550.203 309.129 549.355L309.078 549.347L308.021 551.309L306.488 553.997L305.274 553.795L304.694 550.755L304.354 548.561L304.304 548.552C304.266 549.436 304.225 550.814 304.079 551.69L303.654 554.247L301.622 553.909L303.063 545.25L303.068 545.251Z" fill="#9F91AB"/>
<path d="M314.832 547.208L320.378 548.131L320.059 550.047L316.783 549.502L316.557 550.86L319.356 551.325L319.037 553.242L316.239 552.776L315.981 554.323L319.389 554.89L319.071 556.806L313.392 555.862L314.832 547.203L314.832 547.208Z" fill="#9F91AB"/>
</g>
<path d="M564.769 637.049C555.628 662.947 514.628 683.077 502.583 679.805C484.037 674.774 464.009 635.306 464.76 613.059C464.814 611.294 465.006 609.652 465.337 608.134C467.872 596.476 478.241 580.556 492.582 580.838C505.486 581.091 516.444 592.269 522.602 594.38C526.392 595.68 534.202 592.789 544.47 596.31C554.739 599.831 569.161 611.97 566.265 631.151C565.965 633.143 565.459 635.115 564.776 637.051L564.769 637.049Z" fill="#FFD1DE"/>
<path d="M548.29 670.737C539.941 677.114 509.938 696.4 496.61 692.237C483.274 688.071 468.728 652.723 464.165 642.853C460.209 634.279 463.577 616.624 464.503 612.486C463.753 634.639 483.611 675.315 502.095 680.322C514.108 683.575 554.965 663.526 564.077 637.739C562.052 647.455 556.414 664.542 548.281 670.742L548.29 670.737Z" fill="#E0B8C3"/>
<path d="M494.627 607.507L497.991 608.659L495.314 618.92L500.13 620.57L499.369 623.486L491.189 620.685L494.627 607.507Z" fill="#B3929B"/>
<path d="M503.095 617.304C504.218 612.991 507.219 611.383 510.718 612.583C514.216 613.783 515.95 617.039 514.832 621.329C513.714 625.618 510.675 627.373 507.177 626.174C503.678 624.974 501.971 621.617 503.095 617.304ZM511.415 620.157C512.036 617.776 511.459 616.082 509.942 615.562C508.424 615.041 507.132 616.094 506.511 618.475C505.891 620.857 506.437 622.667 507.955 623.187C509.472 623.707 510.795 622.539 511.415 620.157Z" fill="#B3929B"/>
<path d="M518.13 615.149L521.665 616.362L521.496 622.539C521.486 624.047 521.364 625.484 521.348 627.016L521.422 627.041C522.141 625.75 522.747 624.488 523.44 623.205L526.216 617.923L529.639 619.096L522.495 630.924L518.452 629.537L518.137 615.152L518.13 615.149Z" fill="#B3929B"/>
<path d="M531.797 619.583L540.01 622.396L539.249 625.311L534.398 623.65L533.86 625.715L538.004 627.135L537.243 630.05L533.099 628.63L532.485 630.984L537.532 632.713L536.771 635.628L528.363 632.748L531.799 619.575L531.797 619.583Z" fill="#B3929B"/>
<path d="M492.345 643.123L490.771 633.215L494.347 634.441L494.566 637.509C494.623 638.603 494.693 639.616 494.754 640.761L494.828 640.787C495.426 639.867 495.992 639.072 496.586 638.202L498.237 635.775L501.737 636.975L495.682 644.267L494.505 648.784L491.161 647.638L492.338 643.12L492.345 643.123Z" fill="#B3929B"/>
<path d="M501.463 643.727C502.587 639.414 505.587 637.807 509.086 639.007C512.585 640.207 514.318 643.463 513.2 647.753C512.082 652.042 509.044 653.797 505.545 652.597C502.046 651.398 500.339 648.041 501.463 643.727ZM509.784 646.581C510.404 644.199 509.827 642.506 508.31 641.985C506.792 641.465 505.5 642.518 504.879 644.899C504.259 647.281 504.805 649.09 506.323 649.611C507.841 650.131 509.163 648.962 509.784 646.581Z" fill="#B3929B"/>
<path d="M516.402 648.908L518.172 642.116L521.52 643.264L519.645 650.46C519.033 652.806 519.397 653.854 520.722 654.308C522.048 654.763 522.89 654.129 523.502 651.782L525.377 644.587L528.613 645.696L526.843 652.488C525.675 656.971 523.493 658.517 519.943 657.3C516.392 656.083 515.231 653.399 516.402 648.908Z" fill="#B3929B"/>
<path d="M1474.29 65.1263C1467.69 105.158 1414.92 146.735 1397.2 145.75C1369.92 144.246 1332.26 93.7187 1327.96 61.5224C1327.61 58.9698 1327.48 56.5515 1327.58 54.2674C1328.33 36.7354 1339.07 10.6613 1359.29 6.64105C1377.49 3.0212 1395.58 15.6999 1404.75 16.8335C1410.39 17.5313 1420.67 10.967 1435.95 12.8574C1451.23 14.7477 1474.42 27.7379 1474.97 56.1909C1475.03 59.1455 1474.8 62.1348 1474.3 65.1277L1474.29 65.1263Z" fill="#FFD1DE"/>
<path d="M1459.48 118.187C1449.27 129.936 1411.71 166.935 1391.94 165.059C1372.17 163.183 1343.16 116.828 1334.36 104.039C1326.72 92.9272 1327.19 66.4929 1327.49 60.2551C1331.79 92.3509 1369.56 144.731 1396.78 146.23C1414.48 147.201 1467.13 105.756 1473.72 65.8518C1473.22 80.4516 1469.41 106.769 1459.46 118.197L1459.48 118.187Z" fill="#E0B8C3"/>
<path d="M1368.2 44.4883L1373.19 45.1048L1371.91 60.6262L1379.05 61.5089L1378.69 65.92L1366.56 64.4208L1368.2 44.4883Z" fill="#B3929B"/>
<path d="M1382.67 56.0013C1383.21 49.4661 1387.04 46.2345 1392.24 46.8778C1397.44 47.5211 1400.65 51.6593 1400.12 58.1593C1399.58 64.6593 1395.74 68.1141 1390.54 67.4709C1385.34 66.8276 1382.14 62.5365 1382.67 56.0013ZM1395.04 57.5311C1395.34 53.9227 1394.12 51.6704 1391.87 51.3914C1389.61 51.1123 1388.05 53.021 1387.75 56.6295C1387.45 60.238 1388.66 62.6665 1390.91 62.9456C1393.17 63.2246 1394.74 61.1396 1395.04 57.5311Z" fill="#B3929B"/>
<path d="M1403.52 48.3662L1408.77 49.0162L1410.02 57.9322C1410.37 60.1003 1410.55 62.1995 1410.89 64.4029L1411 64.4166C1411.7 62.3424 1412.25 60.3443 1412.91 58.2895L1415.54 49.8531L1420.63 50.4825L1413.44 69.6571L1407.44 68.9137L1403.53 48.3676L1403.52 48.3662Z" fill="#B3929B"/>
<path d="M1424.02 50.6163L1436.2 52.122L1435.84 56.532L1428.64 55.6426L1428.38 58.7673L1434.53 59.5271L1434.17 63.9371L1428.02 63.1773L1427.72 66.7383L1435.21 67.6635L1434.85 72.0735L1422.37 70.5319L1424.02 50.6045L1424.02 50.6163Z" fill="#B3929B"/>
<path d="M1373.8 95.8595L1369.2 82.1299L1374.51 82.7871L1375.56 87.1215C1375.9 88.6726 1376.25 90.1047 1376.61 91.7291L1376.72 91.7429C1377.34 90.2395 1377.94 88.9242 1378.56 87.4928L1380.29 83.5022L1385.5 84.1457L1378.75 96.4728L1378.19 103.316L1373.22 102.702L1373.78 95.8582L1373.8 95.8595Z" fill="#B3929B"/>
<path d="M1386.99 94.0072C1387.53 87.4719 1391.35 84.2404 1396.55 84.8837C1401.75 85.5269 1404.97 89.6652 1404.43 96.1652C1403.9 102.665 1400.05 106.12 1394.85 105.477C1389.65 104.833 1386.45 100.542 1386.99 94.0072ZM1399.36 95.537C1399.65 91.9285 1398.44 89.6762 1396.18 89.3972C1393.93 89.1182 1392.36 91.0268 1392.07 94.6353C1391.77 98.2438 1392.97 100.672 1395.23 100.951C1397.48 101.23 1399.06 99.1455 1399.36 95.537Z" fill="#B3929B"/>
<path d="M1409.49 96.9323L1410.34 86.6475L1415.31 87.2626L1414.42 98.1594C1414.12 101.713 1414.88 103.103 1416.85 103.347C1418.82 103.59 1419.85 102.422 1420.14 98.868L1421.04 87.9713L1425.85 88.5657L1425 98.8506C1424.44 105.641 1421.75 108.53 1416.48 107.877C1411.21 107.225 1408.93 103.734 1409.49 96.9323Z" fill="#B3929B"/>
<path d="M1068.29 455.282C1061.69 495.313 1008.92 536.89 991.202 535.905C963.924 534.401 926.262 483.874 921.955 451.678C921.606 449.125 921.481 446.707 921.58 444.423C922.332 426.891 933.069 400.817 953.291 396.796C971.489 393.176 989.584 405.855 998.747 406.989C1004.39 407.687 1014.67 401.122 1029.95 403.013C1045.23 404.903 1068.42 417.893 1068.97 446.346C1069.03 449.301 1068.8 452.29 1068.3 455.283L1068.29 455.282Z" fill="#FFD1DE"/>
<path d="M1053.48 508.342C1043.27 520.092 1005.71 557.09 985.945 555.215C966.172 553.338 937.162 506.983 928.355 494.194C920.717 483.083 921.192 456.648 921.495 450.41C925.791 482.506 963.564 534.886 990.784 536.385C1008.48 537.356 1061.13 495.911 1067.72 456.007C1067.22 470.607 1063.41 496.925 1053.46 508.353L1053.48 508.342Z" fill="#E0B8C3"/>
<path d="M962.203 434.644L967.192 435.26L965.91 450.781L973.055 451.664L972.69 456.075L960.556 454.576L962.203 434.644Z" fill="#B3929B"/>
<path d="M976.675 446.157C977.214 439.621 981.038 436.39 986.238 437.033C991.437 437.676 994.654 441.815 994.118 448.315C993.581 454.815 989.739 458.269 984.539 457.626C979.34 456.983 976.136 452.692 976.675 446.157ZM989.04 447.686C989.338 444.078 988.121 441.826 985.865 441.547C983.61 441.268 982.05 443.176 981.752 446.785C981.454 450.393 982.657 452.822 984.912 453.101C987.168 453.38 988.743 451.295 989.04 447.686Z" fill="#B3929B"/>
<path d="M997.52 438.521L1002.77 439.171L1004.02 448.087C1004.37 450.256 1004.55 452.355 1004.89 454.558L1005 454.572C1005.7 452.498 1006.25 450.5 1006.91 448.445L1009.54 440.008L1014.63 440.638L1007.44 459.812L1001.44 459.069L997.531 438.523L997.52 438.521Z" fill="#B3929B"/>
<path d="M1018.02 440.772L1030.2 442.277L1029.84 446.687L1022.64 445.798L1022.38 448.923L1028.53 449.682L1028.17 454.092L1022.02 453.333L1021.72 456.894L1029.21 457.819L1028.85 462.229L1016.37 460.687L1018.02 440.76L1018.02 440.772Z" fill="#B3929B"/>
<path d="M967.795 486.015L963.201 472.285L968.514 472.942L969.56 477.277C969.904 478.828 970.246 480.26 970.606 481.884L970.717 481.898C971.335 480.395 971.938 479.08 972.561 477.648L974.294 473.657L979.496 474.301L972.752 486.628L972.188 493.472L967.22 492.857L967.784 486.013L967.795 486.015Z" fill="#B3929B"/>
<path d="M980.99 484.162C981.529 477.627 985.353 474.396 990.553 475.039C995.752 475.682 998.969 479.82 998.432 486.32C997.896 492.82 994.053 496.275 988.854 495.632C983.654 494.989 980.451 490.698 980.99 484.162ZM993.355 485.692C993.653 482.084 992.436 479.832 990.18 479.552C987.925 479.273 986.365 481.182 986.067 484.791C985.769 488.399 986.972 490.828 989.227 491.107C991.483 491.386 993.058 489.301 993.355 485.692Z" fill="#B3929B"/>
<path d="M1003.49 487.088L1004.34 476.803L1009.31 477.418L1008.42 488.315C1008.12 491.868 1008.88 493.258 1010.85 493.502C1012.82 493.746 1013.85 492.577 1014.14 489.023L1015.04 478.127L1019.85 478.721L1019 489.006C1018.44 495.796 1015.75 498.685 1010.48 498.033C1005.21 497.38 1002.93 493.889 1003.49 487.088Z" fill="#B3929B"/>
<path d="M629.361 215.47C617.607 249.579 563.979 276.46 548.138 272.294C523.747 265.889 497.084 214.277 497.86 185.054C497.915 182.736 498.152 180.578 498.572 178.58C501.789 163.243 515.25 142.225 534.076 142.439C551.017 142.631 565.507 157.19 573.61 159.897C578.597 161.562 588.821 157.681 602.333 162.193C615.844 166.706 634.89 182.49 631.269 207.71C630.894 210.329 630.249 212.924 629.371 215.474L629.361 215.47Z" fill="#E4CFFA"/>
<path d="M608.045 259.885C597.146 268.35 557.945 294.001 540.411 288.679C522.867 283.354 503.439 237.094 497.356 224.182C492.082 212.966 496.338 189.746 497.514 184.302C496.738 213.4 523.188 266.599 547.498 272.974C563.298 277.114 616.738 250.344 628.455 216.382C625.889 229.163 618.65 251.662 608.032 259.892L608.045 259.885Z" fill="#C2B1D5"/>
<path d="M539.856 172.693L544.256 174.163L542.632 180.587L542.731 180.62L548.547 175.596L553.361 177.204L546.629 182.554L549.973 194.791L545.16 193.183L543.156 185.315L540.981 187.124L539.894 191.424L535.494 189.955L539.856 172.693Z" fill="#9F91AB"/>
<path d="M558.522 178.548L563.045 180.038L558.561 197.541L554.038 196.051L558.522 178.548Z" fill="#9F91AB"/>
<path d="M564.342 196.782L567.654 194.478C568.591 195.857 569.896 197.048 571.13 197.46C572.463 197.905 573.139 197.642 573.336 196.864C573.546 196.034 572.764 195.485 571.5 194.429L569.644 192.833C568.036 191.485 566.862 189.395 567.497 186.886C568.245 183.926 571.423 182.366 575.067 183.583C576.962 184.215 578.886 185.668 580.03 187.749L577.091 189.889C576.175 188.683 575.304 187.937 574.07 187.525C572.994 187.166 572.221 187.341 572.027 188.109C571.817 188.939 572.693 189.542 574.058 190.664L575.872 192.169C577.741 193.714 578.538 195.602 577.932 197.998C577.191 200.927 574.171 202.75 570.015 201.363C567.911 200.661 565.694 199.054 564.322 196.775L564.342 196.782Z" fill="#9F91AB"/>
<path d="M580.792 201.975L584.104 199.672C585.04 201.05 586.345 202.241 587.58 202.653C588.913 203.098 589.589 202.835 589.786 202.057C589.996 201.228 589.214 200.678 587.95 199.623L586.094 198.026C584.486 196.679 583.312 194.588 583.947 192.079C584.695 189.12 587.873 187.56 591.516 188.776C593.412 189.409 595.336 190.862 596.48 192.943L593.541 195.082C592.625 193.877 591.754 193.131 590.52 192.719C589.443 192.359 588.671 192.535 588.477 193.303C588.267 194.132 589.143 194.735 590.508 195.857L592.322 197.362C594.191 198.908 594.988 200.795 594.382 203.191C593.641 206.12 590.621 207.944 586.464 206.556C584.361 205.854 582.144 204.248 580.772 201.969L580.792 201.975Z" fill="#9F91AB"/>
<path d="M543.003 208.999L547.699 210.568L548.421 218.459C548.484 219.519 548.471 220.664 548.523 221.765L548.621 221.798C549.181 220.89 549.704 219.915 550.248 219.069L554.428 212.815L559.123 214.384L554.77 231.612L550.782 230.28L552.067 225.193C552.51 223.439 553.539 220.887 554.18 219.233L554.082 219.2L551.661 222.879L548.178 227.896L545.83 227.111L545.227 220.73L544.946 216.149L544.848 216.116C544.619 217.907 544.295 220.707 543.855 222.45L542.57 227.537L538.64 226.224L542.993 208.996L543.003 208.999Z" fill="#9F91AB"/>
<path d="M565.276 216.021L576.084 219.626L575.113 223.463L568.73 221.333L568.042 224.052L573.495 225.871L572.525 229.707L567.071 227.888L566.288 230.986L572.929 233.201L571.958 237.038L560.893 233.347L565.279 216.011L565.276 216.021Z" fill="#9F91AB"/>
<path d="M475.706 175.373C471.417 229.897 407.334 294.106 384.219 295.718C348.631 298.214 294.303 236.991 285.26 194.728C284.533 191.378 284.112 188.171 283.995 185.106C283.094 161.58 294.245 125.005 320.078 116.299C343.324 108.463 368.184 122.398 380.207 122.398C387.606 122.398 400.254 111.938 420.302 111.938C440.35 111.938 471.868 125.447 475.633 163.334C476.025 167.268 476.04 171.297 475.72 175.373H475.706Z" fill="#F6E7CA"/>
<path d="M462.781 247.876C450.759 265.303 405.851 321.075 379.931 321.834C353.995 322.592 311.254 265.303 298.417 249.63C287.281 236.011 285.057 200.525 284.781 192.12C293.823 234.399 348.616 298.308 384.205 295.812C407.334 294.184 471.402 229.96 475.691 175.42C476.607 195.059 474.484 230.939 462.767 247.892L462.781 247.876Z" fill="#DDCCAE"/>
<path d="M334.98 163.366H328.481V157.457H347.991V163.366H341.493V184.158H334.994V163.366H334.98Z" fill="#B1A28B"/>
<path d="M355.958 157.457H365.262C370.554 157.457 375.089 159.432 375.089 166.084C375.089 172.735 370.554 175.2 365.262 175.2H362.471V184.158H355.972V157.457H355.958ZM364.797 169.623C367.37 169.623 368.722 168.39 368.722 166.084C368.722 163.777 367.355 163.05 364.797 163.05H362.456V169.623H364.797ZM364.084 173.367L368.475 168.69L376.456 184.174H369.202L364.099 173.367H364.084Z" fill="#B1A28B"/>
<path d="M383.972 171.266V157.457H390.47V172.087C390.47 176.859 391.604 178.581 394.178 178.581C396.751 178.581 397.957 176.859 397.957 172.087V157.457H404.238V171.266C404.238 180.382 401.068 184.664 394.178 184.664C387.287 184.664 383.972 180.398 383.972 171.266Z" fill="#B1A28B"/>
<path d="M413.862 157.457H429.737V163.366H420.36V167.553H428.37V173.462H420.36V178.234H430.115V184.143H413.862V157.441V157.457Z" fill="#B1A28B"/>
<path d="M332.784 206.752H339.283V227.544H348.587V233.453H332.784V206.752Z" fill="#B1A28B"/>
<path d="M354.591 219.977C354.591 211.192 359.2 206.263 366.003 206.263C372.807 206.263 377.415 211.24 377.415 219.977C377.415 228.714 372.807 233.943 366.003 233.943C359.2 233.943 354.591 228.761 354.591 219.977ZM370.772 219.977C370.772 215.126 368.954 212.33 366.003 212.33C363.052 212.33 361.235 215.126 361.235 219.977C361.235 224.827 363.052 227.861 366.003 227.861C368.954 227.861 370.772 224.827 370.772 219.977Z" fill="#B1A28B"/>
<path d="M382.678 206.752H389.555L392.128 218.412C392.811 221.24 393.262 224.005 393.945 226.88H394.09C394.774 224.005 395.268 221.256 395.908 218.412L398.408 206.752H405.066L397.812 233.453H389.947L382.693 206.752H382.678Z" fill="#B1A28B"/>
<path d="M411.376 206.752H427.251V212.661H417.874V216.848H425.885V222.757H417.874V227.528H427.629V233.437H411.376V206.736V206.752Z" fill="#B1A28B"/>
<path d="M478.907 488.466C477.007 512.623 448.614 541.072 438.373 541.786C422.605 542.892 398.534 515.766 394.528 497.041C394.206 495.557 394.019 494.136 393.967 492.778C393.568 482.355 398.508 466.149 409.954 462.292C420.254 458.82 431.268 464.994 436.595 464.994C439.873 464.994 445.477 460.36 454.36 460.36C463.242 460.36 477.206 466.345 478.875 483.132C479.049 484.875 479.055 486.66 478.913 488.466H478.907Z" fill="#F6E7CA"/>
<path d="M473.181 520.589C467.854 528.31 447.957 553.021 436.473 553.357C424.982 553.693 406.045 528.31 400.357 521.366C395.423 515.332 394.438 499.61 394.315 495.885C398.322 514.618 422.598 542.933 438.366 541.827C448.614 541.106 477 512.651 478.9 488.486C479.306 497.188 478.366 513.085 473.174 520.596L473.181 520.589Z" fill="#DDCCAE"/>
<path d="M416.557 483.145H413.677V480.527H422.321V483.145H419.442V492.358H416.563V483.145H416.557Z" fill="#B1A28B"/>
<path d="M425.851 480.527H429.973C432.318 480.527 434.328 481.402 434.328 484.349C434.328 487.296 432.318 488.389 429.973 488.389H428.737V492.358H425.858V480.527H425.851ZM429.767 485.917C430.907 485.917 431.506 485.371 431.506 484.349C431.506 483.327 430.901 483.005 429.767 483.005H428.73V485.917H429.767ZM429.452 487.576L431.397 485.504L434.933 492.365H431.719L429.458 487.576H429.452Z" fill="#B1A28B"/>
<path d="M438.263 486.645V480.527H441.142V487.009C441.142 489.124 441.645 489.887 442.785 489.887C443.925 489.887 444.46 489.124 444.46 487.009V480.527H447.242V486.645C447.242 490.685 445.838 492.582 442.785 492.582C439.732 492.582 438.263 490.692 438.263 486.645Z" fill="#B1A28B"/>
<path d="M451.506 480.528H458.54V483.146H454.385V485.001H457.934V487.619H454.385V489.733H458.707V492.351H451.506V480.521V480.528Z" fill="#B1A28B"/>
<path d="M415.584 502.368H418.463V511.58H422.585V514.198H415.584V502.368Z" fill="#B1A28B"/>
<path d="M425.246 508.227C425.246 504.335 427.287 502.151 430.302 502.151C433.316 502.151 435.358 504.356 435.358 508.227C435.358 512.099 433.316 514.416 430.302 514.416C427.287 514.416 425.246 512.12 425.246 508.227ZM432.415 508.227C432.415 506.078 431.609 504.839 430.302 504.839C428.994 504.839 428.189 506.078 428.189 508.227C428.189 510.377 428.994 511.721 430.302 511.721C431.609 511.721 432.415 510.377 432.415 508.227Z" fill="#B1A28B"/>
<path d="M437.69 502.368H440.737L441.877 507.534C442.179 508.787 442.379 510.012 442.682 511.286H442.746C443.049 510.012 443.268 508.794 443.551 507.534L444.659 502.368H447.609L444.395 514.198H440.911L437.696 502.368H437.69Z" fill="#B1A28B"/>
<path d="M450.405 502.368H457.439V504.986H453.284V506.841H456.833V509.459H453.284V511.574H457.606V514.192H450.405V502.361V502.368Z" fill="#B1A28B"/>
<path d="M1471.78 164.994C1476.3 235.07 1404.06 333.796 1373.98 342.177C1327.68 355.1 1244.87 292.648 1225.11 241.724C1223.53 237.691 1222.38 233.753 1221.65 229.912C1216.08 200.432 1223.92 151.153 1256.24 133.061C1285.33 116.778 1320.6 127.564 1336.4 124.264C1346.12 122.233 1360.79 105.545 1387.14 100.042C1413.49 94.5395 1457.42 102.959 1469.44 149.801C1470.68 154.664 1471.45 159.751 1471.79 164.99L1471.78 164.994Z" fill="#F6E7CA"/>
<path d="M1468.98 261.578C1456.47 286.786 1407.99 369.217 1374.17 377.254C1340.33 385.294 1273.68 324.905 1253.94 308.696C1236.82 294.606 1227.31 250.574 1225.38 240.076C1245.09 290.792 1328.77 356.216 1374.93 343.351C1404.94 334.984 1476.95 236.684 1472.43 166.902C1477.28 191.357 1481.17 237.074 1468.97 261.602L1468.98 261.578Z" fill="#DDCCAE"/>
<path d="M1284.72 186.27L1276.13 188.062L1275.02 180.55L1300.81 175.168L1301.92 182.68L1293.33 184.473L1297.23 210.907L1288.64 212.7L1284.74 186.266L1284.72 186.27Z" fill="#B1A28B"/>
<path d="M1310.54 173.799L1322.83 171.234C1329.82 169.775 1336.18 171.034 1337.42 179.484C1338.67 187.935 1333.14 192.317 1326.16 193.775L1322.47 194.545L1324.15 205.926L1315.57 207.717L1310.56 173.795L1310.54 173.799ZM1324.5 186.818C1327.89 186.109 1329.45 184.17 1329.02 181.24C1328.58 178.309 1326.64 177.763 1323.26 178.468L1320.17 179.113L1321.4 187.463L1324.5 186.818ZM1324.26 191.772L1329.18 184.62L1342.62 202.091L1333.04 204.091L1324.28 191.768L1324.26 191.772Z" fill="#B1A28B"/>
<path d="M1349.35 184.437L1346.76 166.886L1355.34 165.094L1358.09 183.689C1358.98 189.753 1360.8 191.63 1364.2 190.92C1367.6 190.21 1368.88 187.689 1367.98 181.624L1365.23 163.029L1373.53 161.297L1376.12 178.848C1377.83 190.435 1374.45 196.751 1365.35 198.651C1356.24 200.552 1351.06 196.044 1349.35 184.437Z" fill="#B1A28B"/>
<path d="M1385.4 159.409L1406.45 155.019L1407.57 162.55L1395.13 165.143L1395.92 170.479L1406.54 168.264L1407.65 175.795L1397.03 178.01L1397.93 184.092L1410.87 181.394L1411.98 188.925L1390.42 193.42L1385.39 159.389L1385.4 159.409Z" fill="#B1A28B"/>
<path d="M1290.88 243.116L1299.5 241.318L1303.42 267.828L1315.77 265.254L1316.88 272.788L1295.91 277.159L1290.88 243.116Z" fill="#B1A28B"/>
<path d="M1321.54 254.693C1319.89 243.545 1325.04 236.02 1334.02 234.147C1342.99 232.273 1350 237.32 1351.64 248.408C1353.27 259.496 1348.17 267.401 1339.2 269.275C1330.23 271.148 1323.18 265.84 1321.54 254.693ZM1342.87 250.237C1341.97 244.082 1339.05 241.033 1335.15 241.846C1331.26 242.659 1329.39 246.708 1330.3 252.863C1331.21 259.019 1334.17 262.368 1338.06 261.555C1341.95 260.743 1343.78 256.393 1342.87 250.237Z" fill="#B1A28B"/>
<path d="M1355.38 230.979L1364.44 229.086L1370.02 243.17C1371.45 246.57 1372.56 249.954 1374 253.414L1374.19 253.374C1374.56 249.538 1374.69 245.914 1375 242.13L1376.12 226.648L1384.9 224.815L1380.33 260.688L1369.96 262.853L1355.4 230.975L1355.38 230.979Z" fill="#B1A28B"/>
<path d="M1392.48 223.747L1413.53 219.357L1414.65 226.888L1402.21 229.481L1403 234.817L1413.62 232.602L1414.73 240.133L1404.11 242.348L1405.01 248.429L1417.95 245.732L1419.06 253.263L1397.5 257.758L1392.47 223.727L1392.48 223.747Z" fill="#B1A28B"/>
<path d="M963.009 276.684C960.1 313.666 916.635 357.216 900.957 358.309C876.819 360.003 839.97 318.477 833.837 289.812C833.344 287.54 833.058 285.365 832.979 283.286C832.368 267.329 839.931 242.521 857.453 236.617C873.22 231.302 890.081 240.753 898.235 240.753C903.254 240.753 911.833 233.659 925.43 233.659C939.028 233.659 960.405 242.821 962.959 268.519C963.225 271.187 963.235 273.92 963.018 276.684H963.009Z" fill="#F6E7CA"/>
<path d="M954.243 325.86C946.088 337.68 915.629 375.508 898.048 376.022C880.457 376.537 851.468 337.68 842.761 327.05C835.208 317.812 833.699 293.744 833.512 288.043C839.645 316.719 876.809 360.066 900.947 358.373C916.635 357.269 960.09 313.708 962.999 276.716C963.62 290.036 962.18 314.372 954.233 325.871L954.243 325.86Z" fill="#DDCCAE"/>
<path d="M867.56 268.54H863.152V264.532H876.385V268.54H871.977V282.642H867.57V268.54H867.56Z" fill="#B1A28B"/>
<path d="M881.788 264.532H888.099C891.688 264.532 894.765 265.872 894.765 270.383C894.765 274.895 891.688 276.566 888.099 276.566H886.206V282.642H881.798V264.532H881.788ZM887.783 272.784C889.529 272.784 890.446 271.948 890.446 270.383C890.446 268.819 889.519 268.326 887.783 268.326H886.196V272.784H887.783ZM887.3 275.323L890.278 272.151L895.691 282.653H890.771L887.31 275.323H887.3Z" fill="#B1A28B"/>
<path d="M900.789 273.898V264.532H905.197V274.455C905.197 277.692 905.966 278.86 907.711 278.86C909.457 278.86 910.275 277.692 910.275 274.455V264.532H914.535V273.898C914.535 280.081 912.385 282.985 907.711 282.985C903.037 282.985 900.789 280.092 900.789 273.898Z" fill="#B1A28B"/>
<path d="M921.062 264.532H931.83V268.54H925.47V271.38H930.903V275.388H925.47V278.624H932.086V282.632H921.062V264.521V264.532Z" fill="#B1A28B"/>
<path d="M866.071 297.966H870.478V312.068H876.789V316.076H866.071V297.966Z" fill="#B1A28B"/>
<path d="M880.861 306.936C880.861 300.978 883.987 297.635 888.602 297.635C893.217 297.635 896.342 301.01 896.342 306.936C896.342 312.862 893.217 316.409 888.602 316.409C883.987 316.409 880.861 312.895 880.861 306.936ZM891.836 306.936C891.836 303.647 890.604 301.75 888.602 301.75C886.6 301.75 885.368 303.647 885.368 306.936C885.368 310.226 886.6 312.284 888.602 312.284C890.604 312.284 891.836 310.226 891.836 306.936Z" fill="#B1A28B"/>
<path d="M899.912 297.966H904.576L906.321 305.874C906.784 307.793 907.09 309.668 907.554 311.618H907.652C908.116 309.668 908.451 307.803 908.885 305.874L910.581 297.966H915.097L910.176 316.076H904.842L899.922 297.966H899.912Z" fill="#B1A28B"/>
<path d="M919.376 297.967H930.144V301.975H923.784V304.814H929.217V308.822H923.784V312.059H930.4V316.066H919.376V297.956V297.967Z" fill="#B1A28B"/>
<path d="M856.395 527.384C854.685 549.122 829.137 574.72 819.922 575.363C805.733 576.358 784.074 551.95 780.469 535.101C780.18 533.765 780.011 532.486 779.965 531.265C779.606 521.886 784.051 507.304 794.35 503.833C803.618 500.709 813.529 506.265 818.322 506.265C821.272 506.265 826.314 502.095 834.307 502.095C842.299 502.095 854.865 507.48 856.366 522.585C856.522 524.153 856.528 525.759 856.401 527.384H856.395Z" fill="#F6E7CA"/>
<path d="M851.242 556.289C846.449 563.236 828.546 585.471 818.212 585.773C807.872 586.076 790.832 563.236 785.715 556.988C781.275 551.558 780.388 537.411 780.278 534.06C783.883 550.916 805.728 576.395 819.916 575.399C829.137 574.751 854.679 549.146 856.389 527.402C856.754 535.232 855.908 549.536 851.236 556.295L851.242 556.289Z" fill="#DDCCAE"/>
<path d="M800.291 522.595H797.7V520.239H805.478V522.595H802.888V530.884H800.297V522.595H800.291Z" fill="#B1A28B"/>
<path d="M808.654 520.239H812.364C814.473 520.239 816.282 521.027 816.282 523.678C816.282 526.33 814.473 527.313 812.364 527.313H811.251V530.884H808.66V520.239H808.654ZM812.178 525.089C813.204 525.089 813.743 524.598 813.743 523.678C813.743 522.759 813.198 522.469 812.178 522.469H811.245V525.089H812.178ZM811.894 526.582L813.645 524.718L816.827 530.891H813.934L811.9 526.582H811.894Z" fill="#B1A28B"/>
<path d="M819.823 525.744V520.239H822.414V526.072C822.414 527.974 822.866 528.661 823.892 528.661C824.918 528.661 825.399 527.974 825.399 526.072V520.239H827.902V525.744C827.902 529.379 826.639 531.086 823.892 531.086C821.144 531.086 819.823 529.385 819.823 525.744Z" fill="#B1A28B"/>
<path d="M831.739 520.239H838.068V522.594H834.33V524.264H837.523V526.619H834.33V528.522H838.219V530.877H831.739V520.232V520.239Z" fill="#B1A28B"/>
<path d="M799.416 539.891H802.007V548.18H805.716V550.536H799.416V539.891Z" fill="#B1A28B"/>
<path d="M808.11 545.164C808.11 541.662 809.947 539.696 812.659 539.696C815.372 539.696 817.209 541.68 817.209 545.164C817.209 548.647 815.372 550.732 812.659 550.732C809.947 550.732 808.11 548.666 808.11 545.164ZM814.56 545.164C814.56 543.23 813.836 542.115 812.659 542.115C811.483 542.115 810.758 543.23 810.758 545.164C810.758 547.097 811.483 548.307 812.659 548.307C813.836 548.307 814.56 547.097 814.56 545.164Z" fill="#B1A28B"/>
<path d="M819.307 539.891H822.049L823.074 544.539C823.347 545.667 823.527 546.769 823.799 547.915H823.857C824.129 546.769 824.326 545.673 824.581 544.539L825.578 539.891H828.233L825.341 550.536H822.205L819.313 539.891H819.307Z" fill="#B1A28B"/>
<path d="M830.748 539.89H837.077V542.246H833.339V543.915H836.532V546.271H833.339V548.173H837.228V550.529H830.748V539.884V539.89Z" fill="#B1A28B"/>
<path d="M374.678 293.494C369.898 354.266 298.473 425.832 272.709 427.628C233.042 430.411 172.49 362.173 162.411 315.066C161.601 311.333 161.131 307.758 161.001 304.342C159.997 278.121 172.425 237.354 201.219 227.651C227.128 218.917 254.836 234.449 268.237 234.449C276.484 234.449 290.581 222.791 312.926 222.791C335.271 222.791 370.4 237.847 374.597 280.076C375.035 284.461 375.051 288.951 374.694 293.494H374.678Z" fill="#BDE5DD"/>
<path d="M360.273 374.306C346.873 393.729 296.82 455.892 267.929 456.737C239.022 457.582 191.383 393.729 177.075 376.26C164.663 361.081 162.184 321.529 161.876 312.16C171.955 359.284 233.026 430.516 272.693 427.734C298.473 425.92 369.882 354.336 374.662 293.547C375.683 315.436 373.317 355.428 360.257 374.323L360.273 374.306Z" fill="#A6C3BF"/>
<path d="M243.866 270.002H253.718C259.454 270.002 264.089 271.552 264.089 277.416C264.089 279.987 262.744 282.91 260.637 283.826V284.002C263.246 284.829 265.352 287.031 265.352 290.958C265.352 297.086 260.459 299.745 254.561 299.745H243.866V269.984V270.002ZM253.556 281.624C255.922 281.624 257.008 280.427 257.008 278.596C257.008 276.764 255.906 276.025 253.556 276.025H251.109V281.607H253.556V281.624ZM254.058 293.705C256.927 293.705 258.271 292.613 258.271 290.412C258.271 288.211 256.927 287.383 254.058 287.383H251.109V293.705H254.058Z" fill="#8CABA6"/>
<path d="M274.491 270.002H292.186V276.588H281.734V281.255H290.662V287.841H281.734V293.159H292.607V299.745H274.491V269.984V270.002Z" fill="#8CABA6"/>
<path d="M214.749 324.944H222.494L226.626 337.13C227.128 338.786 227.549 340.617 228.052 342.343H228.214C228.716 340.599 229.137 338.768 229.64 337.13L233.593 324.944H241.339V354.705H234.76V345.918C234.76 342.889 235.343 338.275 235.684 335.299H235.522L233.253 342.448L229.883 352.292H226.01L222.64 342.448L220.452 335.299H220.29C220.63 338.275 221.214 342.906 221.214 345.918V354.705H214.732V324.944H214.749Z" fill="#8CABA6"/>
<path d="M252.292 324.944H259.535V354.705H252.292V324.944Z" fill="#8CABA6"/>
<path d="M270.44 324.944H277.862L283.922 338.222L286.531 344.914H286.693C286.352 341.709 285.769 337.218 285.769 333.556V324.944H292.672V354.705H285.25L279.19 341.374L276.582 334.735H276.419C276.76 338.117 277.343 342.431 277.343 346.094V354.705H270.44V324.944Z" fill="#8CABA6"/>
<path d="M303.609 324.945H321.303V331.531H310.852V336.198H319.78V342.784H310.852V348.102H321.725V354.688H303.609V324.928V324.945Z" fill="#8CABA6"/>
<path d="M930.859 657.479C929.318 677.073 906.288 700.148 897.981 700.727C885.191 701.624 865.667 679.622 862.418 664.434C862.156 663.23 862.005 662.078 861.963 660.976C861.639 652.522 865.646 639.377 874.93 636.249C883.284 633.432 892.218 638.44 896.539 638.44C899.198 638.44 903.744 634.682 910.948 634.682C918.153 634.682 929.48 639.536 930.833 653.152C930.974 654.566 930.979 656.014 930.864 657.479H930.859Z" fill="#BDE5DD"/>
<path d="M926.214 683.534C921.894 689.797 905.755 709.84 896.44 710.113C887.119 710.385 871.759 689.797 867.146 684.164C863.144 679.27 862.345 666.517 862.245 663.497C865.495 678.691 885.186 701.658 897.976 700.761C906.288 700.176 929.313 677.095 930.854 657.495C931.183 664.553 930.42 677.447 926.209 683.54L926.214 683.534Z" fill="#A6C3BF"/>
<path d="M888.681 649.904H891.858C893.707 649.904 895.202 650.404 895.202 652.295C895.202 653.124 894.768 654.066 894.089 654.361V654.418C894.93 654.685 895.609 655.395 895.609 656.661C895.609 658.637 894.031 659.494 892.13 659.494H888.681V649.898V649.904ZM891.806 653.652C892.568 653.652 892.918 653.265 892.918 652.675C892.918 652.084 892.563 651.846 891.806 651.846H891.017V653.646H891.806V653.652ZM891.968 657.547C892.892 657.547 893.326 657.195 893.326 656.485C893.326 655.775 892.892 655.508 891.968 655.508H891.017V657.547H891.968Z" fill="#8CABA6"/>
<path d="M898.556 649.904H904.261V652.028H900.891V653.532H903.77V655.656H900.891V657.371H904.397V659.494H898.556V649.898V649.904Z" fill="#8CABA6"/>
<path d="M879.293 667.619H881.79L883.122 671.548C883.284 672.082 883.42 672.673 883.582 673.229H883.634C883.796 672.667 883.932 672.076 884.094 671.548L885.369 667.619H887.866V677.215H885.745V674.382C885.745 673.405 885.933 671.917 886.043 670.958H885.991L885.259 673.263L884.173 676.437H882.924L881.837 673.263L881.132 670.958H881.08C881.189 671.917 881.377 673.411 881.377 674.382V677.215H879.288V667.619H879.293Z" fill="#8CABA6"/>
<path d="M891.398 667.619H893.733V677.215H891.398V667.619Z" fill="#8CABA6"/>
<path d="M897.25 667.619H899.642L901.596 671.9L902.438 674.058H902.49C902.38 673.025 902.192 671.577 902.192 670.396V667.619H904.418V677.215H902.025L900.071 672.917L899.23 670.776H899.177C899.287 671.866 899.475 673.257 899.475 674.438V677.215H897.25V667.619Z" fill="#8CABA6"/>
<path d="M907.944 667.62H913.649V669.743H910.28V671.248H913.158V673.372H910.28V675.086H913.785V677.21H907.944V667.614V667.62Z" fill="#8CABA6"/>
<path d="M1122.68 202.204C1117.9 262.976 1046.47 334.542 1020.71 336.338C981.042 339.121 920.49 270.883 910.411 223.776C909.601 220.043 909.131 216.468 909.001 213.052C907.997 186.831 920.425 146.064 949.219 136.361C975.128 127.627 1002.84 143.159 1016.24 143.159C1024.48 143.159 1038.58 131.501 1060.93 131.501C1083.27 131.501 1118.4 146.557 1122.6 188.786C1123.03 193.171 1123.05 197.661 1122.69 202.204H1122.68Z" fill="#BDE5DD"/>
<path d="M1108.27 283.015C1094.87 302.439 1044.82 364.602 1015.93 365.447C987.022 366.292 939.383 302.439 925.075 284.97C912.663 269.79 910.184 230.239 909.876 220.87C919.955 267.994 981.026 339.226 1020.69 336.444C1046.47 334.63 1117.88 263.046 1122.66 202.257C1123.68 224.146 1121.32 264.138 1108.26 283.033L1108.27 283.015Z" fill="#A6C3BF"/>
<path d="M991.866 178.712H1001.72C1007.45 178.712 1012.09 180.262 1012.09 186.126C1012.09 188.697 1010.74 191.62 1008.64 192.536V192.712C1011.25 193.539 1013.35 195.741 1013.35 199.668C1013.35 205.796 1008.46 208.455 1002.56 208.455H991.866V178.694V178.712ZM1001.56 190.334C1003.92 190.334 1005.01 189.137 1005.01 187.306C1005.01 185.474 1003.91 184.734 1001.56 184.734H999.109V190.317H1001.56V190.334ZM1002.06 202.415C1004.93 202.415 1006.27 201.323 1006.27 199.122C1006.27 196.92 1004.93 196.093 1002.06 196.093H999.109V202.415H1002.06Z" fill="#8CABA6"/>
<path d="M1022.49 178.712H1040.19V185.298H1029.73V189.965H1038.66V196.551H1029.73V201.869H1040.61V208.455H1022.49V178.694V178.712Z" fill="#8CABA6"/>
<path d="M962.749 233.654H970.494L974.626 245.84C975.128 247.496 975.549 249.327 976.052 251.053H976.214C976.716 249.309 977.137 247.478 977.64 245.84L981.593 233.654H989.339V263.415H982.76V254.628C982.76 251.599 983.343 246.985 983.684 244.009H983.522L981.253 251.158L977.883 261.002H974.01L970.64 251.158L968.452 244.009H968.29C968.63 246.985 969.214 251.616 969.214 254.628V263.415H962.732V233.654H962.749Z" fill="#8CABA6"/>
<path d="M1000.29 233.654H1007.54V263.415H1000.29V233.654Z" fill="#8CABA6"/>
<path d="M1018.44 233.654H1025.86L1031.92 246.932L1034.53 253.624H1034.69C1034.35 250.419 1033.77 245.928 1033.77 242.265V233.654H1040.67V263.415H1033.25L1027.19 250.084L1024.58 243.445H1024.42C1024.76 246.826 1025.34 251.141 1025.34 254.804V263.415H1018.44V233.654Z" fill="#8CABA6"/>
<path d="M1051.61 233.655H1069.3V240.241H1058.85V244.908H1067.78V251.494H1058.85V256.812H1069.72V263.398H1051.61V233.638V233.655Z" fill="#8CABA6"/>
<path d="M229.774 170.117C231.899 248.162 148.184 353.801 114.672 361.455C63.0784 373.26 -25.6875 299.382 -45.3966 241.762C-46.9736 237.198 -48.0828 232.764 -48.7242 228.46C-53.6602 195.426 -43.002 141.147 -6.61096 122.837C26.1344 106.356 64.5863 120.266 82.1457 117.47C92.9531 115.748 109.816 98.0267 139.096 93.3638C168.376 88.7009 216.487 100.459 227.815 153.121C228.994 158.589 229.635 164.279 229.795 170.114L229.774 170.117Z" fill="#C3E5F1"/>
<path d="M222.67 276.904C207.829 304.216 150.965 393.114 113.319 400.186C75.6511 407.262 4.5917 336.533 -16.515 317.448C-34.8285 300.86 -43.5149 251.432 -45.2072 239.666C-25.5451 297.076 64.0879 374.33 115.552 362.572C148.999 354.924 232.48 249.691 230.357 171.936C234.706 199.364 237.12 250.355 222.651 276.93L222.67 276.904Z" fill="#ACC8D4"/>
<path d="M22.4123 207.499L8.83832 184.385L19.023 182.764L22.5514 190.278C23.7566 192.983 24.9161 195.467 26.1786 198.3L26.3916 198.266C27.0041 195.135 27.6557 192.363 28.3042 189.363L30.1025 181.002L40.0741 179.415L31.9151 205.987L33.3373 219.037L23.8132 220.552L22.391 207.502L22.4123 207.499Z" fill="#839CA3"/>
<path d="M46.4367 198.082C45.0787 185.621 51.0676 177.555 61.0344 175.969C71.0012 174.383 78.5216 180.369 79.8722 192.763C81.2229 205.156 75.2803 213.649 65.3136 215.234C55.3468 216.82 47.7947 210.543 46.4367 198.082ZM70.1397 194.311C69.3899 187.431 66.2955 183.887 61.9723 184.575C57.6491 185.263 55.4194 189.653 56.1692 196.534C56.919 203.414 60.05 207.294 64.3732 206.606C68.6964 205.918 70.8895 201.191 70.1397 194.311Z" fill="#839CA3"/>
<path d="M89.6229 192.72L87.4849 173.105L97.0192 171.589L99.2843 192.37C100.023 199.147 101.953 201.329 105.729 200.728C109.504 200.128 111.008 197.4 110.269 190.623L108.004 169.842L117.218 168.376L119.356 187.99C120.768 200.939 116.781 207.76 106.671 209.369C96.5604 210.977 91.0368 205.691 89.6229 192.72Z" fill="#839CA3"/>
<path d="M143.62 193.199C142.224 180.392 159.223 178.28 158.449 171.182C158.271 169.548 157.46 168.857 156.077 169.077C154.588 169.314 153.386 170.803 153.652 173.244C154.262 178.841 163.014 185.262 171 188.433C174.232 189.695 177.35 190.497 179.765 190.409L178.428 198.799C174.48 198.721 170.134 197.568 165.984 195.631C155.838 190.913 146.652 181.897 145.844 174.486C145.249 169.023 148.705 163.599 155.13 162.576C160.875 161.662 165.021 164.556 165.617 170.019C166.734 180.274 151.813 184.766 152.511 191.169C152.765 193.498 154.708 194.851 157.581 194.394C159.9 194.025 162.301 192.231 164.379 189.646C166.84 186.407 168.754 182.321 169.447 177.359L178.084 175.985C177.047 181.958 174.951 187.553 171.394 193.039C168.306 197.676 163.62 201.155 157.195 202.177C148.834 203.508 144.242 198.908 143.62 193.199Z" fill="#839CA3"/>
<path d="M67.4169 248.311L77.585 246.693L84.6976 261.321C85.5863 263.321 86.3931 265.561 87.2916 267.65L87.5043 267.616C87.9222 265.295 88.2216 262.879 88.6542 260.692L92.1563 244.375L102.324 242.757L106.447 280.589L97.8109 281.964L96.5935 270.793C96.1739 266.943 96.3005 260.956 96.3349 257.101L96.1222 257.135L94.1346 266.698L91.0738 279.915L85.9897 280.724L80.2014 268.914L76.3392 260.283L76.1264 260.317C76.9855 264.029 78.3929 269.794 78.81 273.622L80.0274 284.793L71.5186 286.147L67.3956 248.314L67.4169 248.311Z" fill="#839CA3"/>
<path d="M113.745 241.497L137.117 237.783L138.035 246.196L124.231 248.39L124.881 254.351L136.674 252.477L137.592 260.89L125.799 262.764L126.54 269.558L140.902 267.276L141.82 275.689L117.891 279.491L113.743 241.475L113.745 241.497Z" fill="#839CA3"/>
<path d="M1308.2 647.686C1308.81 670.237 1284.62 700.762 1274.94 702.974C1260.03 706.385 1234.38 685.038 1228.69 668.388C1228.23 667.069 1227.91 665.788 1227.73 664.544C1226.3 654.999 1229.38 639.315 1239.89 634.024C1249.36 629.262 1260.47 633.281 1265.54 632.473C1268.66 631.976 1273.54 626.855 1282 625.508C1290.46 624.16 1304.36 627.558 1307.63 642.775C1307.97 644.355 1308.16 645.999 1308.21 647.685L1308.2 647.686Z" fill="#C3E5F1"/>
<path d="M1306.15 678.543C1301.86 686.435 1285.43 712.122 1274.55 714.166C1263.66 716.21 1243.13 695.773 1237.03 690.258C1231.74 685.465 1229.23 671.183 1228.74 667.783C1234.42 684.372 1260.32 706.695 1275.19 703.297C1284.86 701.087 1308.98 670.679 1308.37 648.212C1309.62 656.137 1310.32 670.871 1306.14 678.55L1306.15 678.543Z" fill="#ACC8D4"/>
<path d="M1248.28 658.488L1244.36 651.809L1247.3 651.34L1248.32 653.511C1248.67 654.293 1249 655.011 1249.37 655.83L1249.43 655.82C1249.61 654.915 1249.8 654.114 1249.98 653.247L1250.5 650.831L1253.38 650.373L1251.03 658.051L1251.44 661.821L1248.69 662.259L1248.27 658.489L1248.28 658.488Z" fill="#839CA3"/>
<path d="M1255.22 655.767C1254.83 652.166 1256.56 649.835 1259.44 649.377C1262.32 648.919 1264.49 650.648 1264.88 654.23C1265.27 657.811 1263.56 660.265 1260.68 660.723C1257.8 661.181 1255.62 659.367 1255.22 655.767ZM1262.07 654.677C1261.86 652.689 1260.96 651.665 1259.71 651.864C1258.46 652.062 1257.82 653.331 1258.04 655.319C1258.25 657.307 1259.16 658.428 1260.41 658.23C1261.66 658.031 1262.29 656.665 1262.07 654.677Z" fill="#839CA3"/>
<path d="M1267.7 654.217L1267.08 648.55L1269.84 648.112L1270.49 654.116C1270.71 656.075 1271.26 656.705 1272.36 656.532C1273.45 656.358 1273.88 655.57 1273.67 653.611L1273.01 647.607L1275.68 647.183L1276.29 652.851C1276.7 656.592 1275.55 658.563 1272.63 659.028C1269.71 659.493 1268.11 657.966 1267.7 654.217Z" fill="#839CA3"/>
<path d="M1283.3 654.355C1282.9 650.655 1287.81 650.044 1287.59 647.993C1287.54 647.521 1287.3 647.322 1286.9 647.385C1286.47 647.454 1286.13 647.884 1286.2 648.589C1286.38 650.207 1288.91 652.062 1291.22 652.978C1292.15 653.343 1293.05 653.575 1293.75 653.549L1293.36 655.974C1292.22 655.951 1290.97 655.618 1289.77 655.058C1286.84 653.695 1284.18 651.09 1283.95 648.948C1283.78 647.37 1284.77 645.802 1286.63 645.507C1288.29 645.243 1289.49 646.079 1289.66 647.657C1289.98 650.62 1285.67 651.919 1285.87 653.769C1285.95 654.442 1286.51 654.833 1287.34 654.701C1288.01 654.594 1288.7 654.076 1289.3 653.329C1290.01 652.393 1290.57 651.212 1290.77 649.778L1293.26 649.381C1292.96 651.107 1292.36 652.724 1291.33 654.309C1290.44 655.649 1289.08 656.654 1287.23 656.95C1284.81 657.334 1283.48 656.005 1283.3 654.355Z" fill="#839CA3"/>
<path d="M1261.29 670.28L1264.22 669.813L1266.28 674.04C1266.54 674.617 1266.77 675.265 1267.03 675.868L1267.09 675.859C1267.21 675.188 1267.3 674.49 1267.42 673.858L1268.43 669.143L1271.37 668.675L1272.56 679.607L1270.07 680.004L1269.72 676.777C1269.59 675.664 1269.63 673.934 1269.64 672.82L1269.58 672.83L1269.01 675.593L1268.12 679.413L1266.65 679.646L1264.98 676.234L1263.86 673.74L1263.8 673.749C1264.05 674.822 1264.46 676.488 1264.58 677.594L1264.93 680.822L1262.47 681.213L1261.28 670.281L1261.29 670.28Z" fill="#839CA3"/>
<path d="M1274.67 668.311L1281.43 667.238L1281.69 669.669L1277.7 670.303L1277.89 672.025L1281.3 671.484L1281.56 673.915L1278.16 674.456L1278.37 676.42L1282.52 675.76L1282.78 678.191L1275.87 679.29L1274.67 668.305L1274.67 668.311Z" fill="#839CA3"/>
<path d="M716.777 301.779C717.773 338.355 678.539 387.864 662.833 391.451C638.653 396.984 597.052 362.36 587.815 335.356C587.076 333.217 586.556 331.139 586.255 329.122C583.942 313.64 588.937 288.201 605.992 279.62C621.339 271.896 639.36 278.415 647.589 277.105C652.654 276.298 660.557 267.992 674.28 265.807C688.002 263.622 710.55 269.132 715.859 293.813C716.411 296.376 716.712 299.043 716.787 301.777L716.777 301.779Z" fill="#C3E5F1"/>
<path d="M713.447 351.826C706.492 364.626 679.842 406.289 662.199 409.604C644.545 412.92 611.242 379.772 601.351 370.827C592.768 363.053 588.697 339.888 587.904 334.374C597.118 361.28 639.126 397.486 663.245 391.975C678.921 388.391 718.045 339.072 717.05 302.632C719.088 315.486 720.22 339.383 713.439 351.838L713.447 351.826Z" fill="#ACC8D4"/>
<path d="M619.594 319.297L613.233 308.464L618.006 307.704L619.659 311.226C620.224 312.494 620.768 313.658 621.359 314.986L621.459 314.97C621.746 313.502 622.052 312.203 622.356 310.797L623.198 306.878L627.872 306.135L624.048 318.588L624.714 324.704L620.251 325.414L619.584 319.298L619.594 319.297Z" fill="#839CA3"/>
<path d="M630.854 314.884C630.217 309.044 633.024 305.263 637.695 304.52C642.366 303.777 645.891 306.582 646.524 312.391C647.157 318.199 644.372 322.179 639.701 322.922C635.029 323.665 631.49 320.724 630.854 314.884ZM641.962 313.116C641.611 309.892 640.161 308.231 638.135 308.553C636.108 308.876 635.063 310.933 635.415 314.158C635.766 317.383 637.234 319.201 639.26 318.878C641.286 318.556 642.314 316.341 641.962 313.116Z" fill="#839CA3"/>
<path d="M651.093 312.371L650.091 303.179L654.56 302.468L655.621 312.207C655.968 315.384 656.872 316.406 658.642 316.125C660.411 315.843 661.116 314.565 660.769 311.388L659.708 301.649L664.026 300.962L665.028 310.155C665.69 316.223 663.821 319.42 659.083 320.174C654.345 320.928 651.756 318.45 651.093 312.371Z" fill="#839CA3"/>
<path d="M676.4 312.595C675.746 306.593 683.712 305.603 683.35 302.277C683.266 301.511 682.886 301.187 682.238 301.29C681.54 301.401 680.977 302.099 681.102 303.243C681.387 305.866 685.489 308.875 689.232 310.362C690.747 310.953 692.208 311.329 693.339 311.288L692.713 315.22C690.863 315.183 688.826 314.643 686.881 313.735C682.126 311.524 677.821 307.299 677.442 303.825C677.163 301.265 678.783 298.723 681.794 298.244C684.486 297.815 686.43 299.172 686.709 301.732C687.232 306.538 680.239 308.643 680.567 311.644C680.685 312.735 681.597 313.37 682.943 313.156C684.029 312.983 685.155 312.142 686.129 310.93C687.282 309.412 688.179 307.497 688.504 305.172L692.552 304.528C692.066 307.327 691.084 309.95 689.416 312.521C687.969 314.694 685.773 316.324 682.762 316.803C678.843 317.427 676.691 315.271 676.4 312.595Z" fill="#839CA3"/>
<path d="M640.686 338.424L645.452 337.666L648.785 344.522C649.202 345.459 649.58 346.509 650.001 347.488L650.1 347.472C650.296 346.384 650.437 345.251 650.639 344.227L652.281 336.579L657.046 335.821L658.978 353.552L654.931 354.196L654.36 348.961C654.164 347.156 654.223 344.35 654.239 342.544L654.139 342.56L653.208 347.041L651.773 353.236L649.391 353.615L646.678 348.08L644.868 344.035L644.768 344.051C645.171 345.79 645.83 348.493 646.026 350.287L646.596 355.522L642.609 356.156L640.676 338.426L640.686 338.424Z" fill="#839CA3"/>
<path d="M662.399 335.231L673.352 333.491L673.783 337.434L667.313 338.462L667.618 341.255L673.144 340.377L673.575 344.32L668.048 345.198L668.395 348.382L675.126 347.313L675.556 351.256L664.342 353.038L662.398 335.221L662.399 335.231Z" fill="#839CA3"/>
<path d="M612.693 291.704C608.181 349.067 540.761 416.621 516.442 418.316C479 420.942 421.842 356.531 412.329 312.066C411.564 308.542 411.12 305.168 410.998 301.943C410.05 277.192 421.781 238.712 448.96 229.553C473.417 221.308 499.571 235.969 512.22 235.969C520.005 235.969 533.312 224.965 554.404 224.965C575.496 224.965 608.655 239.177 612.617 279.037C613.03 283.176 613.045 287.415 612.708 291.704H612.693Z" fill="#FFCFCF"/>
<path d="M599.096 367.983C586.447 386.318 539.201 444.994 511.93 445.792C484.643 446.59 439.676 386.317 426.171 369.828C414.455 355.5 412.115 318.166 411.824 309.323C421.337 353.804 478.984 421.042 516.426 418.415C540.761 416.703 608.166 349.133 612.678 291.753C613.641 312.415 611.408 350.164 599.081 368L599.096 367.983Z" fill="#DAACAC"/>
<path d="M444.662 288.778C444.662 279.353 450.627 274.001 457.143 274.001C460.569 274.001 463.353 275.73 465.173 277.724L461.594 282.478C460.324 281.265 459.055 280.401 457.296 280.401C454.268 280.401 451.652 283.426 451.652 288.529C451.652 293.632 453.885 296.74 457.22 296.74C459.208 296.74 460.799 295.61 461.915 294.313L465.494 298.984C463.307 301.744 460.324 303.14 456.99 303.14C450.383 303.14 444.662 298.386 444.662 288.795V288.778Z" fill="#B48A8B"/>
<path d="M471.26 274.516H478.097V284.971H485.806V274.516H492.643V302.607H485.806V291.454H478.097V302.607H471.26V274.516Z" fill="#B48A8B"/>
<path d="M505.185 274.516H513.459L521.336 302.607H514.102L511.165 288.944C510.523 286.268 509.895 282.843 509.253 280.034H509.1C508.549 282.893 507.907 286.251 507.265 288.944L504.328 302.607H497.323L505.2 274.516H505.185ZM502.952 290.889H515.6V296.64H502.952V290.889Z" fill="#B48A8B"/>
<path d="M525.588 274.516H535.377C540.944 274.516 545.716 276.593 545.716 283.591C545.716 290.589 540.944 293.183 535.377 293.183H532.44V302.607H525.603V274.516H525.588ZM534.887 287.315C537.595 287.315 539.017 286.018 539.017 283.591C539.017 281.165 537.579 280.4 534.887 280.4H532.425V287.315H534.887ZM534.138 291.254L538.757 286.334L547.154 302.624H539.522L534.153 291.254H534.138Z" fill="#B48A8B"/>
<path d="M552.829 274.516H560.14L564.04 286.018C564.514 287.581 564.912 289.31 565.386 290.939H565.539C566.013 289.293 566.41 287.564 566.885 286.018L570.617 274.516H577.928V302.607H571.718V294.313C571.718 291.454 572.268 287.099 572.59 284.29H572.437L570.295 291.038L567.114 300.33H563.459L560.277 291.038L558.212 284.29H558.059C558.381 287.099 558.931 291.47 558.931 294.313V302.607H552.813V274.516H552.829Z" fill="#B48A8B"/>
<path d="M487.152 326.378H494.463L498.363 337.881C498.837 339.443 499.235 341.172 499.709 342.801H499.862C500.336 341.155 500.734 339.426 501.208 337.881L504.94 326.378H512.251V354.47H506.041V346.175C506.041 343.316 506.592 338.961 506.913 336.152H506.76L504.619 342.901L501.437 352.192H497.782L494.6 342.901L492.536 336.152H492.383C492.704 338.961 493.255 343.333 493.255 346.175V354.47H487.137V326.378H487.152Z" fill="#B48A8B"/>
<path d="M520.189 326.378H536.891V332.595H527.026V337H535.453V343.216H527.026V348.236H537.289V354.453H520.189V326.361V326.378Z" fill="#B48A8B"/>
<path d="M1294.69 249.319C1290.18 306.683 1222.76 374.236 1198.44 375.931C1161 378.558 1103.84 314.146 1094.33 269.681C1093.56 266.157 1093.12 262.783 1093 259.558C1092.05 234.808 1103.78 196.327 1130.96 187.168C1155.42 178.923 1181.57 193.584 1194.22 193.584C1202.01 193.584 1215.31 182.58 1236.4 182.58C1257.5 182.58 1290.66 196.792 1294.62 236.653C1295.03 240.792 1295.04 245.03 1294.71 249.319H1294.69Z" fill="#FFCFCF"/>
<path d="M1281.1 325.598C1268.45 343.933 1221.2 402.61 1193.93 403.408C1166.64 404.205 1121.68 343.933 1108.17 327.443C1096.45 313.115 1094.11 275.781 1093.82 266.938C1103.34 311.419 1160.98 378.657 1198.43 376.031C1222.76 374.318 1290.17 306.749 1294.68 249.368C1295.64 270.03 1293.41 307.779 1281.08 325.615L1281.1 325.598Z" fill="#DAACAC"/>
<path d="M1126.66 246.394C1126.66 236.969 1132.63 231.616 1139.14 231.616C1142.57 231.616 1145.35 233.345 1147.17 235.34L1143.59 240.094C1142.32 238.88 1141.05 238.016 1139.3 238.016C1136.27 238.016 1133.65 241.041 1133.65 246.144C1133.65 251.247 1135.89 254.356 1139.22 254.356C1141.21 254.356 1142.8 253.225 1143.92 251.929L1147.49 256.6C1145.31 259.359 1142.32 260.755 1138.99 260.755C1132.38 260.755 1126.66 256.001 1126.66 246.41V246.394Z" fill="#B48A8B"/>
<path d="M1153.26 232.131H1160.1V242.586H1167.81V232.131H1174.64V260.223H1167.81V249.069H1160.1V260.223H1153.26V232.131Z" fill="#B48A8B"/>
<path d="M1187.18 232.131H1195.46L1203.34 260.223H1196.1L1193.16 246.559C1192.52 243.883 1191.9 240.459 1191.25 237.649H1191.1C1190.55 240.509 1189.91 243.866 1189.26 246.559L1186.33 260.223H1179.32L1187.2 232.131H1187.18ZM1184.95 248.504H1197.6V254.255H1184.95V248.504Z" fill="#B48A8B"/>
<path d="M1207.59 232.131H1217.38C1222.94 232.131 1227.72 234.209 1227.72 241.207C1227.72 248.205 1222.94 250.798 1217.38 250.798H1214.44V260.223H1207.6V232.131H1207.59ZM1216.89 244.93C1219.59 244.93 1221.02 243.634 1221.02 241.207C1221.02 238.78 1219.58 238.015 1216.89 238.015H1214.43V244.93H1216.89ZM1216.14 248.87L1220.76 243.949L1229.15 260.239H1221.52L1216.15 248.87H1216.14Z" fill="#B48A8B"/>
<path d="M1234.83 232.131H1242.14L1246.04 243.634C1246.51 245.196 1246.91 246.925 1247.39 248.554H1247.54C1248.01 246.908 1248.41 245.179 1248.88 243.634L1252.62 232.131H1259.93V260.223H1253.72V251.928C1253.72 249.069 1254.27 244.714 1254.59 241.905H1254.44L1252.3 248.653L1249.11 257.945H1245.46L1242.28 248.653L1240.21 241.905H1240.06C1240.38 244.714 1240.93 249.086 1240.93 251.928V260.223H1234.81V232.131H1234.83Z" fill="#B48A8B"/>
<path d="M1169.15 283.993H1176.46L1180.36 295.496C1180.84 297.058 1181.23 298.787 1181.71 300.416H1181.86C1182.34 298.77 1182.73 297.042 1183.21 295.496L1186.94 283.993H1194.25V312.085H1188.04V303.79C1188.04 300.931 1188.59 296.576 1188.91 293.767H1188.76L1186.62 300.516L1183.44 309.808H1179.78L1176.6 300.516L1174.54 293.767H1174.38C1174.7 296.576 1175.25 300.948 1175.25 303.79V312.085H1169.14V283.993H1169.15Z" fill="#B48A8B"/>
<path d="M1202.19 283.993H1218.89V290.21H1209.03V294.615H1217.45V300.832H1209.03V305.852H1219.29V312.068H1202.19V283.977V283.993Z" fill="#B48A8B"/>
<path d="M917.18 381.579C921.53 417.951 886.396 471.98 870.848 477.415C846.912 485.792 801.694 456.168 789.888 430.32C788.946 428.274 788.23 426.262 787.742 424.285C783.988 409.113 786.712 383.145 803.168 372.568C817.975 363.049 836.787 367.422 844.986 365.142C850.032 363.738 857.262 354.518 870.933 350.716C884.605 346.914 907.901 349.747 915.524 373.741C916.316 376.232 916.864 378.857 917.19 381.576L917.18 381.579Z" fill="#E4CFFA"/>
<path d="M918.452 432.154C912.598 445.736 889.491 490.414 871.973 495.8C854.446 501.188 817.775 472.069 806.965 464.319C797.585 457.581 791.353 434.967 790.048 429.563C801.817 455.3 847.56 486.44 871.418 478.102C886.923 472.68 921.929 418.897 917.591 382.686C920.825 395.26 924.155 418.951 918.445 432.167L918.452 432.154Z" fill="#C2B1D5"/>
<path d="M820.323 395.035L824.775 393.797L826.107 400.31L826.207 400.283L829.117 392.589L833.987 391.235L830.421 399.735L838.553 408.461L833.683 409.815L828.581 404.12L827.463 406.938L828.355 411.297L823.903 412.535L820.323 395.035Z" fill="#9F91AB"/>
<path d="M839.106 389.928L843.689 388.673L847.375 406.41L842.792 407.665L839.106 389.928Z" fill="#9F91AB"/>
<path d="M852.138 402.927L854.033 399.031C855.436 399.695 857.079 399.984 858.328 399.637C859.677 399.262 860.152 398.647 859.991 397.858C859.819 397.017 858.904 396.986 857.355 396.791L855.06 396.464C853.086 396.211 851.173 395.064 850.652 392.521C850.038 389.52 852.134 386.348 855.82 385.323C857.738 384.79 860.031 384.954 861.915 386.109L860.274 389.648C858.963 389.124 857.887 388.973 856.638 389.32C855.55 389.623 854.953 390.217 855.112 390.996C855.285 391.836 856.303 391.861 857.969 392.056L860.189 392.327C862.474 392.603 863.973 393.788 864.47 396.218C865.078 399.187 863.232 402.498 859.026 403.667C856.898 404.259 854.285 404.129 852.118 402.932L852.138 402.927Z" fill="#9F91AB"/>
<path d="M868.801 398.607L870.696 394.712C872.099 395.375 873.742 395.665 874.99 395.318C876.339 394.943 876.815 394.328 876.653 393.539C876.481 392.698 875.567 392.667 874.017 392.472L871.722 392.144C869.749 391.892 867.835 390.745 867.315 388.201C866.7 385.201 868.796 382.029 872.483 381.004C874.401 380.471 876.694 380.635 878.578 381.79L876.937 385.329C875.626 384.805 874.55 384.654 873.301 385.001C872.212 385.304 871.616 385.898 871.775 386.676C871.947 387.517 872.966 387.541 874.632 387.736L876.852 388.008C879.136 388.284 880.635 389.469 881.133 391.899C881.74 394.868 879.895 398.179 875.689 399.348C873.561 399.939 870.947 399.81 868.781 398.613L868.801 398.607Z" fill="#9F91AB"/>
<path d="M839.575 424.937L844.326 423.615L848.324 430.062C848.831 430.948 849.309 431.951 849.824 432.878L849.924 432.851C850.022 431.742 850.061 430.595 850.172 429.548L851.135 421.722L855.885 420.4L859.459 437.867L855.423 438.989L854.368 433.832C854.005 432.054 853.808 429.247 853.66 427.442L853.56 427.47L853.027 432.053L852.142 438.405L849.766 439.066L846.517 433.864L844.317 430.041L844.218 430.068C844.784 431.757 845.698 434.376 846.059 436.143L847.114 441.3L843.138 442.406L839.565 424.939L839.575 424.937Z" fill="#9F91AB"/>
<path d="M862.103 418.988L873.039 415.95L873.835 419.84L867.376 421.634L867.94 424.39L873.458 422.857L874.255 426.746L868.737 428.279L869.381 431.42L876.1 429.553L876.897 433.442L865.701 436.552L862.101 418.978L862.103 418.988Z" fill="#9F91AB"/>
<defs>
<clipPath id="clip0_94_1061">
<rect width="81" height="82" fill="white" transform="translate(612.945 215.36)"/>
</clipPath>
<clipPath id="clip1_94_1061">
<rect width="81" height="82" fill="white" transform="translate(1193.95 134.36)"/>
</clipPath>
<clipPath id="clip2_94_1061">
<rect width="132.06" height="132.85" fill="white" transform="translate(135.945 387.36)"/>
</clipPath>
<clipPath id="clip3_94_1061">
<rect width="77" height="78" fill="white" transform="translate(1036 868.438) rotate(-7.79136)"/>
</clipPath>
<clipPath id="clip4_94_1061">
<rect width="99.7934" height="100.39" fill="white" transform="translate(1114.33 105.36) rotate(14.0587)"/>
</clipPath>
<clipPath id="clip5_94_1061">
<rect width="62" height="63" fill="white" transform="translate(604 721)"/>
</clipPath>
<clipPath id="clip6_94_1061">
<rect width="107" height="108" fill="white" transform="translate(1094.95 400.127) rotate(-21.8175)"/>
</clipPath>
<clipPath id="clip7_94_1061">
<rect width="58" height="59" fill="white" transform="translate(69.945 612.36)"/>
</clipPath>
<clipPath id="clip8_94_1061">
<rect width="68" height="69" fill="white" transform="translate(233.945 146.36)"/>
</clipPath>
<clipPath id="clip9_94_1061">
<rect width="68" height="69" fill="white" transform="translate(283.268 510.36) rotate(9.44527)"/>
</clipPath>
</defs>
</svg>
