<svg width="1440" height="408" viewBox="0 0 1440 408" fill="none" xmlns="http://www.w3.org/2000/svg">
<path d="M1014.18 380.108C1004.82 403.432 967.915 422.805 957.557 420.343C941.607 416.559 926.175 382.262 928.004 362.487C928.144 360.919 928.399 359.454 928.768 358.094C931.598 347.654 941.502 333.142 954.025 332.866C965.294 332.616 974.286 342.135 979.558 343.784C982.803 344.798 989.784 341.945 998.576 344.694C1007.37 347.442 1019.34 357.687 1015.8 374.819C1015.43 376.598 1014.88 378.366 1014.18 380.11L1014.18 380.108Z" fill="#FFCFCF"/>
<path d="M998.569 410.133C990.907 416.127 963.567 434.429 952.095 431.208C940.618 427.985 929.727 397.002 926.246 388.368C923.23 380.869 927.119 365.002 928.15 361.278C926.32 381.059 941.588 416.598 957.537 420.382C967.904 422.839 1004.81 403.457 1014.16 380.127C1011.87 388.865 1006.02 404.309 998.56 410.137L998.569 410.133Z" fill="#DAACAC"/>
<path d="M944.516 356.993C945.744 353.065 948.928 351.611 951.644 352.46C953.072 352.906 954.007 353.99 954.506 355.058L952.394 356.574C952.023 355.902 951.607 355.377 950.874 355.147C949.611 354.753 948.127 355.673 947.462 357.8C946.797 359.927 947.323 361.514 948.713 361.949C949.541 362.208 950.352 361.944 950.986 361.549L951.869 363.962C950.598 364.827 949.173 365.021 947.783 364.586C945.029 363.725 943.264 360.998 944.514 357L944.516 356.993Z" fill="#B48A8B"/>
<path d="M957.461 354.514L960.311 355.405L958.949 359.763L962.162 360.768L963.525 356.409L966.374 357.3L962.714 369.01L959.864 368.119L961.317 363.47L958.104 362.465L956.651 367.115L953.801 366.224L957.461 354.514Z" fill="#B48A8B"/>
<path d="M971.603 358.935L975.052 360.013L974.675 372.749L971.659 371.806L972.215 365.728C972.296 364.529 972.481 363.02 972.579 361.765L972.516 361.745C971.914 362.865 971.208 364.181 970.59 365.22L967.585 370.533L964.665 369.62L971.609 358.937L971.603 358.935ZM968.538 365.468L973.811 367.117L973.061 369.514L967.789 367.866L968.538 365.468Z" fill="#B48A8B"/>
<path d="M980.107 361.593L984.188 362.869C986.508 363.594 988.227 365.082 987.315 367.999C986.403 370.916 984.076 371.375 981.755 370.65L980.531 370.267L979.303 374.196L976.453 373.305L980.114 361.595L980.107 361.593ZM982.316 368.14C983.444 368.493 984.206 368.138 984.522 367.126C984.839 366.115 984.339 365.609 983.217 365.258L982.191 364.937L981.289 367.819L982.316 368.14ZM981.49 369.685L984.057 368.236L985.434 376.12L982.253 375.126L981.497 369.687L981.49 369.685Z" fill="#B48A8B"/>
<path d="M991.462 365.143L994.51 366.096L994.637 371.398C994.631 372.112 994.571 372.884 994.557 373.625L994.62 373.645C995.033 373.021 995.424 372.352 995.823 371.769L998.877 367.461L1001.92 368.413L998.264 380.123L995.676 379.314L996.756 375.856C997.129 374.665 997.926 372.921 998.426 371.792L998.362 371.772L996.59 374.306L994.053 377.765L992.53 377.288L992.414 373.001L992.433 369.919L992.369 369.899C992.137 371.111 991.797 373.005 991.427 374.19L990.346 377.648L987.796 376.851L991.456 365.141L991.462 365.143Z" fill="#B48A8B"/>
<path d="M957.328 378.203L960.375 379.155L960.502 384.458C960.496 385.171 960.437 385.944 960.422 386.685L960.486 386.705C960.898 386.08 961.289 385.412 961.688 384.829L964.742 380.521L967.79 381.473L964.129 393.183L961.541 392.374L962.622 388.916C962.994 387.725 963.791 385.981 964.291 384.852L964.227 384.832L962.456 387.366L959.919 390.825L958.395 390.348L958.28 386.061L958.298 382.978L958.234 382.959C958.002 384.171 957.662 386.065 957.292 387.25L956.211 390.708L953.661 389.91L957.321 378.201L957.328 378.203Z" fill="#B48A8B"/>
<path d="M971.099 382.508L978.061 384.684L977.251 387.276L973.139 385.99L972.565 387.826L976.078 388.924L975.268 391.516L971.755 390.418L971.1 392.51L975.378 393.848L974.568 396.439L967.441 394.211L971.101 382.501L971.099 382.508Z" fill="#B48A8B"/>
<path d="M889.256 330.696C870.082 385.023 784.076 427.249 758.81 420.385C719.907 409.833 677.892 327.04 679.468 280.373C679.582 276.671 679.985 273.227 680.679 270.041C685.996 245.587 707.748 212.192 737.83 212.784C764.899 213.314 787.886 236.762 800.803 241.191C808.754 243.918 825.137 237.853 846.676 245.24C868.216 252.626 898.47 278.09 892.394 318.325C891.765 322.503 890.704 326.64 889.272 330.702L889.256 330.696Z" fill="#FFD1DE"/>
<path d="M854.689 401.364C837.175 414.742 774.238 455.197 746.28 446.465C718.306 437.727 687.792 363.578 678.219 342.873C669.921 324.888 676.988 287.853 678.93 279.172C677.355 325.642 719.012 410.968 757.785 421.472C782.986 428.294 868.691 386.239 887.805 332.145C883.557 352.526 871.73 388.369 854.669 401.375L854.689 401.364Z" fill="#E0B8C3"/>
<path d="M742.121 268.725L749.177 271.141L743.561 292.667L753.664 296.127L752.068 302.244L734.908 296.368L742.121 268.725Z" fill="#B3929B"/>
<path d="M759.883 289.276C762.24 280.229 768.534 276.857 775.873 279.374C783.213 281.89 786.848 288.721 784.504 297.72C782.159 306.718 775.785 310.4 768.446 307.883C761.106 305.366 757.526 298.324 759.883 289.276ZM777.337 295.262C778.639 290.266 777.429 286.714 774.245 285.622C771.062 284.53 768.351 286.738 767.05 291.734C765.748 296.73 766.894 300.526 770.078 301.618C773.261 302.71 776.036 300.258 777.337 295.262Z" fill="#B3929B"/>
<path d="M791.421 284.757L798.837 287.3L798.484 300.257C798.462 303.421 798.206 306.435 798.172 309.648L798.328 309.702C799.837 306.994 801.107 304.346 802.56 301.655L808.384 290.574L815.564 293.036L800.579 317.846L792.097 314.937L791.437 284.762L791.421 284.757Z" fill="#B3929B"/>
<path d="M820.091 294.056L837.319 299.957L835.724 306.072L825.548 302.586L824.418 306.919L833.111 309.897L831.516 316.012L822.823 313.034L821.535 317.972L832.121 321.598L830.526 327.713L812.888 321.672L820.096 294.04L820.091 294.056Z" fill="#B3929B"/>
<path d="M737.334 343.436L734.032 322.652L741.532 325.224L741.992 331.661C742.112 333.954 742.259 336.08 742.386 338.482L742.542 338.536C743.797 336.607 744.984 334.939 746.229 333.114L749.692 328.023L757.036 330.541L744.333 345.836L741.864 355.312L734.85 352.907L737.318 343.431L737.334 343.436Z" fill="#B3929B"/>
<path d="M756.46 344.705C758.817 335.658 765.111 332.286 772.451 334.803C779.79 337.32 783.426 344.15 781.081 353.149C778.737 362.147 772.362 365.829 765.023 363.312C757.684 360.795 754.103 353.753 756.46 344.705ZM773.914 350.691C775.216 345.695 774.006 342.143 770.823 341.051C767.639 339.959 764.928 342.167 763.627 347.163C762.325 352.159 763.472 355.955 766.655 357.047C769.839 358.139 772.613 355.687 773.914 350.691Z" fill="#B3929B"/>
<path d="M787.797 355.571L791.51 341.324L798.533 343.733L794.6 358.826C793.317 363.749 794.079 365.946 796.86 366.899C799.642 367.853 801.409 366.523 802.691 361.601L806.625 346.507L813.413 348.834L809.7 363.08C807.249 372.486 802.673 375.729 795.225 373.175C787.778 370.622 785.342 364.992 787.797 355.571Z" fill="#B3929B"/>
<path d="M478.98 374.344C488.309 409.264 458.752 461.607 443.24 467.009C419.36 475.335 368.265 447.366 352.541 422.649C351.288 420.692 350.276 418.766 349.506 416.871C343.591 402.327 343.015 377.33 358.798 366.974C372.999 357.654 393.209 361.645 401.466 359.36C406.549 357.953 412.88 349.007 426.649 345.197C440.418 341.386 465.105 343.845 476.22 366.828C477.375 369.214 478.292 371.731 478.99 374.341L478.98 374.344Z" fill="#FFD1DE"/>
<path d="M486.133 423.179C481.808 436.312 463.565 479.562 445.996 484.951C428.418 490.342 386.341 462.772 374.046 455.446C363.376 449.077 353.908 427.4 351.837 422.218C367.492 446.832 419.299 476.24 443.094 467.935C458.558 462.535 488.021 410.387 478.743 375.608C483.767 387.665 490.349 410.412 486.127 423.192L486.133 423.179Z" fill="#E0B8C3"/>
<path d="M380.846 394.413L385.356 393.163L390.078 406.297L396.534 404.507L397.876 408.24L386.91 411.279L380.846 394.413Z" fill="#B3929B"/>
<path d="M397.326 398.756C395.339 393.237 397.402 389.26 402.094 387.962C406.785 386.664 411.088 388.911 413.064 394.401C415.04 399.89 413.045 404.055 408.353 405.353C403.662 406.652 399.312 404.275 397.326 398.756ZM408.483 395.668C407.386 392.621 405.501 391.211 403.466 391.774C401.431 392.337 400.81 394.441 401.907 397.488C403.004 400.536 404.943 402.095 406.978 401.532C409.013 400.969 409.58 398.716 408.483 395.668Z" fill="#B3929B"/>
<path d="M412.05 385.238L416.79 383.926L421.2 390.759C422.311 392.405 423.246 394.056 424.367 395.732L424.468 395.704C424.288 393.767 424.008 391.946 423.806 390.038L422.893 382.237L427.483 380.967L428.519 399.122L423.097 400.622L412.06 385.235L412.05 385.238Z" fill="#B3929B"/>
<path d="M430.189 379.891L441.199 376.839L442.54 380.57L436.037 382.373L436.988 385.016L442.543 383.477L443.885 387.208L438.329 388.747L439.413 391.76L446.178 389.885L447.52 393.616L436.247 396.74L430.185 379.881L430.189 379.891Z" fill="#B3929B"/>
<g clip-path="url(#clip0_155_5446)">
<path d="M136.331 402.78C134.896 424.109 108.304 449.665 98.5643 450.466C83.5626 451.705 60.2248 428.193 56.1264 411.751C55.7968 410.448 55.5969 409.199 55.5269 408.002C54.9852 398.82 59.4318 384.45 70.2697 380.858C80.022 377.625 90.6044 382.884 95.6761 382.795C98.7976 382.74 104.061 378.561 112.518 378.412C120.975 378.264 134.363 383.307 136.212 398.078C136.404 399.612 136.438 401.185 136.331 402.78Z" fill="#BDE5DD"/>
<path d="M131.377 431.196C126.424 438.092 107.863 460.21 96.9342 460.699C85.9988 461.187 67.5757 439.126 62.053 433.099C57.2619 427.856 56.08 414.012 55.912 410.73C60.0166 427.178 83.5691 451.735 98.5647 450.496C108.311 449.689 134.896 424.128 136.331 402.792C136.852 410.456 136.203 424.487 131.377 431.196Z" fill="#A6C3BF"/>
<path d="M76.5453 410.547L73.8069 405.52L76.8671 405.467L77.5961 407.158C77.8254 407.635 78.0625 408.211 78.3625 408.879L78.4238 408.878C78.6328 408.201 78.8495 407.617 79.0312 407.132L79.6084 405.419L82.5398 405.367L79.9818 410.61L82.8825 415.794L79.8223 415.848L78.9616 413.998C78.6945 413.46 78.4641 412.915 78.1953 412.277L78.1339 412.278C77.9244 412.924 77.7071 413.471 77.4959 414.024L76.7621 415.901L73.8307 415.953L76.5453 410.547Z" fill="#8CABA6"/>
<path d="M85.0101 410.491C84.9498 407.059 86.8601 405.1 89.7301 405.049C92.6002 404.999 94.5784 406.909 94.6384 410.322C94.6983 413.734 92.7902 415.811 89.9201 415.862C87.05 415.912 85.0704 413.922 85.0101 410.491ZM91.8357 410.371C91.8025 408.476 91.0167 407.397 89.7718 407.419C88.5268 407.441 87.7795 408.547 87.8127 410.441C87.846 412.336 88.6334 413.508 89.8784 413.486C91.1233 413.464 91.869 412.265 91.8357 410.371Z" fill="#8CABA6"/>
<path d="M99.6655 410.141L96.927 405.114L99.9872 405.06L100.716 406.751C100.945 407.229 101.183 407.805 101.483 408.473L101.544 408.472C101.753 407.795 101.97 407.211 102.151 406.726L102.728 405.012L105.66 404.961L103.102 410.204L106.003 415.388L102.942 415.441L102.082 413.592C101.815 413.054 101.584 412.508 101.315 411.871L101.254 411.872C101.045 412.518 100.827 413.065 100.616 413.618L99.8822 415.495L96.9508 415.547L99.6655 410.141Z" fill="#8CABA6"/>
<path d="M108.13 410.084C108.069 406.653 109.98 404.694 112.85 404.643C115.72 404.593 117.698 406.503 117.758 409.915C117.818 413.328 115.91 415.405 113.04 415.455C110.17 415.506 108.19 413.516 108.13 410.084ZM114.955 409.965C114.922 408.07 114.136 406.991 112.891 407.013C111.646 407.035 110.899 408.141 110.932 410.035C110.966 411.93 111.753 413.101 112.998 413.079C114.243 413.058 114.989 411.859 114.955 409.965Z" fill="#8CABA6"/>
</g>
<g clip-path="url(#clip1_155_5446)">
<path d="M1289.85 159.142C1288.04 180.443 1261.01 205.528 1251.26 206.157C1236.23 207.133 1213.31 183.215 1209.5 166.704C1209.2 165.395 1209.02 164.142 1208.97 162.945C1208.59 153.754 1213.29 139.465 1224.19 136.064C1234 133.002 1244.48 138.446 1249.56 138.446C1252.68 138.446 1258.01 134.36 1266.47 134.36C1274.93 134.36 1288.23 139.638 1289.82 154.439C1289.98 155.976 1289.99 157.55 1289.85 159.142Z" fill="#BDE5DD"/>
<path d="M1284.4 187.467C1279.33 194.276 1260.38 216.064 1249.45 216.36C1238.5 216.657 1220.47 194.276 1215.06 188.153C1210.36 182.826 1209.42 168.963 1209.31 165.679C1213.12 182.196 1236.24 207.164 1251.26 206.188C1261.01 205.553 1288.04 180.462 1289.85 159.155C1290.24 166.827 1289.35 180.845 1284.4 187.467Z" fill="#A6C3BF"/>
<path d="M1229.94 165.858L1227.29 160.784H1230.35L1231.05 162.488C1231.27 162.969 1231.5 163.55 1231.79 164.222H1231.85C1232.07 163.55 1232.3 162.969 1232.49 162.488L1233.09 160.784H1236.03L1233.38 165.981L1236.18 171.216H1233.12L1232.3 169.352C1232.04 168.808 1231.82 168.259 1231.56 167.617H1231.5C1231.28 168.259 1231.05 168.802 1230.83 169.352L1230.06 171.216H1227.13L1229.94 165.858Z" fill="#8CABA6"/>
<path d="M1238.41 165.951C1238.41 162.519 1240.35 160.593 1243.22 160.593C1246.09 160.593 1248.03 162.537 1248.03 165.951C1248.03 169.364 1246.09 171.407 1243.22 171.407C1240.35 171.407 1238.41 169.382 1238.41 165.951ZM1245.23 165.951C1245.23 164.056 1244.47 162.963 1243.22 162.963C1241.98 162.963 1241.21 164.056 1241.21 165.951C1241.21 167.845 1241.98 169.031 1243.22 169.031C1244.47 169.031 1245.23 167.845 1245.23 165.951Z" fill="#8CABA6"/>
<path d="M1253.06 165.858L1250.41 160.784H1253.48L1254.17 162.488C1254.4 162.969 1254.62 163.55 1254.91 164.222H1254.97C1255.19 163.55 1255.42 162.969 1255.61 162.488L1256.22 160.784H1259.15L1256.5 165.981L1259.31 171.216H1256.25L1255.42 169.352C1255.16 168.808 1254.94 168.259 1254.68 167.617H1254.62C1254.4 168.259 1254.17 168.802 1253.95 169.352L1253.19 171.216H1250.26L1253.06 165.858Z" fill="#8CABA6"/>
<path d="M1261.53 165.951C1261.53 162.519 1263.47 160.593 1266.34 160.593C1269.21 160.593 1271.16 162.537 1271.16 165.951C1271.16 169.364 1269.21 171.407 1266.34 171.407C1263.47 171.407 1261.53 169.382 1261.53 165.951ZM1268.36 165.951C1268.36 164.056 1267.59 162.963 1266.34 162.963C1265.1 162.963 1264.33 164.056 1264.33 165.951C1264.33 167.845 1265.1 169.031 1266.34 169.031C1267.59 169.031 1268.36 167.845 1268.36 165.951Z" fill="#8CABA6"/>
</g>
<g clip-path="url(#clip2_155_5446)">
<path d="M815.858 401.382C813.066 434.372 771.343 473.223 756.293 474.198C733.112 475.708 697.74 438.665 691.862 413.093C691.388 411.066 691.114 409.125 691.038 407.271C690.451 393.036 697.702 370.906 714.522 365.638C729.657 360.897 745.843 369.328 753.671 369.328C758.489 369.328 766.724 363 779.776 363C792.829 363 813.35 371.174 815.802 394.098C816.057 396.478 816.067 398.916 815.858 401.382Z" fill="#BDE5DD"/>
<path d="M807.444 445.251C799.616 455.796 770.377 489.541 753.501 490C736.614 490.459 708.786 455.796 700.428 446.312C693.178 438.062 691.729 416.591 691.559 411.506C697.447 437.087 733.122 475.756 756.293 474.246C771.352 473.261 813.066 434.401 815.859 401.401C816.455 413.284 815.073 434.994 807.444 445.251Z" fill="#A6C3BF"/>
<path d="M723.401 411.783L719.312 403.925H724.035L725.114 406.563C725.455 407.309 725.805 408.208 726.25 409.25H726.344C726.685 408.208 727.035 407.309 727.329 406.563L728.266 403.925H732.79L728.701 411.974L733.036 420.081H728.313L727.035 417.194C726.638 416.352 726.297 415.502 725.899 414.507H725.805C725.464 415.502 725.114 416.343 724.773 417.194L723.59 420.081H719.065L723.401 411.783Z" fill="#8CABA6"/>
<path d="M736.463 411.926C736.463 406.611 739.463 403.629 743.893 403.629C748.323 403.629 751.324 406.64 751.324 411.926C751.324 417.213 748.323 420.377 743.893 420.377C739.463 420.377 736.463 417.241 736.463 411.926ZM746.998 411.926C746.998 408.991 745.815 407.299 743.893 407.299C741.972 407.299 740.789 408.991 740.789 411.926C740.789 414.861 741.972 416.697 743.893 416.697C745.815 416.697 746.998 414.861 746.998 411.926Z" fill="#8CABA6"/>
<path d="M759.085 411.783L754.996 403.925H759.719L760.798 406.563C761.139 407.309 761.489 408.208 761.934 409.25H762.029C762.37 408.208 762.72 407.309 763.013 406.563L763.95 403.925H768.475L764.386 411.974L768.721 420.081H763.998L762.72 417.194C762.322 416.352 761.982 415.502 761.584 414.507H761.489C761.149 415.502 760.798 416.343 760.458 417.194L759.274 420.081H754.75L759.085 411.783Z" fill="#8CABA6"/>
<path d="M772.147 411.926C772.147 406.611 775.148 403.629 779.578 403.629C784.008 403.629 787.008 406.64 787.008 411.926C787.008 417.213 784.008 420.377 779.578 420.377C775.148 420.377 772.147 417.241 772.147 411.926ZM782.682 411.926C782.682 408.991 781.499 407.299 779.578 407.299C777.656 407.299 776.473 408.991 776.473 411.926C776.473 414.861 777.656 416.697 779.578 416.697C781.499 416.697 782.682 414.861 782.682 411.926Z" fill="#8CABA6"/>
</g>
<g clip-path="url(#clip3_155_5446)">
<path d="M254.098 429.107C237.871 459.706 181.398 479.841 166.368 474.553C143.215 466.418 124.002 416.129 128.762 389.084C129.132 386.937 129.66 384.956 130.346 383.139C135.606 369.195 151.719 350.893 170.228 352.781C186.883 354.479 199.164 369.29 206.774 372.528C211.457 374.521 222.055 371.837 234.744 377.236C247.433 382.636 264.034 398.993 257.027 422.072C256.3 424.469 255.311 426.819 254.098 429.107Z" fill="#F6E7CA"/>
<path d="M227.949 467.852C216.02 474.763 173.775 495.148 157.181 488.608C140.577 482.065 127.723 437.188 123.482 424.602C119.813 413.662 127.2 392.396 129.117 387.431C124.362 414.49 143.204 466.468 166.348 474.599C181.391 479.882 237.859 459.734 254.09 429.125C249.803 440.81 239.567 461.134 227.949 467.852Z" fill="#DDCCAE"/>
<path d="M159.321 392.535L162.869 390.709C163.597 392.062 164.711 393.275 165.861 393.764C167.104 394.293 167.8 394.111 168.098 393.412C168.415 392.667 167.726 392.091 166.633 391.006L165.036 389.37C163.647 387.986 162.783 385.955 163.743 383.701C164.874 381.042 168.191 379.888 171.586 381.333C173.353 382.085 175.036 383.595 175.872 385.613L172.711 387.322C171.979 386.13 171.229 385.365 170.079 384.876C169.076 384.449 168.297 384.542 168.004 385.232C167.686 385.977 168.46 386.611 169.642 387.766L171.211 389.314C172.828 390.904 173.351 392.713 172.435 394.866C171.315 397.498 168.117 398.908 164.244 397.26C162.284 396.426 160.335 394.749 159.302 392.527L159.321 392.535Z" fill="#B1A28B"/>
<path d="M178.374 393.655C180.551 388.539 184.689 386.909 188.996 388.742C193.302 390.574 194.985 394.714 192.82 399.802C190.655 404.891 186.442 406.695 182.135 404.863C177.829 403.03 176.197 398.771 178.374 393.655ZM188.615 398.013C189.817 395.188 189.36 393.07 187.492 392.275C185.624 391.48 183.781 392.619 182.579 395.444C181.377 398.269 181.775 400.525 183.643 401.32C185.511 402.115 187.413 400.838 188.615 398.013Z" fill="#B1A28B"/>
<path d="M198.104 402.453L201.526 394.411L205.639 396.161L202.013 404.682C200.831 407.461 201.121 408.769 202.75 409.462C204.379 410.155 205.569 409.477 206.752 406.698L210.378 398.178L214.353 399.869L210.93 407.912C208.671 413.221 205.604 414.861 201.243 413.005C196.881 411.149 195.84 407.772 198.104 402.453Z" fill="#B1A28B"/>
<path d="M220.454 402.465L224.567 404.216L219.414 416.325L225.303 418.831L223.838 422.272L213.836 418.016L220.454 402.465Z" fill="#B1A28B"/>
</g>
<g clip-path="url(#clip4_155_5446)">
<path d="M1239.5 400.811C1243.56 428.674 1216.3 468.972 1203.94 472.711C1184.91 478.476 1148.26 454.69 1138.41 434.658C1137.62 433.072 1137.02 431.519 1136.6 429.998C1133.35 418.325 1135.12 398.587 1148.12 390.949C1159.82 384.075 1174.94 387.904 1181.46 386.38C1185.48 385.442 1191.12 378.597 1202 376.055C1212.88 373.513 1231.57 376.285 1238.05 394.79C1238.72 396.712 1239.2 398.729 1239.5 400.811Z" fill="#C3E5F1"/>
<path d="M1240.98 438.778C1236.49 449.034 1218.65 482.673 1204.67 486.34C1190.68 490.009 1160.78 466.724 1151.98 460.499C1144.34 455.079 1138.98 437.582 1137.85 433.403C1147.71 453.441 1184.93 478.514 1203.95 472.75C1216.31 469.002 1243.56 428.698 1239.51 400.827C1242.3 410.551 1245.35 428.798 1240.98 438.778Z" fill="#ACC8D4"/>
<path d="M1182.38 407.197L1185.9 406.373L1189.03 419.751L1185.5 420.575L1182.38 407.197Z" fill="#839CA3"/>
<path d="M1192.31 417.231L1193.75 414.331C1194.88 414.87 1196.19 415.132 1197.17 414.901C1198.24 414.652 1198.61 414.199 1198.46 413.597C1198.32 412.956 1197.59 412.909 1196.35 412.721L1194.53 412.413C1192.96 412.171 1191.42 411.253 1190.97 409.314C1190.43 407.026 1192.05 404.678 1194.96 403.998C1196.47 403.644 1198.3 403.827 1199.81 404.751L1198.56 407.388C1197.51 406.957 1196.66 406.815 1195.67 407.046C1194.81 407.247 1194.35 407.681 1194.48 408.274C1194.63 408.916 1195.44 408.96 1196.77 409.151L1198.54 409.415C1200.35 409.683 1201.56 410.619 1202 412.472C1202.53 414.736 1201.11 417.195 1197.79 417.971C1196.11 418.364 1194.03 418.198 1192.29 417.235L1192.31 417.231Z" fill="#839CA3"/>
<path d="M1205.01 414.263L1206.45 411.363C1207.58 411.902 1208.89 412.164 1209.87 411.933C1210.94 411.684 1211.31 411.231 1211.17 410.629C1211.02 409.988 1210.29 409.941 1209.06 409.753L1207.23 409.445C1205.66 409.203 1204.12 408.285 1203.67 406.346C1203.13 404.058 1204.75 401.71 1207.66 401.03C1209.17 400.676 1211 400.859 1212.51 401.783L1211.26 404.42C1210.22 403.989 1209.36 403.847 1208.37 404.078C1207.51 404.279 1207.05 404.713 1207.19 405.306C1207.34 405.948 1208.15 405.992 1209.47 406.183L1211.24 406.447C1213.06 406.715 1214.27 407.651 1214.7 409.504C1215.23 411.768 1213.81 414.227 1210.49 415.003C1208.81 415.396 1206.73 415.23 1204.99 414.267L1205.01 414.263Z" fill="#839CA3"/>
</g>
<g clip-path="url(#clip5_155_5446)">
<path d="M317.923 184.853C316.404 202.777 293.706 223.885 285.519 224.415C272.909 225.235 253.666 205.109 250.469 191.216C250.211 190.115 250.062 189.06 250.021 188.053C249.702 180.319 253.646 168.295 262.796 165.433C271.029 162.857 279.835 167.438 284.093 167.438C286.714 167.438 291.194 164 298.294 164C305.395 164 316.558 168.441 317.892 180.896C318.031 182.189 318.036 183.513 317.923 184.853Z" fill="#E4CFFA"/>
<path d="M313.346 208.688C309.087 214.416 293.181 232.751 284 233C274.814 233.249 259.676 214.416 255.129 209.264C251.185 204.782 250.397 193.117 250.304 190.353C253.507 204.252 272.914 225.261 285.519 224.441C293.712 223.906 316.404 202.793 317.923 184.864C318.248 191.32 317.496 203.115 313.346 208.688Z" fill="#C2B1D5"/>
<path d="M270.015 178.963H272.316V182.23H274.912V178.963H277.213V187.741H274.912V184.256H272.316V187.741H270.015V178.963Z" fill="#9F91AB"/>
<path d="M280.632 183.503V178.963H282.934V183.773C282.934 185.341 283.336 185.908 284.247 185.908C285.158 185.908 285.586 185.341 285.586 183.773V178.963H287.81V183.503C287.81 186.5 286.688 187.907 284.247 187.907C281.806 187.907 280.632 186.505 280.632 183.503Z" fill="#9F91AB"/>
<path d="M290.843 183.42C290.843 180.475 292.851 178.802 295.179 178.802C296.466 178.802 297.403 179.343 298.016 179.966L296.811 181.451C296.384 181.072 295.956 180.802 295.256 180.802C294.077 180.802 293.196 181.747 293.196 183.342C293.196 184.936 293.917 185.908 295.472 185.908C295.714 185.908 295.982 185.856 296.142 185.747V184.531H294.854V182.641H298.175V186.827C297.558 187.419 296.461 187.907 295.23 187.907C292.795 187.907 290.838 186.422 290.838 183.425L290.843 183.42Z" fill="#9F91AB"/>
<path d="M275.257 195.168H277.718L279.031 198.762C279.191 199.251 279.324 199.791 279.484 200.3H279.536C279.695 199.785 279.829 199.245 279.989 198.762L281.245 195.168H283.706V203.946H281.616V201.354C281.616 200.461 281.801 199.1 281.909 198.222H281.858L281.137 200.331L280.066 203.234H278.835L277.764 200.331L277.069 198.222H277.018C277.126 199.1 277.311 200.466 277.311 201.354V203.946H275.251V195.168H275.257Z" fill="#9F91AB"/>
<path d="M287.182 195.168H292.805V197.111H289.484V198.487H292.321V200.43H289.484V201.998H292.939V203.941H287.182V195.163V195.168Z" fill="#9F91AB"/>
</g>
<g clip-path="url(#clip6_155_5446)">
<path d="M647.387 422.939C640.252 441.144 608.288 455.752 598.901 453.629C584.442 450.365 568.845 423.078 569.445 407.536C569.488 406.303 569.639 405.154 569.897 404.089C571.877 395.915 579.96 384.659 591.137 384.662C601.196 384.665 609.732 392.322 614.531 393.713C617.485 394.57 623.574 392.446 631.576 394.766C639.578 397.086 650.815 405.368 648.549 418.799C648.315 420.194 647.92 421.577 647.387 422.939Z" fill="#E4CFFA"/>
<path d="M635.017 446.312C628.485 450.898 605.014 464.831 594.592 462.091C584.164 459.35 572.802 434.752 569.237 427.891C566.148 421.925 568.789 409.496 569.521 406.582C568.925 422.131 584.44 450.394 598.893 453.657C608.287 455.775 640.248 441.161 647.384 422.949C645.796 429.792 641.381 441.853 635.017 446.312Z" fill="#C2B1D5"/>
<path d="M595.18 401.139L597.774 401.891L596.785 405.3L599.71 406.148L600.698 402.739L603.292 403.491L600.636 412.65L598.043 411.897L599.097 408.261L596.172 407.413L595.118 411.049L592.524 410.297L595.18 401.139Z" fill="#9F91AB"/>
<path d="M605.772 409.345L607.145 404.608L609.739 405.36L608.284 410.378C607.809 412.015 608.091 412.737 609.118 413.035C610.145 413.333 610.798 412.882 611.272 411.245L612.727 406.227L615.234 406.954L613.861 411.69C612.954 414.817 611.263 415.919 608.513 415.121C605.762 414.324 604.863 412.477 605.772 409.345Z" fill="#9F91AB"/>
<path d="M617.304 412.594C618.195 409.522 620.964 408.433 623.587 409.193C625.037 409.614 625.93 410.484 626.432 411.334L624.625 412.491C624.258 411.955 623.858 411.534 623.069 411.305C621.74 410.92 620.462 411.618 619.979 413.282C619.497 414.946 620.015 416.195 621.768 416.703C622.04 416.782 622.358 416.815 622.571 416.754L622.938 415.485L621.488 415.065L622.06 413.092L625.803 414.177L624.536 418.545C623.661 418.961 622.277 419.112 620.89 418.71C618.145 417.914 616.39 415.725 617.296 412.598L617.304 412.594Z" fill="#9F91AB"/>
</g>
<g clip-path="url(#clip7_155_5446)">
<path d="M1158.03 327.587C1161.62 352.62 1137.08 388.748 1125.99 392.077C1108.9 397.211 1076.06 375.763 1067.26 357.751C1066.56 356.324 1066.02 354.928 1065.65 353.561C1062.76 343.07 1064.38 325.347 1076.05 318.518C1086.56 312.371 1100.13 315.846 1105.98 314.491C1109.59 313.658 1114.66 307.524 1124.43 305.266C1134.2 303.008 1150.96 305.541 1156.73 322.176C1157.34 323.903 1157.76 325.715 1158.03 327.587Z" fill="#E4CFFA"/>
<path d="M1159.28 361.688C1155.24 370.888 1139.17 401.058 1126.62 404.319C1114.06 407.582 1087.27 386.601 1079.39 380.989C1072.54 376.104 1067.77 360.377 1066.76 356.622C1075.57 374.64 1108.92 397.245 1125.99 392.112C1137.09 388.775 1161.62 352.641 1158.03 327.601C1160.52 336.34 1163.23 352.735 1159.28 361.688Z" fill="#C2B1D5"/>
<path d="M1090.27 334.754L1093.43 334.022L1094.47 338.496L1098.04 337.671L1097 333.197L1100.17 332.465L1102.95 344.487L1099.78 345.219L1098.68 340.446L1095.11 341.271L1096.21 346.044L1093.05 346.776L1090.27 334.754Z" fill="#9F91AB"/>
<path d="M1106.31 337.595L1104.87 331.377L1108.04 330.646L1109.56 337.233C1110.06 339.381 1110.79 340.029 1112.04 339.739C1113.3 339.449 1113.71 338.538 1113.21 336.39L1111.69 329.802L1114.75 329.095L1116.18 335.312C1117.13 339.417 1116.03 341.702 1112.68 342.478C1109.32 343.254 1107.26 341.707 1106.31 337.595Z" fill="#9F91AB"/>
<path d="M1120.33 334.234C1119.4 330.201 1121.63 327.271 1124.83 326.531C1126.6 326.122 1128.06 326.564 1129.1 327.223L1127.91 329.64C1127.21 329.257 1126.53 329.023 1125.57 329.246C1123.95 329.621 1123.04 331.195 1123.54 333.379C1124.05 335.563 1125.35 336.664 1127.48 336.17C1127.82 336.093 1128.17 335.936 1128.35 335.736L1127.97 334.072L1126.2 334.481L1125.6 331.892L1130.17 330.835L1131.49 336.569C1130.83 337.577 1129.48 338.594 1127.78 338.986C1124.43 339.76 1121.27 338.348 1120.32 334.243L1120.33 334.234Z" fill="#9F91AB"/>
<path d="M1102.61 355.282L1106 354.499L1108.94 359.005C1109.31 359.623 1109.67 360.32 1110.05 360.966L1110.12 360.95C1110.18 360.195 1110.19 359.412 1110.26 358.7L1110.85 353.378L1114.23 352.595L1117.01 364.617L1114.14 365.282L1113.32 361.732C1113.03 360.509 1112.86 358.586 1112.73 357.349L1112.66 357.366L1112.33 360.483L1111.78 364.801L1110.09 365.192L1107.69 361.556L1106.07 358.889L1106 358.905C1106.43 360.073 1107.11 361.885 1107.39 363.101L1108.22 366.651L1105.38 367.306L1102.6 355.284L1102.61 355.282Z" fill="#9F91AB"/>
<path d="M1119.01 351.49L1126.75 349.702L1127.36 352.362L1122.79 353.419L1123.23 355.304L1127.13 354.402L1127.75 357.062L1123.85 357.964L1124.34 360.113L1129.09 359.014L1129.71 361.675L1121.79 363.505L1119.01 351.483L1119.01 351.49Z" fill="#9F91AB"/>
</g>
<g clip-path="url(#clip8_155_5446)">
<path d="M1328.89 399.315C1326.75 424.513 1294.7 454.186 1283.15 454.931C1265.34 456.084 1238.18 427.791 1233.66 408.26C1233.3 406.712 1233.09 405.23 1233.03 403.813C1232.58 392.941 1238.15 376.038 1251.07 372.015C1262.69 368.394 1275.12 374.834 1281.13 374.834C1284.83 374.834 1291.16 370 1301.18 370C1311.21 370 1326.97 376.243 1328.85 393.752C1329.04 395.57 1329.05 397.432 1328.89 399.315Z" fill="#E4CFFA"/>
<path d="M1322.43 432.822C1316.42 440.875 1293.96 466.65 1281 467C1268.03 467.35 1246.66 440.875 1240.24 433.632C1234.67 427.331 1233.56 410.932 1233.43 407.048C1237.95 426.586 1265.35 456.121 1283.14 454.967C1294.71 454.215 1326.75 424.535 1328.89 399.33C1329.35 408.406 1328.29 424.987 1322.43 432.822Z" fill="#C2B1D5"/>
<path d="M1261.26 391.036H1264.51V395.628H1268.17V391.036H1271.42V403.375H1268.17V398.476H1264.51V403.375H1261.26V391.036Z" fill="#9F91AB"/>
<path d="M1276.25 397.417V391.036H1279.5V397.797C1279.5 400.002 1280.06 400.798 1281.35 400.798C1282.64 400.798 1283.24 400.002 1283.24 397.797V391.036H1286.38V397.417C1286.38 401.63 1284.8 403.609 1281.35 403.609C1277.9 403.609 1276.25 401.637 1276.25 397.417Z" fill="#9F91AB"/>
<path d="M1290.66 397.3C1290.66 393.16 1293.5 390.809 1296.78 390.809C1298.6 390.809 1299.92 391.569 1300.79 392.445L1299.09 394.533C1298.48 394 1297.88 393.62 1296.89 393.62C1295.23 393.62 1293.98 394.949 1293.98 397.191C1293.98 399.432 1295 400.798 1297.2 400.798C1297.54 400.798 1297.92 400.725 1298.14 400.571V398.863H1296.32V396.205H1301.01V402.09C1300.14 402.922 1298.59 403.609 1296.86 403.609C1293.42 403.609 1290.65 401.52 1290.65 397.307L1290.66 397.3Z" fill="#9F91AB"/>
</g>
<path d="M70.9465 355.884C78.7738 382.209 57.4356 422.593 45.768 427.026C27.8069 433.857 -11.5953 413.698 -24.0637 395.258C-25.0571 393.799 -25.8664 392.357 -26.4914 390.934C-31.293 380.013 -32.2611 361.039 -20.4935 352.838C-9.90513 345.458 5.53032 348.06 11.7534 346.149C15.5836 344.973 20.203 338.043 30.5799 334.857C40.9568 331.67 59.76 333.013 68.6904 350.234C69.6185 352.021 70.3685 353.914 70.9541 355.882L70.9465 355.884Z" fill="#FFD1DE"/>
<path d="M77.4161 392.825C74.4098 402.891 61.4721 436.129 48.2424 440.595C35.0053 445.063 2.46043 425.016 -7.03308 419.713C-15.2728 415.101 -22.9246 398.838 -24.6078 394.946C-12.1942 413.309 27.7798 434.545 45.677 427.732C57.3077 423.302 78.5782 383.068 70.7928 356.849C74.865 365.9 80.3473 383.038 77.4115 392.834L77.4161 392.825Z" fill="#E0B8C3"/>
<path d="M-3.16357 373.211L0.23494 372.166L4.10041 382.041L8.96628 380.545L10.0648 383.352L1.80043 385.893L-3.16357 373.211Z" fill="#B3929B"/>
<path d="M9.44513 376.16C7.81916 372.01 9.3017 368.946 12.8375 367.86C16.3733 366.775 19.6894 368.39 21.3066 372.518C22.9238 376.645 21.4968 379.851 17.9611 380.937C14.4253 382.023 11.0711 380.31 9.44513 376.16ZM17.8539 373.578C16.9561 371.287 15.4941 370.256 13.9605 370.727C12.4268 371.197 12 372.809 12.8978 375.1C13.7956 377.391 15.3015 378.534 16.8352 378.063C18.3688 377.592 18.7517 375.869 17.8539 373.578Z" fill="#B3929B"/>
<path d="M20.3423 365.58L23.9148 364.483L27.4092 369.579C28.2875 370.806 29.0333 372.039 29.9204 373.288L29.9959 373.265C29.8188 371.798 29.5669 370.421 29.3729 368.976L28.5144 363.07L31.9736 362.008L33.1456 375.776L29.0596 377.03L20.3498 365.577L20.3423 365.58Z" fill="#B3929B"/>
<path d="M34.0054 361.133L42.3031 358.582L43.4014 361.387L38.5002 362.894L39.2784 364.882L43.4652 363.594L44.5635 366.4L40.3766 367.687L41.2634 369.953L46.3621 368.385L47.4604 371.19L38.965 373.802L34.0024 361.126L34.0054 361.133Z" fill="#B3929B"/>
<path d="M15.9245 403.366L8.82715 396.276L12.4406 395.166L14.4214 397.519C15.1104 398.37 15.7627 399.149 16.4845 400.04L16.5601 400.017C16.5036 398.921 16.4939 397.946 16.4624 396.893L16.3716 393.959L19.9095 392.872L19.296 402.331L20.999 406.677L17.6198 407.715L15.9169 403.369L15.9245 403.366Z" fill="#B3929B"/>
<path d="M23.6561 398.497C22.0301 394.347 23.5126 391.283 27.0484 390.197C30.5842 389.111 33.9003 390.727 35.5175 394.854C37.1347 398.982 35.7078 402.188 32.172 403.273C28.6362 404.359 25.282 402.646 23.6561 398.497ZM32.0649 395.914C31.1671 393.623 29.7051 392.592 28.1714 393.063C26.6377 393.534 26.2109 395.145 27.1087 397.436C28.0065 399.728 29.5124 400.871 31.0461 400.4C32.5798 399.929 32.9627 398.206 32.0649 395.914Z" fill="#B3929B"/>
<path d="M38.7865 393.907L36.2266 387.372L39.61 386.333L42.3223 393.256C43.2069 395.514 44.1165 396.148 45.4563 395.736C46.796 395.325 47.105 394.317 46.2205 392.059L43.5082 385.136L46.7781 384.131L49.3381 390.666C51.0281 394.98 50.1718 397.513 46.584 398.615C42.9961 399.717 40.4795 398.228 38.7865 393.907Z" fill="#B3929B"/>
<path d="M1489.29 65.1263C1482.69 105.158 1429.92 146.735 1412.2 145.75C1384.92 144.246 1347.26 93.7187 1342.96 61.5224C1342.61 58.9698 1342.48 56.5515 1342.58 54.2674C1343.33 36.7354 1354.07 10.6613 1374.29 6.64105C1392.49 3.0212 1410.58 15.6999 1419.75 16.8335C1425.39 17.5313 1435.67 10.967 1450.95 12.8574C1466.23 14.7477 1489.42 27.7379 1489.98 56.1909C1490.03 59.1455 1489.8 62.1348 1489.31 65.1277L1489.29 65.1263Z" fill="#FFD1DE"/>
<path d="M1474.48 118.187C1464.27 129.937 1426.71 166.935 1406.95 165.06C1387.17 163.183 1358.16 116.828 1349.36 104.039C1341.72 92.9276 1342.19 66.4933 1342.5 60.2555C1346.79 92.3513 1384.56 144.731 1411.78 146.23C1429.48 147.201 1482.13 105.756 1488.72 65.8521C1488.22 80.452 1484.41 106.77 1474.46 118.198L1474.48 118.187Z" fill="#E0B8C3"/>
<path d="M1383.2 44.4881L1388.19 45.1046L1386.91 60.626L1394.05 61.5087L1393.69 65.9198L1381.56 64.4206L1383.2 44.4881Z" fill="#B3929B"/>
<path d="M1397.67 56.0012C1398.21 49.466 1402.04 46.2344 1407.24 46.8777C1412.44 47.521 1415.65 51.6592 1415.12 58.1592C1414.58 64.6591 1410.74 68.114 1405.54 67.4707C1400.34 66.8275 1397.14 62.5364 1397.67 56.0012ZM1410.04 57.531C1410.34 53.9225 1409.12 51.6703 1406.87 51.3912C1404.61 51.1122 1403.05 53.0209 1402.75 56.6293C1402.45 60.2378 1403.66 62.6664 1405.91 62.9454C1408.17 63.2245 1409.74 61.1395 1410.04 57.531Z" fill="#B3929B"/>
<path d="M1418.52 48.3659L1423.77 49.016L1425.02 57.9319C1425.37 60.1001 1425.55 62.1992 1425.89 64.4026L1426 64.4163C1426.7 62.3421 1427.25 60.3441 1427.91 58.2892L1430.54 49.8529L1435.63 50.4823L1428.44 69.6568L1422.44 68.9134L1418.53 48.3673L1418.52 48.3659Z" fill="#B3929B"/>
<path d="M1439.02 50.6159L1451.2 52.1217L1450.84 56.5316L1443.64 55.6422L1443.38 58.767L1449.53 59.5267L1449.17 63.9367L1443.02 63.1769L1442.72 66.7379L1450.21 67.6632L1449.85 72.0731L1437.37 70.5315L1439.02 50.6041L1439.02 50.6159Z" fill="#B3929B"/>
<path d="M1388.8 95.8595L1384.2 82.1299L1389.51 82.7871L1390.56 87.1215C1390.9 88.6726 1391.25 90.1047 1391.61 91.7291L1391.72 91.7429C1392.34 90.2395 1392.94 88.9242 1393.56 87.4928L1395.29 83.5022L1400.5 84.1457L1393.75 96.4728L1393.19 103.316L1388.22 102.702L1388.78 95.8582L1388.8 95.8595Z" fill="#B3929B"/>
<path d="M1401.99 94.0064C1402.53 87.4712 1406.35 84.2397 1411.55 84.8829C1416.75 85.5262 1419.97 89.6645 1419.43 96.1644C1418.9 102.664 1415.05 106.119 1409.85 105.476C1404.65 104.833 1401.45 100.542 1401.99 94.0064ZM1414.36 95.5363C1414.65 91.9278 1413.44 89.6755 1411.18 89.3965C1408.93 89.1175 1407.36 91.0261 1407.07 94.6346C1406.77 98.2431 1407.97 100.672 1410.23 100.951C1412.48 101.23 1414.06 99.1448 1414.36 95.5363Z" fill="#B3929B"/>
<path d="M1424.49 96.9317L1425.34 86.6468L1430.32 87.2619L1429.42 98.1587C1429.12 101.712 1429.88 103.102 1431.85 103.346C1433.82 103.59 1434.85 102.421 1435.15 98.8674L1436.04 87.9706L1440.85 88.5651L1440 98.8499C1439.44 105.64 1436.75 108.529 1431.48 107.877C1426.21 107.224 1423.93 103.733 1424.49 96.9317Z" fill="#B3929B"/>
<path d="M1145.95 413.126C1139.35 453.158 1086.58 494.735 1068.86 493.75C1041.58 492.246 1003.92 441.719 999.614 409.522C999.265 406.97 999.14 404.551 999.239 402.267C999.991 384.735 1010.73 358.661 1030.95 354.641C1049.15 351.021 1067.24 363.7 1076.41 364.834C1082.05 365.531 1092.33 358.967 1107.61 360.857C1122.89 362.748 1146.08 375.738 1146.63 404.191C1146.69 407.145 1146.46 410.135 1145.96 413.128L1145.95 413.126Z" fill="#FFD1DE"/>
<path d="M1131.13 466.187C1120.93 477.937 1083.36 514.935 1063.6 513.06C1043.83 511.183 1014.82 464.828 1006.01 452.039C998.376 440.928 998.85 414.493 999.153 408.255C1003.45 440.351 1041.22 492.731 1068.44 494.23C1086.13 495.201 1138.78 453.756 1145.38 413.852C1144.87 428.452 1141.07 454.77 1131.12 466.198L1131.13 466.187Z" fill="#E0B8C3"/>
<path d="M1039.86 392.488L1044.85 393.105L1043.57 408.626L1050.71 409.509L1050.35 413.92L1038.21 412.421L1039.86 392.488Z" fill="#B3929B"/>
<path d="M1054.33 404.001C1054.87 397.466 1058.7 394.234 1063.9 394.878C1069.1 395.521 1072.31 399.659 1071.78 406.159C1071.24 412.659 1067.4 416.114 1062.2 415.471C1057 414.827 1053.79 410.536 1054.33 404.001ZM1066.7 405.531C1067 401.923 1065.78 399.67 1063.52 399.391C1061.27 399.112 1059.71 401.021 1059.41 404.629C1059.11 408.238 1060.32 410.666 1062.57 410.945C1064.83 411.224 1066.4 409.14 1066.7 405.531Z" fill="#B3929B"/>
<path d="M1075.18 396.366L1080.43 397.016L1081.68 405.932C1082.03 408.1 1082.21 410.199 1082.55 412.403L1082.66 412.416C1083.36 410.342 1083.91 408.344 1084.57 406.289L1087.2 397.853L1092.28 398.482L1085.1 417.657L1079.09 416.913L1075.19 396.367L1075.18 396.366Z" fill="#B3929B"/>
<path d="M1095.67 398.616L1107.86 400.122L1107.5 404.532L1100.3 403.642L1100.04 406.767L1106.19 407.527L1105.82 411.937L1099.68 411.177L1099.38 414.738L1106.87 415.663L1106.5 420.073L1094.03 418.532L1095.68 398.604L1095.67 398.616Z" fill="#B3929B"/>
<g clip-path="url(#clip9_155_5446)">
<path d="M73.5818 96.3966C68.1171 117.064 37.1507 137.096 27.4363 136.031C12.4727 134.394 -5.96828 106.874 -6.86537 89.9527C-6.94121 88.6109 -6.89978 87.346 -6.74109 86.1581C-5.52673 77.0401 1.57119 63.7784 12.8944 62.313C23.0836 60.9932 32.4729 68.1685 37.469 69.0455C40.544 69.5852 46.5062 66.4832 54.8371 67.9454C63.1679 69.4077 75.3529 76.9046 74.3587 91.7577C74.2561 93.3001 73.99 94.8514 73.5818 96.3966Z" fill="#BDE5DD"/>
<path d="M63.3144 123.352C57.1413 129.181 34.7131 147.366 23.8904 145.767C13.0616 144.167 -0.830219 119.006 -5.10605 112.038C-8.81271 105.98 -7.3403 92.163 -6.88135 88.9096C-5.97928 105.838 12.4736 134.426 27.4312 136.061C37.1526 137.122 68.1141 117.082 73.5799 96.4088C72.6341 104.032 69.3286 117.684 63.3144 123.352Z" fill="#A6C3BF"/>
<path d="M13.4097 92.6531L11.6771 87.1977L14.6917 87.7268L15.0858 89.5257C15.2201 90.038 15.3433 90.6487 15.5109 91.3612L15.5713 91.3718C15.9051 90.7473 16.229 90.2151 16.4995 89.7738L17.3921 88.2008L20.2798 88.7077L16.7715 93.3685L18.6335 99.0095L15.6189 98.4804L15.1256 96.5012C14.9658 95.9217 14.8432 95.3425 14.7005 94.6657L14.6401 94.6551C14.3116 95.2492 13.9942 95.7449 13.6817 96.2478L12.6043 97.9512L9.71662 97.4444L13.4097 92.6531Z" fill="#8CABA6"/>
<path d="M21.7305 94.2076C22.3238 90.8274 24.5718 89.2668 27.3991 89.7631C30.2264 90.2593 31.8053 92.5105 31.2152 95.8724C30.6251 99.2344 28.3568 100.911 25.5295 100.414C22.7022 99.918 21.1372 97.5878 21.7305 94.2076ZM28.4544 95.3878C28.782 93.5214 28.2157 92.3128 26.9893 92.0976C25.763 91.8823 24.8189 92.8258 24.4913 94.6922C24.1637 96.5586 24.714 97.8584 25.9404 98.0737C27.1667 98.2889 28.1268 97.2542 28.4544 95.3878Z" fill="#8CABA6"/>
<path d="M36.1851 96.6508L34.4525 91.1954L37.467 91.7245L37.8612 93.5233C37.9955 94.0357 38.1187 94.6464 38.2863 95.3589L38.3467 95.3695C38.6805 94.745 39.0044 94.2128 39.2749 93.7715L40.1675 92.1985L43.0552 92.7054L39.5469 97.3662L41.4088 103.007L38.3943 102.478L37.901 100.499C37.7411 99.9194 37.6186 99.3402 37.4759 98.6634L37.4155 98.6527C37.087 99.2468 36.7696 99.7426 36.4571 100.245L35.3797 101.949L32.492 101.442L36.1851 96.6508Z" fill="#8CABA6"/>
<path d="M44.5064 98.2053C45.0997 94.8251 47.3477 93.2645 50.175 93.7608C53.0023 94.257 54.5812 96.5082 53.9911 99.8701C53.401 103.232 51.1327 104.908 48.3054 104.412C45.4781 103.916 43.9131 101.585 44.5064 98.2053ZM51.2302 99.3855C51.5578 97.5191 50.9916 96.3105 49.7652 96.0953C48.5388 95.88 47.5948 96.8235 47.2672 98.6899C46.9396 100.556 47.4899 101.856 48.7162 102.071C49.9426 102.287 50.9026 101.252 51.2302 99.3855Z" fill="#8CABA6"/>
</g>
<path d="M503.254 223.95C492.757 277.626 421.752 334.084 398.604 333.042C362.964 331.451 315.994 264.417 311.845 221.396C311.505 217.986 311.453 214.751 311.688 211.693C313.484 188.219 328.744 153.158 355.404 147.465C379.394 142.338 402.496 159.025 414.44 160.4C421.791 161.246 435.552 152.302 455.469 154.595C475.385 156.888 505.151 173.912 504.558 211.981C504.498 215.934 504.052 219.939 503.268 223.952L503.254 223.95Z" fill="#F6E7CA"/>
<path d="M482.123 294.499C468.186 310.437 417.194 360.707 391.357 358.496C365.505 356.283 329.596 294.482 318.636 277.443C309.131 262.64 310.979 227.133 311.666 218.751C315.814 261.787 362.938 331.543 398.579 333.134C421.743 334.162 492.736 277.686 503.234 223.995C501.898 243.609 495.686 279.012 482.106 294.513L482.123 294.499Z" fill="#DDCCAE"/>
<path d="M364.824 195.926L358.369 195.183L359.044 189.313L378.426 191.544L377.75 197.414L371.295 196.671L368.917 217.327L362.461 216.583L364.839 195.928L364.824 195.926Z" fill="#B1A28B"/>
<path d="M386.341 192.455L395.584 193.519C400.841 194.124 405.121 196.605 404.36 203.213C403.6 209.821 398.812 211.751 393.555 211.146L390.782 210.826L389.757 219.726L383.302 218.983L386.355 192.457L386.341 192.455ZM393.73 205.552C396.287 205.846 397.771 204.776 398.035 202.485C398.299 200.193 397.024 199.315 394.482 199.022L392.157 198.755L391.405 205.284L393.73 205.552ZM392.595 209.19L397.491 205.046L403.649 221.341L396.442 220.511L392.609 209.192L392.595 209.19Z" fill="#B1A28B"/>
<path d="M412.592 209.377L414.171 195.659L420.627 196.402L418.954 210.937C418.408 215.677 419.338 217.517 421.894 217.812C424.45 218.106 425.846 216.533 426.392 211.793L428.065 197.259L434.304 197.977L432.725 211.695C431.682 220.751 428.044 224.643 421.198 223.854C414.353 223.066 411.548 218.449 412.592 209.377Z" fill="#B1A28B"/>
<path d="M443.865 199.078L459.636 200.894L458.96 206.764L449.645 205.691L449.166 209.851L457.124 210.767L456.448 216.637L448.49 215.721L447.945 220.461L457.635 221.577L456.96 227.447L440.813 225.588L443.867 199.062L443.865 199.078Z" fill="#B1A28B"/>
<path d="M357.682 238.776L364.138 239.519L361.76 260.175L371.003 261.239L370.327 267.109L354.628 265.302L357.682 238.776Z" fill="#B1A28B"/>
<path d="M377.833 254.408C378.838 245.681 383.98 241.311 390.739 242.089C397.498 242.868 401.507 248.339 400.508 257.019C399.508 265.698 394.332 270.367 387.573 269.588C380.814 268.81 376.828 263.135 377.833 254.408ZM393.907 256.259C394.462 251.44 392.977 248.454 390.045 248.117C387.113 247.779 384.988 250.349 384.433 255.168C383.878 259.987 385.337 263.208 388.269 263.546C391.2 263.883 393.353 261.077 393.907 256.259Z" fill="#B1A28B"/>
<path d="M407.248 244.482L414.079 245.269L415.302 257.147C415.657 260.034 415.789 262.833 416.139 265.767L416.283 265.784C417.291 263.006 418.096 260.331 419.057 257.579L422.875 246.281L429.489 247.043L419.229 272.739L411.416 271.84L407.262 244.484L407.248 244.482Z" fill="#B1A28B"/>
<path d="M435.757 247.765L451.529 249.581L450.853 255.451L441.537 254.378L441.059 258.538L449.016 259.454L448.341 265.324L440.383 264.408L439.837 269.148L449.528 270.264L448.852 276.134L432.706 274.275L435.759 247.749L435.757 247.765Z" fill="#B1A28B"/>
<path d="M73.012 431.673C81.1928 454.483 66.9757 492.077 57.9294 496.931C44.0042 504.411 10.9222 489.552 -0.415765 474.12C-1.31846 472.899 -2.07196 471.68 -2.67625 470.463C-7.31785 461.121 -9.46289 444.316 -0.607992 436.102C7.35936 428.709 19.9373 429.819 24.7949 427.633C27.7847 426.288 30.9931 419.762 39.0931 416.117C47.1931 412.472 62.3836 412.199 70.7936 426.822C71.6675 428.341 72.4059 429.966 73.0179 431.671L73.012 431.673Z" fill="#F6E7CA"/>
<path d="M978.009 276.684C975.1 313.666 931.635 357.216 915.957 358.309C891.819 360.003 854.971 318.477 848.837 289.812C848.344 287.54 848.058 285.365 847.98 283.286C847.368 267.329 854.931 242.521 872.453 236.617C888.22 231.302 905.081 240.753 913.236 240.753C918.255 240.753 926.833 233.659 940.431 233.659C954.028 233.659 975.406 242.821 977.96 268.519C978.226 271.187 978.236 273.92 978.019 276.684H978.009Z" fill="#F6E7CA"/>
<path d="M969.243 325.86C961.089 337.68 930.63 375.508 913.049 376.023C895.458 376.537 866.468 337.68 857.761 327.05C850.208 317.812 848.7 293.744 848.512 288.043C854.645 316.719 891.809 360.066 915.948 358.373C931.636 357.269 975.09 313.708 977.999 276.716C978.62 290.036 977.181 314.373 969.233 325.871L969.243 325.86Z" fill="#DDCCAE"/>
<path d="M882.56 268.54H878.152V264.532H891.385V268.54H886.977V282.643H882.57V268.54H882.56Z" fill="#B1A28B"/>
<path d="M896.789 264.532H903.099C906.688 264.532 909.765 265.872 909.765 270.383C909.765 274.895 906.688 276.567 903.099 276.567H901.206V282.643H896.798V264.532H896.789ZM902.784 272.784C904.529 272.784 905.446 271.948 905.446 270.383C905.446 268.819 904.519 268.326 902.784 268.326H901.196V272.784H902.784ZM902.301 275.324L905.278 272.152L910.692 282.653H905.771L902.31 275.324H902.301Z" fill="#B1A28B"/>
<path d="M915.79 273.898V264.532H920.197V274.456C920.197 277.692 920.966 278.86 922.712 278.86C924.457 278.86 925.275 277.692 925.275 274.456V264.532H929.535V273.898C929.535 280.082 927.385 282.986 922.712 282.986C918.038 282.986 915.79 280.092 915.79 273.898Z" fill="#B1A28B"/>
<path d="M936.062 264.532H946.83V268.54H940.47V271.38H945.903V275.388H940.47V278.624H947.086V282.632H936.062V264.522V264.532Z" fill="#B1A28B"/>
<path d="M881.071 297.966H885.479V312.069H891.79V316.077H881.071V297.966Z" fill="#B1A28B"/>
<path d="M895.862 306.937C895.862 300.979 898.988 297.635 903.602 297.635C908.217 297.635 911.343 301.011 911.343 306.937C911.343 312.863 908.217 316.41 903.602 316.41C898.988 316.41 895.862 312.895 895.862 306.937ZM906.836 306.937C906.836 303.647 905.604 301.75 903.602 301.75C901.601 301.75 900.368 303.647 900.368 306.937C900.368 310.227 901.601 312.284 903.602 312.284C905.604 312.284 906.836 310.227 906.836 306.937Z" fill="#B1A28B"/>
<path d="M914.912 297.966H919.576L921.321 305.875C921.785 307.793 922.09 309.668 922.554 311.619H922.653C923.116 309.668 923.451 307.804 923.885 305.875L925.581 297.966H930.097L925.177 316.077H919.842L914.922 297.966H914.912Z" fill="#B1A28B"/>
<path d="M934.376 297.967H945.144V301.975H938.784V304.815H944.217V308.822H938.784V312.059H945.4V316.067H934.376V297.956V297.967Z" fill="#B1A28B"/>
<path d="M397.004 316.883C379.598 375.305 294.764 430.318 269.196 426.677C229.827 421.087 184.914 341.677 184.928 293.504C184.918 289.684 185.208 286.09 185.797 282.723C190.308 256.873 211.001 219.615 241.189 216.16C268.354 213.048 292.193 234.04 305.296 236.847C313.36 238.575 329.587 230.13 351.436 234.811C373.285 239.493 404.48 261.575 399.736 303.745C399.245 308.125 398.32 312.519 397.02 316.887L397.004 316.883Z" fill="#BDE5DD"/>
<path d="M365.988 392.883C348.816 409.068 286.85 459.364 258.423 454.138C229.98 448.908 196.777 376.491 186.446 356.412C177.49 338.969 183.353 299.776 185.014 290.551C184.996 338.74 229.789 421.186 269.158 426.776C294.745 430.404 379.567 375.369 396.977 316.931C393.39 338.548 382.698 377.157 365.969 392.896L365.988 392.883Z" fill="#A6C3BF"/>
<path d="M274.017 266.506L283.65 268.57C289.259 269.772 293.466 272.258 292.237 277.992C291.699 280.506 289.771 283.082 287.52 283.536L287.483 283.709C289.86 285.064 291.459 287.658 290.636 291.498C289.352 297.49 284.01 299.065 278.243 297.829L267.786 295.589L274.021 266.489L274.017 266.506ZM281.057 279.901C283.37 280.396 284.683 279.453 285.066 277.662C285.45 275.871 284.528 274.917 282.23 274.425L279.838 273.912L278.668 279.371L281.061 279.883L281.057 279.901ZM279.017 291.818C281.822 292.419 283.365 291.633 283.827 289.481C284.288 287.328 283.146 286.237 280.342 285.636L277.458 285.019L276.134 291.2L279.017 291.818Z" fill="#8CABA6"/>
<path d="M303.963 272.922L321.264 276.629L319.884 283.069L309.665 280.88L308.687 285.443L317.417 287.313L316.038 293.753L307.307 291.882L306.193 297.083L316.825 299.361L315.445 305.8L297.731 302.005L303.966 272.905L303.963 272.922Z" fill="#8CABA6"/>
<path d="M234.035 314.129L241.608 315.751L243.095 328.533C243.24 330.256 243.268 332.135 243.398 333.928L243.556 333.962C244.412 332.363 245.208 330.66 246.042 329.164L252.461 318.077L260.035 319.7L253.8 348.8L247.367 347.421L249.208 338.829C249.843 335.867 251.38 331.478 252.336 328.639L252.177 328.606L248.461 335.121L243.103 344.04L239.317 343.229L238.084 332.898L237.443 325.448L237.284 325.414C236.993 328.396 236.593 333.047 235.963 335.991L234.121 344.583L227.784 343.225L234.019 314.125L234.035 314.129Z" fill="#8CABA6"/>
<path d="M270.745 321.994L277.827 323.512L271.592 352.612L264.51 351.095L270.745 321.994Z" fill="#8CABA6"/>
<path d="M288.491 325.797L295.747 327.351L298.891 341.604L300.04 348.694L300.198 348.728C300.537 345.523 300.908 341.01 301.675 337.428L303.479 329.008L310.229 330.454L303.994 359.554L296.737 358L293.604 343.695L292.444 336.657L292.286 336.623C291.91 340 291.577 344.341 290.809 347.923L289.005 356.343L282.256 354.897L288.491 325.797Z" fill="#8CABA6"/>
<path d="M320.923 332.746L338.225 336.453L336.845 342.893L326.625 340.704L325.648 345.267L334.378 347.137L332.998 353.577L324.268 351.707L323.154 356.907L333.785 359.185L332.405 365.624L314.692 361.829L320.927 332.729L320.923 332.746Z" fill="#8CABA6"/>
<path d="M1137.68 202.204C1132.9 262.976 1061.47 334.542 1035.71 336.338C996.043 339.121 935.49 270.883 925.411 223.776C924.601 220.043 924.131 216.468 924.002 213.052C922.997 186.831 935.425 146.064 964.219 136.361C990.128 127.627 1017.84 143.159 1031.24 143.159C1039.48 143.159 1053.58 131.501 1075.93 131.501C1098.27 131.501 1133.4 146.557 1137.6 188.786C1138.03 193.171 1138.05 197.661 1137.69 202.204H1137.68Z" fill="#BDE5DD"/>
<path d="M1123.27 283.015C1109.87 302.439 1059.82 364.602 1030.93 365.447C1002.02 366.292 954.383 302.439 940.075 284.97C927.663 269.79 925.184 230.239 924.876 220.87C934.955 267.994 996.026 339.226 1035.69 336.444C1061.47 334.63 1132.88 263.046 1137.66 202.257C1138.68 224.146 1136.32 264.138 1123.26 283.033L1123.27 283.015Z" fill="#A6C3BF"/>
<path d="M1006.87 178.712H1016.72C1022.45 178.712 1027.09 180.262 1027.09 186.126C1027.09 188.697 1025.74 191.62 1023.64 192.536V192.712C1026.25 193.54 1028.35 195.741 1028.35 199.668C1028.35 205.796 1023.46 208.455 1017.56 208.455H1006.87V178.695V178.712ZM1016.56 190.335C1018.92 190.335 1020.01 189.137 1020.01 187.306C1020.01 185.474 1018.91 184.735 1016.56 184.735H1014.11V190.317H1016.56V190.335ZM1017.06 202.415C1019.93 202.415 1021.27 201.323 1021.27 199.122C1021.27 196.921 1019.93 196.093 1017.06 196.093H1014.11V202.415H1017.06Z" fill="#8CABA6"/>
<path d="M1037.49 178.712H1055.19V185.298H1044.73V189.965H1053.66V196.551H1044.73V201.869H1055.61V208.455H1037.49V178.695V178.712Z" fill="#8CABA6"/>
<path d="M977.749 233.655H985.494L989.626 245.841C990.128 247.496 990.549 249.327 991.052 251.053H991.214C991.716 249.31 992.137 247.478 992.64 245.841L996.593 233.655H1004.34V263.415H997.76V254.628C997.76 251.599 998.343 246.985 998.684 244.009H998.522L996.253 251.159L992.883 261.003H989.01L985.64 251.159L983.452 244.009H983.29C983.631 246.985 984.214 251.617 984.214 254.628V263.415H977.732V233.655H977.749Z" fill="#8CABA6"/>
<path d="M1015.29 233.655H1022.54V263.415H1015.29V233.655Z" fill="#8CABA6"/>
<path d="M1033.44 233.655H1040.86L1046.92 246.933L1049.53 253.624H1049.69C1049.35 250.419 1048.77 245.929 1048.77 242.266V233.655H1055.67V263.415H1048.25L1042.19 250.085L1039.58 243.446H1039.42C1039.76 246.827 1040.34 251.141 1040.34 254.804V263.415H1033.44V233.655Z" fill="#8CABA6"/>
<path d="M1066.61 233.655H1084.3V240.241H1073.85V244.908H1082.78V251.494H1073.85V256.812H1084.73V263.398H1066.61V233.638V233.655Z" fill="#8CABA6"/>
<path d="M244.773 170.118C246.899 248.163 163.184 353.801 129.672 361.455C78.0782 373.26 -10.6877 299.382 -30.3968 241.763C-31.9738 237.199 -33.083 232.765 -33.7244 228.46C-38.6603 195.426 -28.0022 141.148 8.38886 122.837C41.1342 106.357 79.5861 120.266 97.1455 117.47C107.953 115.749 124.816 98.0273 154.096 93.3644C183.376 88.7015 231.487 100.46 242.815 153.122C243.994 158.59 244.635 164.28 244.795 170.114L244.773 170.118Z" fill="#C3E5F1"/>
<path d="M237.67 276.904C222.829 304.216 165.965 393.115 128.319 400.187C90.6512 407.262 19.5918 336.534 -1.51489 317.449C-19.8284 300.861 -28.5147 251.432 -30.2071 239.667C-10.545 297.077 79.0881 374.331 130.552 362.573C163.999 354.924 247.48 249.691 245.358 171.937C249.706 199.365 252.12 250.356 237.651 276.93L237.67 276.904Z" fill="#ACC8D4"/>
<path d="M37.4124 207.499L23.8384 184.385L34.023 182.764L37.5514 190.278C38.7566 192.983 39.9161 195.467 41.1786 198.3L41.3917 198.266C42.0042 195.135 42.6558 192.363 43.3042 189.363L45.1026 181.002L55.0741 179.415L46.9152 205.987L48.3374 219.036L38.8132 220.552L37.3911 207.502L37.4124 207.499Z" fill="#839CA3"/>
<path d="M61.4369 198.082C60.0789 185.621 66.0679 177.555 76.0347 175.969C86.0014 174.383 93.5218 180.369 94.8725 192.763C96.2231 205.156 90.2806 213.649 80.3138 215.234C70.347 216.82 62.7949 210.543 61.4369 198.082ZM85.1399 194.311C84.3901 187.431 81.2957 183.887 76.9726 184.575C72.6494 185.263 70.4196 189.653 71.1694 196.534C71.9193 203.414 75.0503 207.294 79.3735 206.606C83.6967 205.918 85.8898 201.192 85.1399 194.311Z" fill="#839CA3"/>
<path d="M104.623 192.72L102.485 173.106L112.019 171.589L114.284 192.37C115.023 199.148 116.953 201.329 120.729 200.729C124.504 200.128 126.008 197.401 125.269 190.623L123.004 169.842L132.218 168.376L134.356 187.99C135.768 200.939 131.781 207.761 121.671 209.369C111.56 210.977 106.037 205.692 104.623 192.72Z" fill="#839CA3"/>
<path d="M158.62 193.199C157.224 180.392 174.223 178.28 173.449 171.182C173.271 169.548 172.46 168.857 171.077 169.077C169.588 169.314 168.387 170.803 168.652 173.244C169.262 178.841 178.014 185.262 186 188.433C189.233 189.695 192.35 190.497 194.765 190.409L193.428 198.799C189.48 198.721 185.134 197.568 180.984 195.631C170.838 190.913 161.652 181.897 160.844 174.486C160.249 169.023 163.705 163.599 170.131 162.576C175.875 161.663 180.021 164.556 180.617 170.019C181.734 180.274 166.813 184.766 167.511 191.169C167.765 193.498 169.709 194.851 172.581 194.394C174.9 194.026 177.302 192.231 179.379 189.646C181.84 186.407 183.754 182.321 184.447 177.359L193.085 175.985C192.047 181.958 189.952 187.554 186.394 193.04C183.306 197.676 178.62 201.155 172.195 202.178C163.834 203.508 159.242 198.908 158.62 193.199Z" fill="#839CA3"/>
<path d="M82.4173 248.311L92.5853 246.693L99.6979 261.321C100.587 263.321 101.393 265.561 102.292 267.65L102.505 267.616C102.923 265.295 103.222 262.879 103.655 260.692L107.157 244.375L117.325 242.757L121.448 280.589L112.811 281.963L111.594 270.793C111.174 266.942 111.301 260.956 111.335 257.101L111.123 257.135L109.135 266.698L106.074 279.915L100.99 280.724L95.2018 268.914L91.3395 260.283L91.1268 260.316C91.9858 264.029 93.3932 269.794 93.8104 273.622L95.0278 284.793L86.519 286.147L82.396 248.314L82.4173 248.311Z" fill="#839CA3"/>
<path d="M128.746 241.497L152.118 237.783L153.036 246.197L139.231 248.39L139.881 254.351L151.674 252.477L152.592 260.891L140.799 262.764L141.541 269.558L155.902 267.276L156.82 275.689L132.891 279.491L128.743 241.475L128.746 241.497Z" fill="#839CA3"/>
<path d="M1479.89 356.918C1480.5 379.469 1456.31 409.994 1446.63 412.206C1431.72 415.617 1406.07 394.27 1400.38 377.62C1399.92 376.301 1399.6 375.02 1399.41 373.776C1397.99 364.231 1401.07 348.547 1411.58 343.256C1421.05 338.494 1432.16 342.513 1437.23 341.705C1440.35 341.208 1445.23 336.087 1453.69 334.74C1462.15 333.392 1476.05 336.79 1479.32 352.007C1479.66 353.587 1479.85 355.231 1479.89 356.917L1479.89 356.918Z" fill="#C3E5F1"/>
<path d="M1477.84 387.775C1473.55 395.667 1457.12 421.355 1446.24 423.398C1435.35 425.443 1414.82 405.005 1408.72 399.491C1403.43 394.697 1400.92 380.415 1400.43 377.015C1406.11 393.604 1432.01 415.927 1446.88 412.53C1456.55 410.319 1480.67 379.912 1480.06 357.444C1481.31 365.37 1482.01 380.104 1477.83 387.783L1477.84 387.775Z" fill="#ACC8D4"/>
<path d="M1419.97 367.72L1416.05 361.041L1418.99 360.573L1420.01 362.744C1420.36 363.526 1420.69 364.244 1421.06 365.062L1421.12 365.052C1421.3 364.148 1421.49 363.346 1421.67 362.48L1422.19 360.064L1425.07 359.605L1422.72 367.283L1423.13 371.054L1420.37 371.492L1419.96 367.721L1419.97 367.72Z" fill="#839CA3"/>
<path d="M1426.91 364.999C1426.52 361.399 1428.25 359.068 1431.13 358.609C1434.01 358.151 1436.18 359.881 1436.57 363.462C1436.96 367.043 1435.25 369.497 1432.37 369.955C1429.49 370.414 1427.3 368.6 1426.91 364.999ZM1433.76 363.909C1433.54 361.921 1432.65 360.897 1431.4 361.096C1430.15 361.295 1429.51 362.564 1429.72 364.552C1429.94 366.54 1430.85 367.661 1432.09 367.462C1433.34 367.263 1433.98 365.898 1433.76 363.909Z" fill="#839CA3"/>
<path d="M1439.39 363.45L1438.77 357.782L1441.53 357.344L1442.18 363.349C1442.4 365.307 1442.95 365.938 1444.04 365.764C1445.14 365.59 1445.57 364.802 1445.36 362.844L1444.7 356.839L1447.36 356.416L1447.98 362.083C1448.39 365.825 1447.24 367.796 1444.32 368.261C1441.4 368.725 1439.8 367.198 1439.39 363.45Z" fill="#839CA3"/>
<path d="M1432.97 379.512L1435.91 379.045L1437.97 383.272C1438.22 383.849 1438.46 384.497 1438.72 385.1L1438.78 385.091C1438.9 384.42 1438.99 383.722 1439.11 383.09L1440.12 378.375L1443.06 377.908L1444.25 388.839L1441.76 389.236L1441.41 386.009C1441.28 384.896 1441.32 383.166 1441.33 382.052L1441.27 382.062L1440.69 384.825L1439.81 388.645L1438.34 388.878L1436.67 385.466L1435.55 382.972L1435.49 382.981C1435.74 384.054 1436.15 385.72 1436.27 386.826L1436.62 390.054L1434.16 390.445L1432.97 379.513L1432.97 379.512Z" fill="#839CA3"/>
<path d="M727.681 324.037C728.677 360.614 689.443 410.122 673.738 413.709C649.558 419.242 607.956 384.618 598.719 357.614C597.98 355.475 597.461 353.397 597.16 351.38C594.847 335.898 599.842 310.46 616.897 301.878C632.243 294.155 650.264 300.673 658.494 299.363C663.559 298.556 671.462 290.251 685.184 288.065C698.907 285.88 721.454 291.391 726.763 316.072C727.316 318.634 727.616 321.301 727.691 324.035L727.681 324.037Z" fill="#C3E5F1"/>
<path d="M724.352 374.084C717.397 386.884 690.747 428.547 673.103 431.862C655.45 435.178 622.147 402.03 612.255 393.085C603.672 385.311 599.601 362.146 598.808 356.632C608.023 383.538 650.031 419.744 674.15 414.233C689.825 410.649 728.949 361.33 727.955 324.89C729.993 337.744 731.124 361.642 724.343 374.096L724.352 374.084Z" fill="#ACC8D4"/>
<path d="M630.499 341.556L624.137 330.723L628.91 329.964L630.564 333.485C631.129 334.753 631.672 335.917 632.264 337.245L632.364 337.229C632.651 335.761 632.956 334.462 633.26 333.056L634.103 329.137L638.776 328.394L634.952 340.847L635.619 346.963L631.155 347.673L630.489 341.557L630.499 341.556Z" fill="#839CA3"/>
<path d="M641.758 337.143C641.122 331.303 643.929 327.522 648.6 326.779C653.271 326.036 656.795 328.841 657.428 334.65C658.061 340.458 655.276 344.438 650.605 345.181C645.934 345.924 642.395 342.983 641.758 337.143ZM652.867 335.375C652.516 332.151 651.065 330.49 649.039 330.812C647.013 331.135 645.968 333.192 646.319 336.417C646.671 339.642 648.138 341.46 650.164 341.137C652.191 340.815 653.218 338.6 652.867 335.375Z" fill="#839CA3"/>
<path d="M661.998 334.63L660.996 325.437L665.464 324.726L666.526 334.466C666.872 337.642 667.776 338.665 669.546 338.383C671.315 338.102 672.02 336.823 671.674 333.647L670.612 323.908L674.93 323.221L675.932 332.413C676.594 338.482 674.725 341.679 669.987 342.432C665.249 343.186 662.66 340.709 661.998 334.63Z" fill="#839CA3"/>
<path d="M687.304 334.854C686.65 328.852 694.617 327.862 694.254 324.536C694.171 323.77 693.791 323.446 693.143 323.549C692.445 323.66 691.882 324.358 692.006 325.502C692.292 328.125 696.394 331.134 700.136 332.62C701.651 333.212 703.112 333.588 704.244 333.547L703.618 337.479C701.767 337.442 699.731 336.902 697.785 335.994C693.03 333.783 688.725 329.557 688.347 326.084C688.068 323.524 689.688 320.982 692.699 320.502C695.391 320.074 697.334 321.43 697.613 323.991C698.137 328.796 691.144 330.902 691.471 333.903C691.59 334.994 692.501 335.628 693.847 335.414C694.934 335.241 696.06 334.4 697.033 333.189C698.187 331.671 699.084 329.756 699.408 327.431L703.457 326.786C702.971 329.586 701.988 332.208 700.321 334.779C698.874 336.952 696.678 338.583 693.667 339.062C689.748 339.685 687.596 337.53 687.304 334.854Z" fill="#839CA3"/>
<path d="M651.591 360.683L656.356 359.925L659.689 366.78C660.106 367.717 660.484 368.767 660.905 369.746L661.005 369.73C661.201 368.643 661.341 367.51 661.544 366.485L663.185 358.838L667.95 358.08L669.883 375.811L665.835 376.455L665.264 371.219C665.068 369.415 665.127 366.609 665.143 364.803L665.044 364.818L664.112 369.3L662.678 375.495L660.295 375.874L657.582 370.339L655.772 366.294L655.672 366.309C656.075 368.049 656.735 370.751 656.93 372.545L657.501 377.781L653.513 378.415L651.581 360.684L651.591 360.683Z" fill="#839CA3"/>
<path d="M673.303 357.489L684.257 355.749L684.687 359.692L678.217 360.72L678.522 363.514L684.049 362.635L684.479 366.578L678.952 367.457L679.3 370.64L686.031 369.571L686.461 373.514L675.246 375.296L673.302 357.479L673.303 357.489Z" fill="#839CA3"/>
<path d="M627.693 291.704C623.181 349.067 555.761 416.621 531.442 418.316C494 420.942 436.843 356.531 427.329 312.066C426.564 308.542 426.121 305.168 425.998 301.943C425.05 277.192 436.781 238.712 463.961 229.553C488.417 221.308 514.572 235.969 527.221 235.969C535.006 235.969 548.312 224.965 569.404 224.965C590.496 224.965 623.656 239.177 627.617 279.037C628.03 283.176 628.045 287.415 627.709 291.704H627.693Z" fill="#FFCFCF"/>
<path d="M614.096 367.983C601.447 386.317 554.201 444.994 526.93 445.792C499.644 446.59 454.676 386.317 441.171 369.828C429.455 355.5 427.115 318.166 426.824 309.323C436.338 353.804 493.985 421.042 531.427 418.415C555.761 416.703 623.166 349.133 627.678 291.753C628.642 312.414 626.409 350.164 614.081 368L614.096 367.983Z" fill="#DAACAC"/>
<path d="M459.663 288.778C459.663 279.353 465.628 274.001 472.143 274.001C475.569 274.001 478.353 275.73 480.173 277.724L476.594 282.478C475.325 281.265 474.055 280.4 472.296 280.4C469.268 280.4 466.652 283.426 466.652 288.529C466.652 293.632 468.885 296.74 472.22 296.74C474.208 296.74 475.799 295.61 476.915 294.313L480.494 298.984C478.307 301.744 475.325 303.14 471.99 303.14C465.383 303.14 459.663 298.386 459.663 288.795V288.778Z" fill="#B48A8B"/>
<path d="M486.261 274.515H493.098V284.971H500.806V274.515H507.643V302.607H500.806V291.454H493.098V302.607H486.261V274.515Z" fill="#B48A8B"/>
<path d="M520.185 274.515H528.459L536.336 302.607H529.102L526.165 288.944C525.523 286.267 524.896 282.843 524.253 280.034H524.1C523.55 282.893 522.907 286.251 522.265 288.944L519.328 302.607H512.323L520.2 274.515H520.185ZM517.952 290.888H530.601V296.64H517.952V290.888Z" fill="#B48A8B"/>
<path d="M540.588 274.515H550.377C555.945 274.515 560.717 276.593 560.717 283.591C560.717 290.589 555.945 293.182 550.377 293.182H547.441V302.607H540.604V274.515H540.588ZM549.888 287.315C552.595 287.315 554.017 286.018 554.017 283.591C554.017 281.164 552.58 280.4 549.888 280.4H547.425V287.315H549.888ZM549.138 291.254L553.757 286.334L562.154 302.624H554.522L549.154 291.254H549.138Z" fill="#B48A8B"/>
<path d="M567.829 274.515H575.14L579.04 286.018C579.514 287.581 579.912 289.309 580.386 290.938H580.539C581.013 289.293 581.411 287.564 581.885 286.018L585.617 274.515H592.928V302.607H586.718V294.313C586.718 291.454 587.269 287.099 587.59 284.289H587.437L585.296 291.038L582.114 300.33H578.459L575.277 291.038L573.213 284.289H573.06C573.381 287.099 573.931 291.47 573.931 294.313V302.607H567.813V274.515H567.829Z" fill="#B48A8B"/>
<path d="M502.152 326.377H509.463L513.363 337.88C513.837 339.443 514.235 341.171 514.709 342.8H514.862C515.336 341.155 515.734 339.426 516.208 337.88L519.94 326.377H527.251V354.469H521.041V346.175C521.041 343.316 521.592 338.961 521.913 336.151H521.76L519.619 342.9L516.438 352.192H512.782L509.601 342.9L507.536 336.151H507.383C507.704 338.961 508.255 343.332 508.255 346.175V354.469H502.137V326.377H502.152Z" fill="#B48A8B"/>
<path d="M535.189 326.378H551.892V332.595H542.026V337H550.454V343.216H542.026V348.236H552.289V354.453H535.189V326.361V326.378Z" fill="#B48A8B"/>
<path d="M932.18 381.579C936.53 417.951 901.397 471.98 885.849 477.415C861.912 485.793 816.694 456.168 804.889 430.32C803.946 428.274 803.231 426.262 802.742 424.285C798.989 409.114 801.712 383.145 818.168 372.568C832.975 363.049 851.787 367.422 859.986 365.142C865.032 363.739 872.262 354.519 885.934 350.717C899.605 346.914 922.901 349.747 930.524 373.741C931.317 376.233 931.864 378.857 932.19 381.576L932.18 381.579Z" fill="#E4CFFA"/>
<path d="M933.453 432.155C927.598 445.736 904.492 490.415 886.974 495.8C869.446 501.188 832.775 472.069 821.965 464.319C812.585 457.581 806.354 434.967 805.048 429.563C816.817 455.3 862.56 486.44 886.418 478.102C901.923 472.68 936.93 418.897 932.591 382.686C935.826 395.261 939.155 418.951 933.445 432.167L933.453 432.155Z" fill="#C2B1D5"/>
<path d="M835.323 395.034L839.775 393.796L841.107 400.31L841.207 400.282L844.117 392.589L848.987 391.234L845.421 399.734L853.553 408.46L848.683 409.815L843.581 404.12L842.463 406.937L843.355 411.297L838.903 412.535L835.323 395.034Z" fill="#9F91AB"/>
<path d="M854.106 389.928L858.69 388.673L862.376 406.411L857.792 407.665L854.106 389.928Z" fill="#9F91AB"/>
<path d="M867.138 402.926L869.033 399.031C870.436 399.694 872.079 399.984 873.328 399.637C874.677 399.262 875.153 398.647 874.991 397.858C874.819 397.017 873.905 396.986 872.355 396.791L870.06 396.463C868.087 396.211 866.173 395.064 865.652 392.52C865.038 389.52 867.134 386.348 870.82 385.323C872.739 384.79 875.032 384.954 876.915 386.109L875.275 389.648C873.964 389.124 872.887 388.973 871.639 389.32C870.55 389.623 869.953 390.217 870.113 390.995C870.285 391.836 871.303 391.86 872.969 392.056L875.189 392.327C877.474 392.603 878.973 393.788 879.47 396.218C880.078 399.187 878.232 402.498 874.026 403.667C871.898 404.258 869.285 404.129 867.118 402.932L867.138 402.926Z" fill="#9F91AB"/>
<path d="M883.801 398.607L885.696 394.711C887.099 395.375 888.742 395.664 889.991 395.317C891.339 394.942 891.815 394.327 891.654 393.538C891.482 392.697 890.567 392.666 889.017 392.471L886.722 392.144C884.749 391.891 882.836 390.744 882.315 388.201C881.701 385.2 883.797 382.028 887.483 381.004C889.401 380.47 891.694 380.634 893.578 381.789L891.937 385.329C890.626 384.804 889.55 384.654 888.301 385.001C887.212 385.303 886.616 385.897 886.775 386.676C886.947 387.517 887.966 387.541 889.632 387.736L891.852 388.008C894.136 388.283 895.635 389.469 896.133 391.898C896.741 394.867 894.895 398.178 890.689 399.347C888.561 399.939 885.948 399.81 883.781 398.612L883.801 398.607Z" fill="#9F91AB"/>
<g clip-path="url(#clip10_155_5446)">
<path d="M1329.92 337.144C1335.37 355.023 1321.51 384.194 1313.77 387.883C1301.86 393.57 1275.43 381.626 1266.96 369.466C1266.29 368.504 1265.74 367.545 1265.31 366.589C1262.01 359.254 1261.19 346.125 1268.96 339.812C1275.95 334.131 1286.26 335.132 1290.39 333.479C1292.93 332.461 1295.95 327.406 1302.83 324.65C1309.72 321.893 1322.26 321.843 1328.36 333.339C1328.99 334.532 1329.51 335.808 1329.92 337.144Z" fill="#C3E5F1"/>
<path d="M1334.68 361.911C1332.76 369.09 1324.42 392.949 1315.61 396.754C1306.8 400.56 1284.85 388.271 1278.45 385.067C1272.9 382.274 1267.63 371.328 1266.47 368.699C1274.94 380.862 1301.88 393.593 1313.78 387.908C1321.52 384.212 1335.37 355.038 1329.92 337.154C1332.73 343.256 1336.55 354.925 1334.68 361.911Z" fill="#ACC8D4"/>
<path d="M1282.02 351.472L1284.4 350.516L1287.07 353.473C1287.41 353.882 1287.75 354.351 1288.1 354.78L1288.15 354.76C1288.1 354.202 1288.03 353.629 1287.99 353.101L1287.82 349.147L1290.21 348.191L1293.6 356.658L1291.57 357.47L1290.57 354.97C1290.23 354.108 1289.88 352.723 1289.65 351.835L1289.6 351.855L1289.71 354.169L1289.8 357.385L1288.6 357.863L1286.44 355.478L1284.95 353.714L1284.9 353.734C1285.35 354.538 1286.06 355.784 1286.4 356.641L1287.4 359.141L1285.4 359.94L1282.01 351.474L1282.02 351.472Z" fill="#839CA3"/>
<path d="M1293.07 347.048L1295.3 346.155L1298.69 354.621L1296.46 355.515L1293.07 347.048Z" fill="#839CA3"/>
<path d="M1300.59 352.64L1301.25 350.592C1302.04 350.833 1302.92 350.874 1303.55 350.624C1304.22 350.354 1304.42 350.02 1304.27 349.639C1304.1 349.233 1303.62 349.275 1302.79 349.275L1301.56 349.256C1300.51 349.254 1299.41 348.805 1298.92 347.578C1298.34 346.13 1299.16 344.428 1301 343.691C1301.96 343.307 1303.18 343.245 1304.26 343.7L1303.71 345.555C1302.98 345.377 1302.4 345.37 1301.78 345.619C1301.23 345.837 1300.97 346.169 1301.12 346.544C1301.28 346.95 1301.82 346.899 1302.71 346.891L1303.89 346.887C1305.11 346.881 1306 347.375 1306.47 348.547C1307.04 349.98 1306.36 351.735 1304.26 352.577C1303.2 353.003 1301.82 353.101 1300.58 352.644L1300.59 352.64Z" fill="#839CA3"/>
<path d="M1308.63 349.421L1309.29 347.374C1310.08 347.615 1310.96 347.656 1311.59 347.406C1312.26 347.136 1312.46 346.802 1312.3 346.421C1312.14 346.015 1311.66 346.057 1310.83 346.057L1309.6 346.038C1308.55 346.036 1307.45 345.587 1306.96 344.36C1306.38 342.912 1307.2 341.21 1309.04 340.472C1310 340.089 1311.22 340.027 1312.3 340.481L1311.75 342.337C1311.02 342.159 1310.44 342.151 1309.82 342.401C1309.27 342.619 1309.01 342.95 1309.16 343.326C1309.32 343.732 1309.86 343.68 1310.75 343.673L1311.93 343.669C1313.15 343.663 1314.04 344.157 1314.51 345.329C1315.08 346.762 1314.4 348.517 1312.3 349.359C1311.24 349.784 1309.86 349.883 1308.62 349.425L1308.63 349.421Z" fill="#839CA3"/>
<path d="M1294.49 371.054L1289.72 366.523L1292.11 365.567L1293.44 367.091C1293.91 367.643 1294.35 368.147 1294.83 368.726L1294.88 368.706C1294.84 367.951 1294.82 367.277 1294.79 366.551L1294.71 364.528L1297.04 363.592L1296.72 370.162L1297.89 373.078L1295.65 373.972L1294.49 371.056L1294.49 371.054Z" fill="#839CA3"/>
<path d="M1299.88 367.322C1298.76 364.536 1299.72 362.34 1302.06 361.404C1304.4 360.469 1306.61 361.413 1307.72 364.183C1308.83 366.954 1307.91 369.246 1305.57 370.181C1303.24 371.117 1301 370.107 1299.88 367.322ZM1305.44 365.097C1304.82 363.559 1303.84 362.922 1302.83 363.328C1301.82 363.734 1301.55 364.87 1302.16 366.408C1302.78 367.946 1303.79 368.658 1304.8 368.252C1305.81 367.847 1306.05 366.635 1305.44 365.097Z" fill="#839CA3"/>
<path d="M1310.23 363.395L1308.47 359.017L1310.7 358.123L1312.56 362.762C1313.17 364.275 1313.77 364.666 1314.66 364.312C1315.54 363.958 1315.74 363.246 1315.13 361.733L1313.28 357.094L1315.43 356.23L1317.19 360.609C1318.34 363.5 1317.8 365.293 1315.43 366.24C1313.06 367.188 1311.38 366.291 1310.23 363.395Z" fill="#839CA3"/>
</g>
<path d="M1486.78 164.993C1491.3 235.069 1419.06 333.796 1388.98 342.177C1342.68 355.099 1259.87 292.647 1240.11 241.723C1238.53 237.69 1237.38 233.753 1236.65 229.912C1231.08 200.431 1238.92 151.152 1271.24 133.061C1300.33 116.778 1335.6 127.563 1351.4 124.263C1361.12 122.232 1375.79 105.544 1402.14 100.041C1428.49 94.5389 1472.42 102.958 1484.44 149.8C1485.69 154.664 1486.46 159.751 1486.79 164.989L1486.78 164.993Z" fill="#F6E7CA"/>
<path d="M1483.98 261.577C1471.47 286.785 1422.99 369.216 1389.17 377.253C1355.33 385.294 1288.68 324.904 1268.94 308.695C1251.82 294.606 1242.31 250.573 1240.39 240.075C1260.09 290.791 1343.77 356.215 1389.94 343.35C1419.94 334.983 1491.95 236.683 1487.43 166.901C1492.28 191.356 1496.17 237.073 1483.97 261.601L1483.98 261.577Z" fill="#DDCCAE"/>
<path d="M1299.72 186.27L1291.13 188.063L1290.02 180.55L1315.81 175.168L1316.92 182.681L1308.33 184.473L1312.23 210.908L1303.64 212.7L1299.74 186.266L1299.72 186.27Z" fill="#B1A28B"/>
<path d="M1325.54 173.799L1337.83 171.234C1344.82 169.775 1351.18 171.034 1352.42 179.485C1353.67 187.935 1348.14 192.317 1341.16 193.775L1337.47 194.545L1339.15 205.926L1330.57 207.717L1325.56 173.795L1325.54 173.799ZM1339.5 186.818C1342.89 186.109 1344.45 184.17 1344.02 181.24C1343.58 178.309 1341.64 177.763 1338.26 178.468L1335.17 179.113L1336.41 187.463L1339.5 186.818ZM1339.26 191.772L1344.18 184.62L1357.62 202.091L1348.04 204.091L1339.28 191.768L1339.26 191.772Z" fill="#B1A28B"/>
<path d="M1364.35 184.437L1361.76 166.886L1370.34 165.094L1373.09 183.689C1373.98 189.753 1375.8 191.63 1379.2 190.92C1382.6 190.21 1383.88 187.689 1382.98 181.624L1380.23 163.029L1388.53 161.297L1391.12 178.848C1392.83 190.435 1389.45 196.751 1380.35 198.651C1371.24 200.552 1366.06 196.044 1364.35 184.437Z" fill="#B1A28B"/>
<path d="M1400.4 159.409L1421.45 155.019L1422.57 162.55L1410.13 165.143L1410.92 170.48L1421.54 168.264L1422.65 175.795L1412.03 178.011L1412.93 184.092L1425.87 181.394L1426.98 188.925L1405.42 193.42L1400.39 159.389L1400.4 159.409Z" fill="#B1A28B"/>
<path d="M1305.88 243.117L1314.5 241.319L1318.42 267.828L1330.77 265.254L1331.88 272.788L1310.91 277.16L1305.88 243.117Z" fill="#B1A28B"/>
<path d="M1336.54 254.692C1334.89 243.545 1340.05 236.02 1349.02 234.147C1357.99 232.273 1365 237.32 1366.64 248.408C1368.27 259.495 1363.18 267.401 1354.2 269.274C1345.23 271.148 1338.18 265.84 1336.54 254.692ZM1357.88 250.237C1356.97 244.082 1354.05 241.033 1350.15 241.846C1346.26 242.658 1344.39 246.708 1345.3 252.863C1346.21 259.018 1349.17 262.368 1353.06 261.555C1356.96 260.742 1358.78 256.392 1357.88 250.237Z" fill="#B1A28B"/>
<path d="M1370.38 230.979L1379.44 229.086L1385.02 243.171C1386.45 246.571 1387.56 249.955 1389 253.415L1389.19 253.375C1389.56 249.538 1389.69 245.915 1390 242.13L1391.12 226.649L1399.9 224.816L1395.33 260.689L1384.96 262.854L1370.4 230.975L1370.38 230.979Z" fill="#B1A28B"/>
<path d="M1407.48 223.747L1428.53 219.357L1429.65 226.888L1417.21 229.481L1418 234.818L1428.62 232.602L1429.73 240.134L1419.11 242.349L1420.01 248.43L1432.95 245.732L1434.06 253.263L1412.5 257.758L1407.47 223.727L1407.48 223.747Z" fill="#B1A28B"/>
<path d="M1309.69 249.319C1305.18 306.683 1237.76 374.236 1213.44 375.931C1176 378.558 1118.84 314.146 1109.33 269.681C1108.56 266.157 1108.12 262.783 1108 259.558C1107.05 234.808 1118.78 196.327 1145.96 187.168C1170.42 178.923 1196.57 193.584 1209.22 193.584C1217.01 193.584 1230.31 182.58 1251.4 182.58C1272.5 182.58 1305.66 196.792 1309.62 236.653C1310.03 240.792 1310.05 245.03 1309.71 249.319H1309.69Z" fill="#FFCFCF"/>
<path d="M1296.1 325.598C1283.45 343.933 1236.2 402.61 1208.93 403.408C1181.64 404.205 1136.68 343.933 1123.17 327.443C1111.46 313.115 1109.12 275.781 1108.82 266.938C1118.34 311.419 1175.99 378.657 1213.43 376.031C1237.76 374.318 1305.17 306.749 1309.68 249.368C1310.64 270.03 1308.41 307.779 1296.08 325.615L1296.1 325.598Z" fill="#DAACAC"/>
<path d="M1141.66 246.393C1141.66 236.969 1147.63 231.616 1154.14 231.616C1157.57 231.616 1160.35 233.345 1162.17 235.34L1158.59 240.094C1157.33 238.88 1156.06 238.016 1154.3 238.016C1151.27 238.016 1148.65 241.041 1148.65 246.144C1148.65 251.247 1150.89 254.356 1154.22 254.356C1156.21 254.356 1157.8 253.225 1158.92 251.929L1162.49 256.6C1160.31 259.359 1157.33 260.755 1153.99 260.755C1147.38 260.755 1141.66 256.001 1141.66 246.41V246.393Z" fill="#B48A8B"/>
<path d="M1168.26 232.131H1175.1V242.586H1182.81V232.131H1189.64V260.223H1182.81V249.069H1175.1V260.223H1168.26V232.131Z" fill="#B48A8B"/>
<path d="M1202.19 232.131H1210.46L1218.34 260.223H1211.1L1208.17 246.559C1207.52 243.883 1206.9 240.459 1206.25 237.649H1206.1C1205.55 240.508 1204.91 243.866 1204.27 246.559L1201.33 260.223H1194.32L1202.2 232.131H1202.19ZM1199.95 248.504H1212.6V254.255H1199.95V248.504Z" fill="#B48A8B"/>
<path d="M1222.59 232.131H1232.38C1237.95 232.131 1242.72 234.209 1242.72 241.207C1242.72 248.205 1237.95 250.798 1232.38 250.798H1229.44V260.223H1222.6V232.131H1222.59ZM1231.89 244.93C1234.6 244.93 1236.02 243.633 1236.02 241.207C1236.02 238.78 1234.58 238.015 1231.89 238.015H1229.43V244.93H1231.89ZM1231.14 248.869L1235.76 243.949L1244.15 260.239H1236.52L1231.15 248.869H1231.14Z" fill="#B48A8B"/>
<path d="M1249.83 232.131H1257.14L1261.04 243.633C1261.51 245.196 1261.91 246.925 1262.39 248.554H1262.54C1263.01 246.908 1263.41 245.179 1263.89 243.633L1267.62 232.131H1274.93V260.223H1268.72V251.928C1268.72 249.069 1269.27 244.714 1269.59 241.905H1269.44L1267.3 248.653L1264.11 257.945H1260.46L1257.28 248.653L1255.21 241.905H1255.06C1255.38 244.714 1255.93 249.086 1255.93 251.928V260.223H1249.81V232.131H1249.83Z" fill="#B48A8B"/>
<path d="M1184.15 283.993H1191.46L1195.36 295.495C1195.84 297.058 1196.24 298.787 1196.71 300.416H1196.86C1197.34 298.77 1197.73 297.041 1198.21 295.495L1201.94 283.993H1209.25V312.085H1203.04V303.79C1203.04 300.931 1203.59 296.576 1203.91 293.767H1203.76L1201.62 300.515L1198.44 309.807H1194.78L1191.6 300.515L1189.54 293.767H1189.38C1189.7 296.576 1190.26 300.948 1190.26 303.79V312.085H1184.14V283.993H1184.15Z" fill="#B48A8B"/>
<path d="M1217.19 283.993H1233.89V290.21H1224.03V294.615H1232.45V300.832H1224.03V305.852H1234.29V312.068H1217.19V283.977V283.993Z" fill="#B48A8B"/>
<path d="M1421.24 391.132C1417.13 416.98 1381.68 445.197 1369.64 445.096C1351.1 444.946 1325.05 413.695 1321.84 393.195C1321.58 391.569 1321.47 390.024 1321.52 388.557C1321.86 377.301 1328.9 360.272 1342.6 357.092C1354.92 354.229 1367.33 361.812 1373.56 362.265C1377.4 362.544 1384.32 358.03 1394.71 358.785C1405.1 359.54 1420.97 367.17 1421.61 385.385C1421.68 387.277 1421.55 389.199 1421.24 391.132Z" fill="#F6E7CA"/>
<path d="M1412.03 425.232C1405.19 433.092 1379.98 458.007 1366.52 457.392C1353.04 456.778 1332.87 427.84 1326.76 419.88C1321.46 412.957 1321.53 395.945 1321.69 391.926C1324.91 412.435 1351.1 444.984 1369.64 445.133C1381.69 445.228 1417.13 417.003 1421.24 391.147C1421.03 400.55 1418.69 417.586 1412.03 425.232Z" fill="#DDCCAE"/>
<path d="M1345.74 386.487L1347.83 384.312C1348.68 385.101 1349.77 385.696 1350.71 385.764C1351.73 385.838 1352.18 385.538 1352.23 384.965C1352.27 384.355 1351.64 384.112 1350.59 383.604L1349.05 382.825C1347.72 382.175 1346.6 380.935 1346.74 379.089C1346.89 376.91 1348.98 375.274 1351.76 375.476C1353.21 375.581 1354.78 376.248 1355.88 377.487L1354.03 379.482C1353.22 378.809 1352.49 378.446 1351.55 378.378C1350.73 378.318 1350.2 378.575 1350.16 379.14C1350.11 379.75 1350.82 380.014 1351.95 380.551L1353.45 381.273C1354.99 382.014 1355.81 383.18 1355.68 384.943C1355.53 387.099 1353.58 388.89 1350.41 388.66C1348.81 388.543 1347 387.821 1345.72 386.485L1345.74 386.487Z" fill="#B1A28B"/>
<path d="M1359.63 382.624C1359.94 378.433 1362.5 376.255 1366.02 376.512C1369.55 376.768 1371.77 379.315 1371.46 383.483C1371.16 387.651 1368.59 389.972 1365.06 389.716C1361.54 389.46 1359.33 386.814 1359.63 382.624ZM1368.02 383.233C1368.19 380.919 1367.34 379.517 1365.81 379.406C1364.28 379.295 1363.24 380.56 1363.08 382.874C1362.91 385.188 1363.74 386.703 1365.27 386.814C1366.8 386.925 1367.85 385.547 1368.02 383.233Z" fill="#B1A28B"/>
<path d="M1375.89 384.085L1376.37 377.498L1379.74 377.742L1379.23 384.721C1379.07 386.998 1379.59 387.862 1380.93 387.959C1382.26 388.056 1382.95 387.279 1383.11 385.003L1383.62 378.024L1386.88 378.261L1386.4 384.848C1386.08 389.197 1384.29 391.12 1380.72 390.86C1377.15 390.601 1375.57 388.441 1375.89 384.085Z" fill="#B1A28B"/>
<path d="M1391.87 378.624L1395.24 378.868L1394.52 388.787L1399.34 389.137L1399.14 391.956L1390.95 391.361L1391.87 378.624Z" fill="#B1A28B"/>
<path d="M1346.19 398.945L1349.79 399.206L1351.33 404.562C1351.52 405.287 1351.65 406.085 1351.83 406.841L1351.91 406.846C1352.2 406.117 1352.45 405.347 1352.73 404.663L1354.95 399.581L1358.56 399.843L1357.63 412.58L1354.57 412.358L1354.84 408.597C1354.94 407.301 1355.35 405.346 1355.6 404.084L1355.53 404.078L1354.25 407.062L1352.38 411.161L1350.58 411.03L1349.31 406.703L1348.52 403.569L1348.44 403.564C1348.51 404.849 1348.64 406.851 1348.54 408.14L1348.27 411.9L1345.25 411.682L1346.18 398.944L1346.19 398.945Z" fill="#B1A28B"/>
<path d="M1365.92 400.378L1370 400.674L1372.95 413.693L1369.39 413.434L1368.39 407.134C1368.16 405.897 1367.97 404.322 1367.74 403.026L1367.67 403.02C1367.3 404.297 1366.87 405.796 1366.47 406.994L1364.57 413.084L1361.12 412.834L1365.93 400.378L1365.92 400.378ZM1364.28 407.722L1370.51 408.174L1370.32 410.782L1364.09 410.329L1364.28 407.722Z" fill="#B1A28B"/>
<path d="M1378.01 404.089L1374.64 403.845L1374.84 401.026L1384.96 401.76L1384.75 404.579L1381.38 404.334L1380.66 414.253L1377.29 414.008L1378.01 404.09L1378.01 404.089Z" fill="#B1A28B"/>
<path d="M1389.09 402.06L1397.32 402.658L1397.11 405.477L1392.25 405.124L1392.11 407.121L1396.26 407.422L1396.05 410.241L1391.9 409.94L1391.74 412.216L1396.79 412.583L1396.59 415.402L1388.16 414.79L1389.09 402.053L1389.09 402.06Z" fill="#B1A28B"/>
<defs>
<clipPath id="clip0_155_5446">
<rect width="81" height="82" fill="white" transform="translate(55 379.423) rotate(-1.00657)"/>
</clipPath>
<clipPath id="clip1_155_5446">
<rect width="81" height="82" fill="white" transform="translate(1208.95 134.36)"/>
</clipPath>
<clipPath id="clip2_155_5446">
<rect width="125" height="127" fill="white" transform="translate(691 363)"/>
</clipPath>
<clipPath id="clip3_155_5446">
<rect width="132.06" height="132.85" fill="white" transform="translate(148.443 340.511) rotate(23.052)"/>
</clipPath>
<clipPath id="clip4_155_5446">
<rect width="107" height="108" fill="white" transform="translate(1128 393.345) rotate(-13.1512)"/>
</clipPath>
<clipPath id="clip5_155_5446">
<rect width="68" height="69" fill="white" transform="translate(250 164)"/>
</clipPath>
<clipPath id="clip6_155_5446">
<rect width="79.7881" height="74.9613" fill="white" transform="translate(577.151 378.985) rotate(16.1698)"/>
</clipPath>
<clipPath id="clip7_155_5446">
<rect width="96" height="97" fill="white" transform="translate(1058 320.623) rotate(-13.017)"/>
</clipPath>
<clipPath id="clip8_155_5446">
<rect width="96" height="97" fill="white" transform="translate(1233 370)"/>
</clipPath>
<clipPath id="clip9_155_5446">
<rect width="81" height="82" fill="white" transform="translate(-1.82373 58) rotate(9.95553)"/>
</clipPath>
<clipPath id="clip10_155_5446">
<rect width="71.0264" height="71.6902" fill="white" transform="translate(1256 343.397) rotate(-21.8175)"/>
</clipPath>
</defs>
</svg>
