<svg width="1001" height="295" viewBox="0 0 1001 295" fill="none" xmlns="http://www.w3.org/2000/svg">
<path d="M5.68942 146.718C9.08676 147.931 10.7854 149.812 10.7854 152.36L12.6054 221.702V244.088C12.6054 248.213 10.8461 250.276 7.32743 250.276H4.96142C2.77742 248.82 1.68542 247.121 1.68542 245.18V224.068L0.0474243 151.996C0.0474243 148.963 1.92809 147.203 5.68942 146.718Z" fill="#342D38"/>
<path d="M54.828 178.386C63.8067 178.386 70.6013 185.059 75.212 198.406L75.94 202.228C75.94 215.211 69.8733 228.497 57.74 242.086C52.8867 246.575 47.9727 248.82 42.998 248.82C35.718 248.82 30.5613 244.634 27.528 236.262C26.436 232.379 25.89 228.982 25.89 226.07V223.886C25.89 204.715 32.8667 190.155 46.82 180.206C49.2467 178.993 51.916 178.386 54.828 178.386ZM36.628 225.706C36.628 233.957 38.7513 238.082 42.998 238.082C51.8553 238.082 59.196 226.737 65.02 204.048V200.59C62.9573 193.067 59.1353 189.306 53.554 189.306C51.37 189.306 50.278 190.823 50.278 193.856C50.278 195.919 47.8513 197.557 42.998 198.77C38.7513 205.929 36.628 214.907 36.628 225.706Z" fill="#342D38"/>
<path d="M86.7349 185.666C89.5255 185.666 92.5589 192.339 95.8349 205.686C100.446 216.363 103.054 222.005 103.661 222.612C104.268 222.612 106.512 216.545 110.395 204.412C114.278 192.279 117.978 186.212 121.497 186.212C124.773 187.425 126.411 189.367 126.411 192.036C116.34 218.001 111.305 235.17 111.305 243.542L107.847 247H104.389C100.021 243.845 92.6195 227.162 82.1849 196.95L80.5469 190.216C81.3962 187.183 83.4589 185.666 86.7349 185.666Z" fill="#342D38"/>
<path d="M150.506 181.662C155.359 181.783 163.549 190.277 175.076 207.142L175.44 210.236C175.44 213.633 167.129 216.242 150.506 218.062L149.96 218.608V219.336C152.508 230.256 155.177 235.716 157.968 235.716H160.152C164.035 235.716 169.919 231.53 177.806 223.158H178.898C181.325 223.158 183.205 224.917 184.54 228.436C184.54 231.348 179.444 236.383 169.252 243.542C166.583 245.119 163.367 246.272 159.606 247C149.778 247 142.923 237.779 139.04 219.336C133.459 218.487 130.668 216.181 130.668 212.42C130.668 209.751 132.731 207.991 136.856 207.142V207.87L138.676 207.142V202.592C138.676 188.639 142.619 181.662 150.506 181.662ZM151.598 194.766H149.96L149.232 201.5V207.142H149.96C156.755 206.899 160.152 206.171 160.152 204.958C156.997 200.226 154.146 196.829 151.598 194.766Z" fill="#342D38"/>
<path d="M262.324 152.178C266.934 153.149 269.24 155.211 269.24 158.366C268.026 161.763 266.085 163.462 263.416 163.462C258.926 162.613 256.682 160.368 256.682 156.728C257.895 153.695 259.776 152.178 262.324 152.178ZM269.24 177.658C271.181 177.658 272.819 179.417 274.154 182.936L272.516 195.858V204.412C272.516 214.361 274.214 227.405 277.612 243.542C276.398 245.847 274.336 247 271.424 247C266.449 247 263.173 232.44 261.596 203.32V196.95C261.596 184.089 264.144 177.658 269.24 177.658Z" fill="#342D38"/>
<path d="M323.56 173.29C326.836 173.29 329.08 178.811 330.294 189.852C329.08 192.885 327.078 194.402 324.288 194.402C322.346 194.038 320.405 191.793 318.464 187.668L315.188 186.576C309.485 186.576 304.328 190.337 299.718 197.86V199.498C299.718 201.318 308.272 204.351 325.38 208.598C332.538 212.845 336.118 218.001 336.118 224.068C336.118 234.017 328.11 242.511 312.094 249.548L305.36 250.64C295.168 249.548 290.072 244.452 290.072 235.352V234.806C290.072 231.894 291.952 230.195 295.714 229.71C298.626 229.71 300.567 232.743 301.538 238.81L302.994 239.902H306.088C313.004 239.902 319.434 235.17 325.38 225.706V223.34C325.38 219.7 317.432 216.303 301.538 213.148C293.166 209.751 288.98 205.019 288.98 198.952C288.98 191.065 295.592 183.664 308.818 176.748C314.642 176.02 319.556 174.867 323.56 173.29Z" fill="#342D38"/>
<path d="M413.576 152.178C418.186 153.149 420.492 155.211 420.492 158.366C419.278 161.763 417.337 163.462 414.668 163.462C410.178 162.613 407.934 160.368 407.934 156.728C409.147 153.695 411.028 152.178 413.576 152.178ZM420.492 177.658C422.433 177.658 424.071 179.417 425.406 182.936L423.768 195.858V204.412C423.768 214.361 425.466 227.405 428.864 243.542C427.65 245.847 425.588 247 422.676 247C417.701 247 414.425 232.44 412.848 203.32V196.95C412.848 184.089 415.396 177.658 420.492 177.658Z" fill="#342D38"/>
<path d="M461.889 185.666C472.203 186.515 477.359 191.551 477.359 200.772L477.723 203.138L477.359 231.53C477.359 234.806 479.24 239.235 483.001 244.816V245.18C482.031 248.699 480.271 250.458 477.723 250.458C470.201 247.303 466.439 240.63 466.439 230.438V228.072L465.893 227.708L466.439 226.98V226.616L466.985 201.5C466.985 197.981 465.469 196.222 462.435 196.222H460.251C454.185 198.649 451.151 211.935 451.151 236.08C451.151 244.452 449.028 248.638 444.781 248.638C441.505 248.638 439.807 246.575 439.685 242.45V224.25C439.685 200.711 441.748 188.942 445.873 188.942L447.693 188.396L451.515 188.942C454.791 186.758 458.249 185.666 461.889 185.666Z" fill="#342D38"/>
<path d="M578.788 136.526C582.185 137.254 583.884 138.953 583.884 141.622L582.792 149.63V151.996C582.792 157.335 583.398 162.977 584.612 168.922H584.976C599.05 164.675 607.786 162.552 611.184 162.552C614.702 163.523 616.462 165.282 616.462 167.83C616.462 171.955 612.276 174.018 603.904 174.018L584.976 180.752C584.976 197.132 586.735 219.397 590.254 247.546C589.526 250.822 587.766 252.46 584.976 252.46H584.612C580.365 252.46 578.242 247 578.242 236.08C576.664 227.951 575.329 210.297 574.237 183.118H570.961C559.556 182.39 553.854 179.721 553.854 175.11C553.854 173.775 555.128 172.137 557.676 170.196H559.496L567.867 172.38H573.692L572.054 149.63C572.054 140.894 574.298 136.526 578.788 136.526Z" fill="#342D38"/>
<path d="M629.651 146.536C633.048 146.536 634.747 150.661 634.747 158.912L636.931 190.216H637.659L646.759 186.758C656.951 186.758 663.139 197.193 665.323 218.062C666.172 224.007 666.597 232.743 666.597 244.27V259.012C666.597 263.623 664.898 265.928 661.501 265.928H660.773C657.497 265.443 655.859 263.683 655.859 260.65V243.542C655.859 216.121 653.189 200.954 647.851 198.042H646.759C643.119 198.042 640.45 203.623 638.751 214.786V224.978C638.751 243.178 637.234 252.278 634.201 252.278L630.743 252.642C627.346 252.642 625.647 247.607 625.647 237.536C626.011 226.859 626.739 218.123 627.831 211.328L624.009 151.45C624.009 148.295 625.889 146.657 629.651 146.536Z" fill="#342D38"/>
<path d="M691.529 181.662C696.383 181.783 704.573 190.277 716.099 207.142L716.463 210.236C716.463 213.633 708.152 216.242 691.529 218.062L690.983 218.608V219.336C693.531 230.256 696.201 235.716 698.991 235.716H701.175C705.058 235.716 710.943 231.53 718.829 223.158H719.921C722.348 223.158 724.229 224.917 725.563 228.436C725.563 231.348 720.467 236.383 710.275 243.542C707.606 245.119 704.391 246.272 700.629 247C690.801 247 683.946 237.779 680.063 219.336C674.482 218.487 671.691 216.181 671.691 212.42C671.691 209.751 673.754 207.991 677.879 207.142V207.87L679.699 207.142V202.592C679.699 188.639 683.643 181.662 691.529 181.662ZM692.621 194.766H690.983L690.255 201.5V207.142H690.983C697.778 206.899 701.175 206.171 701.175 204.958C698.021 200.226 695.169 196.829 692.621 194.766Z" fill="#342D38"/>
<path d="M835.197 176.748C840.536 176.748 843.205 178.871 843.205 183.118L841.567 186.576L840.475 219.882C840.475 234.927 843.508 244.27 849.575 247.91L849.939 250.64C849.575 254.159 847.937 255.918 845.025 255.918H843.933C834.833 249.73 830.283 240.266 830.283 227.526H829.009C824.156 241.115 818.271 247.91 811.355 247.91C804.924 246.09 801.709 241.297 801.709 233.532C801.709 216.424 808.564 199.377 822.275 182.39C826.886 178.629 831.193 176.748 835.197 176.748ZM813.175 226.252L812.447 231.348V234.806H814.267C823.367 212.117 827.917 198.285 827.917 193.31H827.189C820.152 201.197 815.48 212.177 813.175 226.252Z" fill="#342D38"/>
<path d="M856.49 152.178C861.1 153.149 863.406 155.211 863.406 158.366C862.192 161.763 860.251 163.462 857.582 163.462C853.092 162.613 850.848 160.368 850.848 156.728C852.061 153.695 853.942 152.178 856.49 152.178ZM863.406 177.658C865.347 177.658 866.985 179.417 868.32 182.936L866.682 195.858V204.412C866.682 214.361 868.38 227.405 871.778 243.542C870.564 245.847 868.502 247 865.59 247C860.615 247 857.339 232.44 855.762 203.32V196.95C855.762 184.089 858.31 177.658 863.406 177.658Z" fill="#342D38"/>
<path d="M905.168 175.292C912.812 175.292 917.362 180.631 918.818 191.308V192.946C918.818 204.715 912.751 215.514 900.618 225.342C907.655 232.258 919.97 235.716 937.564 235.716C940.233 236.565 941.568 238.446 941.568 241.358C941.568 244.634 939.444 246.272 935.198 246.272C923.307 246.272 910.81 243.239 897.706 237.172V242.45C897.706 254.947 895.036 261.196 889.698 261.196C885.936 261.196 884.056 253.977 884.056 239.538V225.342L883.51 220.246L884.784 214.422L883.51 196.95V196.222C883.51 192.946 885.208 190.701 888.606 189.488C893.338 180.024 898.858 175.292 905.168 175.292ZM896.068 215.15C899.586 215.15 903.53 208.841 907.898 196.222V188.396L905.714 186.03H904.076C898.737 189.67 896.068 199.377 896.068 215.15Z" fill="#342D38"/>
<path d="M984.38 117.052C995.422 118.872 1000.94 124.332 1000.94 133.432C1000.94 145.808 992.995 160.853 977.1 178.568C979.163 184.028 981.59 198.831 984.38 222.976C985.594 224.189 986.2 225.706 986.2 227.526H986.746C986.746 230.681 984.441 232.561 979.83 233.168C974.977 233.168 971.58 218.729 969.638 189.852C968.304 183.785 966.423 180.752 963.996 180.752C961.327 178.083 959.992 175.595 959.992 173.29C960.842 170.257 962.783 168.74 965.816 168.74L970.366 169.832C983.47 156.243 990.022 143.745 990.022 132.34C989.294 130.156 988.02 128.639 986.2 127.79H984.016C976.13 127.79 968.668 135.616 961.63 151.268C961.63 159.155 960.114 163.098 957.08 163.098L956.716 163.826H955.988C952.591 163.826 950.892 160.914 950.892 155.09V154.726C950.892 143.927 957.384 133.068 970.366 122.148C974.856 118.751 979.527 117.052 984.38 117.052ZM988.93 247.182C994.269 249.609 996.938 252.885 996.938 257.01C995.725 260.043 993.844 261.56 991.296 261.56C985.594 258.284 982.742 255.251 982.742 252.46C982.742 249.791 984.805 248.031 988.93 247.182Z" fill="#342D38"/>
<path d="M325.384 49.666C335.697 50.5153 340.854 55.5507 340.854 64.772L341.218 67.138L340.854 95.53C340.854 98.806 342.734 103.235 346.496 108.816V109.18C345.525 112.699 343.766 114.458 341.218 114.458C333.695 111.303 329.934 104.63 329.934 94.438V92.072L329.388 91.708L329.934 90.98V90.616L330.48 65.5C330.48 61.9813 328.963 60.222 325.93 60.222H323.746C317.679 62.6487 314.646 75.9347 314.646 100.08C314.646 108.452 312.522 112.638 308.276 112.638C305 112.638 303.301 110.575 303.18 106.45V88.25C303.18 64.7113 305.242 52.942 309.368 52.942L311.188 52.396L315.01 52.942C318.286 50.758 321.744 49.666 325.384 49.666Z" fill="#342D38"/>
<path d="M381.32 42.386C390.299 42.386 397.094 49.0593 401.704 62.406L402.432 66.228C402.432 79.2107 396.366 92.4967 384.232 106.086C379.379 110.575 374.465 112.82 369.49 112.82C362.21 112.82 357.054 108.634 354.02 100.262C352.928 96.3793 352.382 92.982 352.382 90.07V87.886C352.382 68.7153 359.359 54.1553 373.312 44.206C375.739 42.9927 378.408 42.386 381.32 42.386ZM363.12 89.706C363.12 97.9567 365.244 102.082 369.49 102.082C378.348 102.082 385.688 90.7373 391.512 68.048V64.59C389.45 57.0673 385.628 53.306 380.046 53.306C377.862 53.306 376.77 54.8227 376.77 57.856C376.77 59.9187 374.344 61.5567 369.49 62.77C365.244 69.9287 363.12 78.9073 363.12 89.706Z" fill="#342D38"/>
<path d="M431.973 0.526001C435.37 1.25401 437.069 2.95267 437.069 5.62199L435.977 13.63V15.996C435.977 21.3347 436.584 26.9767 437.797 32.922H438.161C452.236 28.6753 460.972 26.552 464.369 26.552C467.888 27.5227 469.647 29.282 469.647 31.83C469.647 35.9553 465.461 38.018 457.089 38.018L438.161 44.752C438.161 61.132 439.92 83.3967 443.439 111.546C442.711 114.822 440.952 116.46 438.161 116.46H437.797C433.55 116.46 431.427 111 431.427 100.08C429.85 91.9507 428.515 74.2967 427.423 47.118H424.147C412.742 46.39 407.039 43.7207 407.039 39.11C407.039 37.7753 408.313 36.1373 410.861 34.196H412.681L421.053 36.38H426.877L425.239 13.63C425.239 4.894 427.484 0.526001 431.973 0.526001Z" fill="#342D38"/>
<path d="M390.191 293.568C387.505 293.359 384.895 289.15 382.363 280.942C378.421 274.226 376.173 270.664 375.617 270.257C375.033 270.211 372.59 273.662 368.288 280.609C363.987 287.556 360.142 290.898 356.755 290.634C353.659 289.664 352.172 288.383 352.296 286.79C363.198 272.056 368.843 262.191 369.233 257.197L372.722 255.393L376.051 255.653C380.108 257.863 386.457 268.371 395.095 287.178L396.359 291.318C395.4 293.064 393.344 293.814 390.191 293.568Z" fill="#342D38"/>
</svg>
